M48
; DRILL file {KiCad 8.0.1} date 2025-01-27T18:08:34-0600
; FORMAT={-:-/ absolute / metric / decimal}
; #@! TF.CreationDate,2025-01-27T18:08:34-06:00
; #@! TF.GenerationSoftware,Kicad,Pcbnew,8.0.1
; #@! TF.FileFunction,Plated,1,2,PTH
FMAT,2
METRIC
; #@! TA.AperFunction,Plated,PTH,ViaDrill
T1C0.300
; #@! TA.AperFunction,Plated,PTH,ComponentDrill
T2C0.600
; #@! TA.AperFunction,Plated,PTH,ComponentDrill
T3C1.000
%
G90
G05
T1
X128.7Y-111.9
X128.75Y-102.0
X128.8Y-81.95
X128.85Y-91.6
X129.0Y-71.3
X129.5Y-78.2
X129.5Y-108.55
X129.55Y-88.0
X129.55Y-98.5
X129.6Y-67.75
X143.9Y-58.0
X145.35Y-56.95
X148.15Y-85.8
X150.45Y-56.95
X150.65Y-60.5
X154.0Y-58.55
X157.5Y-64.85
X162.15Y-114.5
X162.25Y-104.4
X162.35Y-95.05
X162.45Y-85.3
X162.65Y-74.55
X163.45Y-98.85
X163.6Y-79.2
X163.65Y-109.55
X163.85Y-89.15
X163.9Y-67.95
X164.4Y-112.7
X164.65Y-102.3
X164.75Y-92.65
X164.9Y-82.65
X165.2Y-71.35
T3
X120.7Y-66.075
X120.7Y-68.615
X120.7Y-71.155
X120.7Y-73.695
X120.7Y-76.235
X120.7Y-78.775
X120.7Y-81.315
X120.7Y-83.855
X120.7Y-86.395
X120.7Y-88.935
X120.7Y-91.475
X120.7Y-94.015
X120.7Y-96.555
X120.7Y-99.095
X120.7Y-101.635
X120.7Y-104.175
X120.7Y-106.715
X120.7Y-109.255
X120.7Y-111.795
X120.7Y-114.335
X140.0Y-66.075
X140.0Y-68.615
X140.0Y-71.155
X140.0Y-73.695
X140.0Y-76.235
X140.0Y-78.775
X140.0Y-81.315
X140.0Y-83.855
X140.0Y-86.395
X140.0Y-88.935
X140.0Y-91.475
X140.0Y-94.015
X140.0Y-96.555
X140.0Y-99.095
X140.0Y-101.635
X140.0Y-104.175
X140.0Y-106.715
X140.0Y-109.255
X140.0Y-111.795
X140.0Y-114.335
X155.24Y-66.075
X155.24Y-68.615
X155.24Y-71.155
X155.24Y-73.695
X155.24Y-76.235
X155.24Y-78.775
X155.24Y-81.315
X155.24Y-83.855
X155.24Y-86.395
X155.24Y-88.935
X155.24Y-91.475
X155.24Y-94.015
X155.24Y-96.555
X155.24Y-99.095
X155.24Y-101.635
X155.24Y-104.175
X155.24Y-106.715
X155.24Y-109.255
X155.24Y-111.795
X155.24Y-114.335
X175.4Y-66.075
X175.4Y-68.615
X175.4Y-71.155
X175.4Y-73.695
X175.4Y-76.235
X175.4Y-78.775
X175.4Y-81.315
X175.4Y-83.855
X175.4Y-86.395
X175.4Y-88.935
X175.4Y-91.475
X175.4Y-94.015
X175.4Y-96.555
X175.4Y-99.095
X175.4Y-101.635
X175.4Y-104.175
X175.4Y-106.715
X175.4Y-109.255
X175.4Y-111.795
X175.4Y-114.335
T2
X143.53Y-49.2G85X143.53Y-48.6
G05
X143.53Y-53.0G85X143.53Y-52.4
G05
X152.17Y-49.2G85X152.17Y-48.6
G05
X152.17Y-53.0G85X152.17Y-52.4
G05
M30
