%TF.GenerationSoftware,KiCad,Pcbnew,8.0.1*%
%TF.CreationDate,2025-01-27T18:08:42-06:00*%
%TF.ProjectId,level-shifter,6c657665-6c2d-4736-9869-667465722e6b,rev?*%
%TF.SameCoordinates,Original*%
%TF.FileFunction,Drillmap*%
%TF.FilePolarity,Positive*%
%FSLAX45Y45*%
G04 Gerber Fmt 4.5, Leading zero omitted, Abs format (unit mm)*
G04 Created by KiCad (PCBNEW 8.0.1) date 2025-01-27 18:08:42*
%MOMM*%
%LPD*%
G01*
G04 APERTURE LIST*
%ADD10C,0.050000*%
%ADD11C,0.200000*%
G04 APERTURE END LIST*
D10*
X17795000Y-6070000D02*
X17590000Y-5865000D01*
X11825000Y-6150000D02*
X11830000Y-6145000D01*
X13990000Y-4755000D02*
X13990000Y-5675000D01*
X11936000Y-11705000D02*
X17659000Y-11705000D01*
X15510000Y-4755000D02*
X13990000Y-4755000D01*
X11825000Y-11573000D02*
X11936000Y-11705000D01*
X17590000Y-5865000D02*
X15665000Y-5865000D01*
X12130000Y-5845000D02*
X11830000Y-6145000D01*
X11825000Y-6345000D02*
X11825000Y-11573000D01*
X13990000Y-5675000D02*
X13820000Y-5845000D01*
X15665000Y-5865000D02*
X15510000Y-5710000D01*
X15510000Y-5710000D02*
X15510000Y-4755000D01*
X17795000Y-11523000D02*
X17795000Y-6070000D01*
X17795000Y-11523000D02*
X17659000Y-11705000D01*
X11825000Y-6345000D02*
X11825000Y-6150000D01*
X13820000Y-5845000D02*
X12130000Y-5845000D01*
D11*
X12083277Y-12018984D02*
X12083277Y-11818984D01*
X12083277Y-11818984D02*
X12130896Y-11818984D01*
X12130896Y-11818984D02*
X12159467Y-11828508D01*
X12159467Y-11828508D02*
X12178515Y-11847555D01*
X12178515Y-11847555D02*
X12188039Y-11866603D01*
X12188039Y-11866603D02*
X12197562Y-11904698D01*
X12197562Y-11904698D02*
X12197562Y-11933269D01*
X12197562Y-11933269D02*
X12188039Y-11971365D01*
X12188039Y-11971365D02*
X12178515Y-11990412D01*
X12178515Y-11990412D02*
X12159467Y-12009460D01*
X12159467Y-12009460D02*
X12130896Y-12018984D01*
X12130896Y-12018984D02*
X12083277Y-12018984D01*
X12283277Y-12018984D02*
X12283277Y-11885650D01*
X12283277Y-11923746D02*
X12292801Y-11904698D01*
X12292801Y-11904698D02*
X12302324Y-11895174D01*
X12302324Y-11895174D02*
X12321372Y-11885650D01*
X12321372Y-11885650D02*
X12340420Y-11885650D01*
X12407086Y-12018984D02*
X12407086Y-11885650D01*
X12407086Y-11818984D02*
X12397562Y-11828508D01*
X12397562Y-11828508D02*
X12407086Y-11838031D01*
X12407086Y-11838031D02*
X12416610Y-11828508D01*
X12416610Y-11828508D02*
X12407086Y-11818984D01*
X12407086Y-11818984D02*
X12407086Y-11838031D01*
X12530896Y-12018984D02*
X12511848Y-12009460D01*
X12511848Y-12009460D02*
X12502324Y-11990412D01*
X12502324Y-11990412D02*
X12502324Y-11818984D01*
X12635658Y-12018984D02*
X12616610Y-12009460D01*
X12616610Y-12009460D02*
X12607086Y-11990412D01*
X12607086Y-11990412D02*
X12607086Y-11818984D01*
X12864229Y-12018984D02*
X12864229Y-11818984D01*
X12864229Y-11818984D02*
X12930896Y-11961841D01*
X12930896Y-11961841D02*
X12997562Y-11818984D01*
X12997562Y-11818984D02*
X12997562Y-12018984D01*
X13178515Y-12018984D02*
X13178515Y-11914222D01*
X13178515Y-11914222D02*
X13168991Y-11895174D01*
X13168991Y-11895174D02*
X13149943Y-11885650D01*
X13149943Y-11885650D02*
X13111848Y-11885650D01*
X13111848Y-11885650D02*
X13092801Y-11895174D01*
X13178515Y-12009460D02*
X13159467Y-12018984D01*
X13159467Y-12018984D02*
X13111848Y-12018984D01*
X13111848Y-12018984D02*
X13092801Y-12009460D01*
X13092801Y-12009460D02*
X13083277Y-11990412D01*
X13083277Y-11990412D02*
X13083277Y-11971365D01*
X13083277Y-11971365D02*
X13092801Y-11952317D01*
X13092801Y-11952317D02*
X13111848Y-11942793D01*
X13111848Y-11942793D02*
X13159467Y-11942793D01*
X13159467Y-11942793D02*
X13178515Y-11933269D01*
X13273753Y-11885650D02*
X13273753Y-12085650D01*
X13273753Y-11895174D02*
X13292801Y-11885650D01*
X13292801Y-11885650D02*
X13330896Y-11885650D01*
X13330896Y-11885650D02*
X13349943Y-11895174D01*
X13349943Y-11895174D02*
X13359467Y-11904698D01*
X13359467Y-11904698D02*
X13368991Y-11923746D01*
X13368991Y-11923746D02*
X13368991Y-11980888D01*
X13368991Y-11980888D02*
X13359467Y-11999936D01*
X13359467Y-11999936D02*
X13349943Y-12009460D01*
X13349943Y-12009460D02*
X13330896Y-12018984D01*
X13330896Y-12018984D02*
X13292801Y-12018984D01*
X13292801Y-12018984D02*
X13273753Y-12009460D01*
X13454705Y-11999936D02*
X13464229Y-12009460D01*
X13464229Y-12009460D02*
X13454705Y-12018984D01*
X13454705Y-12018984D02*
X13445182Y-12009460D01*
X13445182Y-12009460D02*
X13454705Y-11999936D01*
X13454705Y-11999936D02*
X13454705Y-12018984D01*
X13454705Y-11895174D02*
X13464229Y-11904698D01*
X13464229Y-11904698D02*
X13454705Y-11914222D01*
X13454705Y-11914222D02*
X13445182Y-11904698D01*
X13445182Y-11904698D02*
X13454705Y-11895174D01*
X13454705Y-11895174D02*
X13454705Y-11914222D01*
M02*
