G04 #@! TF.GenerationSoftware,KiCad,Pcbnew,8.0.1*
G04 #@! TF.CreationDate,2025-01-27T18:08:07-06:00*
G04 #@! TF.ProjectId,level-shifter,6c657665-6c2d-4736-9869-667465722e6b,rev?*
G04 #@! TF.SameCoordinates,Original*
G04 #@! TF.FileFunction,Legend,Bot*
G04 #@! TF.FilePolarity,Positive*
%FSLAX46Y46*%
G04 Gerber Fmt 4.6, Leading zero omitted, Abs format (unit mm)*
G04 Created by KiCad (PCBNEW 8.0.1) date 2025-01-27 18:08:07*
%MOMM*%
%LPD*%
G01*
G04 APERTURE LIST*
%ADD10C,0.150000*%
%ADD11C,0.120000*%
%ADD12R,1.700000X1.700000*%
%ADD13O,1.700000X1.700000*%
%ADD14O,1.100000X1.700000*%
G04 APERTURE END LIST*
D10*
X155573333Y-88599819D02*
X155573333Y-89314104D01*
X155573333Y-89314104D02*
X155620952Y-89456961D01*
X155620952Y-89456961D02*
X155716190Y-89552200D01*
X155716190Y-89552200D02*
X155859047Y-89599819D01*
X155859047Y-89599819D02*
X155954285Y-89599819D01*
X154954285Y-89028390D02*
X155049523Y-88980771D01*
X155049523Y-88980771D02*
X155097142Y-88933152D01*
X155097142Y-88933152D02*
X155144761Y-88837914D01*
X155144761Y-88837914D02*
X155144761Y-88790295D01*
X155144761Y-88790295D02*
X155097142Y-88695057D01*
X155097142Y-88695057D02*
X155049523Y-88647438D01*
X155049523Y-88647438D02*
X154954285Y-88599819D01*
X154954285Y-88599819D02*
X154763809Y-88599819D01*
X154763809Y-88599819D02*
X154668571Y-88647438D01*
X154668571Y-88647438D02*
X154620952Y-88695057D01*
X154620952Y-88695057D02*
X154573333Y-88790295D01*
X154573333Y-88790295D02*
X154573333Y-88837914D01*
X154573333Y-88837914D02*
X154620952Y-88933152D01*
X154620952Y-88933152D02*
X154668571Y-88980771D01*
X154668571Y-88980771D02*
X154763809Y-89028390D01*
X154763809Y-89028390D02*
X154954285Y-89028390D01*
X154954285Y-89028390D02*
X155049523Y-89076009D01*
X155049523Y-89076009D02*
X155097142Y-89123628D01*
X155097142Y-89123628D02*
X155144761Y-89218866D01*
X155144761Y-89218866D02*
X155144761Y-89409342D01*
X155144761Y-89409342D02*
X155097142Y-89504580D01*
X155097142Y-89504580D02*
X155049523Y-89552200D01*
X155049523Y-89552200D02*
X154954285Y-89599819D01*
X154954285Y-89599819D02*
X154763809Y-89599819D01*
X154763809Y-89599819D02*
X154668571Y-89552200D01*
X154668571Y-89552200D02*
X154620952Y-89504580D01*
X154620952Y-89504580D02*
X154573333Y-89409342D01*
X154573333Y-89409342D02*
X154573333Y-89218866D01*
X154573333Y-89218866D02*
X154620952Y-89123628D01*
X154620952Y-89123628D02*
X154668571Y-89076009D01*
X154668571Y-89076009D02*
X154763809Y-89028390D01*
X155573333Y-63199819D02*
X155573333Y-63914104D01*
X155573333Y-63914104D02*
X155620952Y-64056961D01*
X155620952Y-64056961D02*
X155716190Y-64152200D01*
X155716190Y-64152200D02*
X155859047Y-64199819D01*
X155859047Y-64199819D02*
X155954285Y-64199819D01*
X155192380Y-63199819D02*
X154525714Y-63199819D01*
X154525714Y-63199819D02*
X154954285Y-64199819D01*
X140333333Y-88599819D02*
X140333333Y-89314104D01*
X140333333Y-89314104D02*
X140380952Y-89456961D01*
X140380952Y-89456961D02*
X140476190Y-89552200D01*
X140476190Y-89552200D02*
X140619047Y-89599819D01*
X140619047Y-89599819D02*
X140714285Y-89599819D01*
X139428571Y-88599819D02*
X139619047Y-88599819D01*
X139619047Y-88599819D02*
X139714285Y-88647438D01*
X139714285Y-88647438D02*
X139761904Y-88695057D01*
X139761904Y-88695057D02*
X139857142Y-88837914D01*
X139857142Y-88837914D02*
X139904761Y-89028390D01*
X139904761Y-89028390D02*
X139904761Y-89409342D01*
X139904761Y-89409342D02*
X139857142Y-89504580D01*
X139857142Y-89504580D02*
X139809523Y-89552200D01*
X139809523Y-89552200D02*
X139714285Y-89599819D01*
X139714285Y-89599819D02*
X139523809Y-89599819D01*
X139523809Y-89599819D02*
X139428571Y-89552200D01*
X139428571Y-89552200D02*
X139380952Y-89504580D01*
X139380952Y-89504580D02*
X139333333Y-89409342D01*
X139333333Y-89409342D02*
X139333333Y-89171247D01*
X139333333Y-89171247D02*
X139380952Y-89076009D01*
X139380952Y-89076009D02*
X139428571Y-89028390D01*
X139428571Y-89028390D02*
X139523809Y-88980771D01*
X139523809Y-88980771D02*
X139714285Y-88980771D01*
X139714285Y-88980771D02*
X139809523Y-89028390D01*
X139809523Y-89028390D02*
X139857142Y-89076009D01*
X139857142Y-89076009D02*
X139904761Y-89171247D01*
X140333333Y-63199819D02*
X140333333Y-63914104D01*
X140333333Y-63914104D02*
X140380952Y-64056961D01*
X140380952Y-64056961D02*
X140476190Y-64152200D01*
X140476190Y-64152200D02*
X140619047Y-64199819D01*
X140619047Y-64199819D02*
X140714285Y-64199819D01*
X139380952Y-63199819D02*
X139857142Y-63199819D01*
X139857142Y-63199819D02*
X139904761Y-63676009D01*
X139904761Y-63676009D02*
X139857142Y-63628390D01*
X139857142Y-63628390D02*
X139761904Y-63580771D01*
X139761904Y-63580771D02*
X139523809Y-63580771D01*
X139523809Y-63580771D02*
X139428571Y-63628390D01*
X139428571Y-63628390D02*
X139380952Y-63676009D01*
X139380952Y-63676009D02*
X139333333Y-63771247D01*
X139333333Y-63771247D02*
X139333333Y-64009342D01*
X139333333Y-64009342D02*
X139380952Y-64104580D01*
X139380952Y-64104580D02*
X139428571Y-64152200D01*
X139428571Y-64152200D02*
X139523809Y-64199819D01*
X139523809Y-64199819D02*
X139761904Y-64199819D01*
X139761904Y-64199819D02*
X139857142Y-64152200D01*
X139857142Y-64152200D02*
X139904761Y-64104580D01*
D11*
X153910000Y-92745000D02*
X156570000Y-92745000D01*
X153910000Y-115665000D02*
X153910000Y-92745000D01*
X153910000Y-115665000D02*
X156570000Y-115665000D01*
X155240000Y-90145000D02*
X156570000Y-90145000D01*
X156570000Y-90145000D02*
X156570000Y-91475000D01*
X156570000Y-115665000D02*
X156570000Y-92745000D01*
X153910000Y-67345000D02*
X156570000Y-67345000D01*
X153910000Y-90265000D02*
X153910000Y-67345000D01*
X153910000Y-90265000D02*
X156570000Y-90265000D01*
X155240000Y-64745000D02*
X156570000Y-64745000D01*
X156570000Y-64745000D02*
X156570000Y-66075000D01*
X156570000Y-90265000D02*
X156570000Y-67345000D01*
X138670000Y-92745000D02*
X141330000Y-92745000D01*
X138670000Y-115665000D02*
X138670000Y-92745000D01*
X138670000Y-115665000D02*
X141330000Y-115665000D01*
X140000000Y-90145000D02*
X141330000Y-90145000D01*
X141330000Y-90145000D02*
X141330000Y-91475000D01*
X141330000Y-115665000D02*
X141330000Y-92745000D01*
X138670000Y-67345000D02*
X141330000Y-67345000D01*
X138670000Y-90265000D02*
X138670000Y-67345000D01*
X138670000Y-90265000D02*
X141330000Y-90265000D01*
X140000000Y-64745000D02*
X141330000Y-64745000D01*
X141330000Y-64745000D02*
X141330000Y-66075000D01*
X141330000Y-90265000D02*
X141330000Y-67345000D01*
%LPC*%
D12*
X175400000Y-91475000D03*
D13*
X175400000Y-94015000D03*
X175400000Y-96555000D03*
X175400000Y-99095000D03*
X175400000Y-101635000D03*
X175400000Y-104175000D03*
X175400000Y-106715000D03*
X175400000Y-109255000D03*
X175400000Y-111795000D03*
X175400000Y-114335000D03*
D12*
X175400000Y-66075000D03*
D13*
X175400000Y-68615000D03*
X175400000Y-71155000D03*
X175400000Y-73695000D03*
X175400000Y-76235000D03*
X175400000Y-78775000D03*
X175400000Y-81315000D03*
X175400000Y-83855000D03*
X175400000Y-86395000D03*
X175400000Y-88935000D03*
D12*
X120700000Y-66075000D03*
D13*
X120700000Y-68615000D03*
X120700000Y-71155000D03*
X120700000Y-73695000D03*
X120700000Y-76235000D03*
X120700000Y-78775000D03*
X120700000Y-81315000D03*
X120700000Y-83855000D03*
X120700000Y-86395000D03*
X120700000Y-88935000D03*
D14*
X152170000Y-52700000D03*
X152170000Y-48900000D03*
X143530000Y-52700000D03*
X143530000Y-48900000D03*
D12*
X120700000Y-91475000D03*
D13*
X120700000Y-94015000D03*
X120700000Y-96555000D03*
X120700000Y-99095000D03*
X120700000Y-101635000D03*
X120700000Y-104175000D03*
X120700000Y-106715000D03*
X120700000Y-109255000D03*
X120700000Y-111795000D03*
X120700000Y-114335000D03*
D12*
X155240000Y-91475000D03*
D13*
X155240000Y-94015000D03*
X155240000Y-96555000D03*
X155240000Y-99095000D03*
X155240000Y-101635000D03*
X155240000Y-104175000D03*
X155240000Y-106715000D03*
X155240000Y-109255000D03*
X155240000Y-111795000D03*
X155240000Y-114335000D03*
D12*
X155240000Y-66075000D03*
D13*
X155240000Y-68615000D03*
X155240000Y-71155000D03*
X155240000Y-73695000D03*
X155240000Y-76235000D03*
X155240000Y-78775000D03*
X155240000Y-81315000D03*
X155240000Y-83855000D03*
X155240000Y-86395000D03*
X155240000Y-88935000D03*
D12*
X140000000Y-91475000D03*
D13*
X140000000Y-94015000D03*
X140000000Y-96555000D03*
X140000000Y-99095000D03*
X140000000Y-101635000D03*
X140000000Y-104175000D03*
X140000000Y-106715000D03*
X140000000Y-109255000D03*
X140000000Y-111795000D03*
X140000000Y-114335000D03*
D12*
X140000000Y-66075000D03*
D13*
X140000000Y-68615000D03*
X140000000Y-71155000D03*
X140000000Y-73695000D03*
X140000000Y-76235000D03*
X140000000Y-78775000D03*
X140000000Y-81315000D03*
X140000000Y-83855000D03*
X140000000Y-86395000D03*
X140000000Y-88935000D03*
%LPD*%
M02*
