G04 #@! TF.GenerationSoftware,KiCad,Pcbnew,8.0.1*
G04 #@! TF.CreationDate,2025-01-27T18:08:07-06:00*
G04 #@! TF.ProjectId,level-shifter,6c657665-6c2d-4736-9869-667465722e6b,rev?*
G04 #@! TF.SameCoordinates,Original*
G04 #@! TF.FileFunction,Soldermask,Top*
G04 #@! TF.FilePolarity,Negative*
%FSLAX46Y46*%
G04 Gerber Fmt 4.6, Leading zero omitted, Abs format (unit mm)*
G04 Created by KiCad (PCBNEW 8.0.1) date 2025-01-27 18:08:07*
%MOMM*%
%LPD*%
G01*
G04 APERTURE LIST*
G04 Aperture macros list*
%AMRoundRect*
0 Rectangle with rounded corners*
0 $1 Rounding radius*
0 $2 $3 $4 $5 $6 $7 $8 $9 X,Y pos of 4 corners*
0 Add a 4 corners polygon primitive as box body*
4,1,4,$2,$3,$4,$5,$6,$7,$8,$9,$2,$3,0*
0 Add four circle primitives for the rounded corners*
1,1,$1+$1,$2,$3*
1,1,$1+$1,$4,$5*
1,1,$1+$1,$6,$7*
1,1,$1+$1,$8,$9*
0 Add four rect primitives between the rounded corners*
20,1,$1+$1,$2,$3,$4,$5,0*
20,1,$1+$1,$4,$5,$6,$7,0*
20,1,$1+$1,$6,$7,$8,$9,0*
20,1,$1+$1,$8,$9,$2,$3,0*%
G04 Aperture macros list end*
%ADD10R,1.700000X1.700000*%
%ADD11O,1.700000X1.700000*%
%ADD12RoundRect,0.250000X0.450000X-0.350000X0.450000X0.350000X-0.450000X0.350000X-0.450000X-0.350000X0*%
%ADD13R,0.500000X0.200000*%
%ADD14R,0.199200X0.303200*%
%ADD15R,0.252400X0.500000*%
%ADD16RoundRect,0.250000X-0.350000X-0.450000X0.350000X-0.450000X0.350000X0.450000X-0.350000X0.450000X0*%
%ADD17RoundRect,0.250000X0.475000X-0.337500X0.475000X0.337500X-0.475000X0.337500X-0.475000X-0.337500X0*%
%ADD18RoundRect,0.150000X0.512500X0.150000X-0.512500X0.150000X-0.512500X-0.150000X0.512500X-0.150000X0*%
%ADD19RoundRect,0.250000X-0.450000X0.350000X-0.450000X-0.350000X0.450000X-0.350000X0.450000X0.350000X0*%
%ADD20RoundRect,0.175000X0.175000X0.425000X-0.175000X0.425000X-0.175000X-0.425000X0.175000X-0.425000X0*%
%ADD21RoundRect,0.190000X-0.190000X-0.410000X0.190000X-0.410000X0.190000X0.410000X-0.190000X0.410000X0*%
%ADD22RoundRect,0.200000X-0.200000X-0.400000X0.200000X-0.400000X0.200000X0.400000X-0.200000X0.400000X0*%
%ADD23RoundRect,0.175000X-0.175000X-0.425000X0.175000X-0.425000X0.175000X0.425000X-0.175000X0.425000X0*%
%ADD24RoundRect,0.190000X0.190000X0.410000X-0.190000X0.410000X-0.190000X-0.410000X0.190000X-0.410000X0*%
%ADD25RoundRect,0.200000X0.200000X0.400000X-0.200000X0.400000X-0.200000X-0.400000X0.200000X-0.400000X0*%
%ADD26O,1.100000X1.700000*%
%ADD27RoundRect,0.250000X-0.337500X-0.475000X0.337500X-0.475000X0.337500X0.475000X-0.337500X0.475000X0*%
G04 APERTURE END LIST*
D10*
X175400000Y-91475000D03*
D11*
X175400000Y-94015000D03*
X175400000Y-96555000D03*
X175400000Y-99095000D03*
X175400000Y-101635000D03*
X175400000Y-104175000D03*
X175400000Y-106715000D03*
X175400000Y-109255000D03*
X175400000Y-111795000D03*
X175400000Y-114335000D03*
D12*
X130100000Y-85100000D03*
X130100000Y-83100000D03*
D13*
X128932800Y-99480800D03*
D14*
X129083200Y-99429200D03*
D13*
X128932800Y-99887200D03*
X128932800Y-100293600D03*
X128932800Y-100700000D03*
X128932800Y-101106400D03*
D15*
X129566600Y-101055600D03*
D13*
X130150000Y-101106400D03*
X130150000Y-100700000D03*
X130150000Y-100293600D03*
X130150000Y-99887200D03*
X130150000Y-99480800D03*
D15*
X129565800Y-99506200D03*
D16*
X163750000Y-85300000D03*
X165750000Y-85300000D03*
D10*
X175400000Y-66075000D03*
D11*
X175400000Y-68615000D03*
X175400000Y-71155000D03*
X175400000Y-73695000D03*
X175400000Y-76235000D03*
X175400000Y-78775000D03*
X175400000Y-81315000D03*
X175400000Y-83855000D03*
X175400000Y-86395000D03*
X175400000Y-88935000D03*
D13*
X164767000Y-68724600D03*
D14*
X164917400Y-68673000D03*
D13*
X164767000Y-69131000D03*
X164767000Y-69537400D03*
X164767000Y-69943800D03*
X164767000Y-70350200D03*
D15*
X165400800Y-70299400D03*
D13*
X165984200Y-70350200D03*
X165984200Y-69943800D03*
X165984200Y-69537400D03*
X165984200Y-69131000D03*
X165984200Y-68724600D03*
D15*
X165400000Y-68750000D03*
D16*
X163600000Y-104400000D03*
X165600000Y-104400000D03*
D17*
X143900000Y-61437500D03*
X143900000Y-59362500D03*
D18*
X149037500Y-61462500D03*
X149037500Y-60512500D03*
X149037500Y-59562500D03*
X146762500Y-59562500D03*
X146762500Y-61462500D03*
D10*
X120700000Y-66075000D03*
D11*
X120700000Y-68615000D03*
X120700000Y-71155000D03*
X120700000Y-73695000D03*
X120700000Y-76235000D03*
X120700000Y-78775000D03*
X120700000Y-81315000D03*
X120700000Y-83855000D03*
X120700000Y-86395000D03*
X120700000Y-88935000D03*
D13*
X164413550Y-99461800D03*
D14*
X164563950Y-99410200D03*
D13*
X164413550Y-99868200D03*
X164413550Y-100274600D03*
X164413550Y-100681000D03*
X164413550Y-101087400D03*
D15*
X165047350Y-101036600D03*
D13*
X165630750Y-101087400D03*
X165630750Y-100681000D03*
X165630750Y-100274600D03*
X165630750Y-99868200D03*
X165630750Y-99461800D03*
D15*
X165046550Y-99487200D03*
D16*
X163950000Y-74550000D03*
X165950000Y-74550000D03*
D19*
X149000000Y-54950000D03*
X149000000Y-56950000D03*
D13*
X164513550Y-79961800D03*
D14*
X164663950Y-79910200D03*
D13*
X164513550Y-80368200D03*
X164513550Y-80774600D03*
X164513550Y-81181000D03*
X164513550Y-81587400D03*
D15*
X165147350Y-81536600D03*
D13*
X165730750Y-81587400D03*
X165730750Y-81181000D03*
X165730750Y-80774600D03*
X165730750Y-80368200D03*
X165730750Y-79961800D03*
D15*
X165146550Y-79987200D03*
D13*
X164463550Y-89811800D03*
D14*
X164613950Y-89760200D03*
D13*
X164463550Y-90218200D03*
X164463550Y-90624600D03*
X164463550Y-91031000D03*
X164463550Y-91437400D03*
D15*
X165097350Y-91386600D03*
D13*
X165680750Y-91437400D03*
X165680750Y-91031000D03*
X165680750Y-90624600D03*
X165680750Y-90218200D03*
X165680750Y-89811800D03*
D15*
X165096550Y-89837200D03*
D12*
X130100000Y-105200000D03*
X130100000Y-103200000D03*
D13*
X128913550Y-89161800D03*
D14*
X129063950Y-89110200D03*
D13*
X128913550Y-89568200D03*
X128913550Y-89974600D03*
X128913550Y-90381000D03*
X128913550Y-90787400D03*
D15*
X129547350Y-90736600D03*
D13*
X130130750Y-90787400D03*
X130130750Y-90381000D03*
X130130750Y-89974600D03*
X130130750Y-89568200D03*
X130130750Y-89161800D03*
D15*
X129546550Y-89187200D03*
D13*
X128863550Y-109511800D03*
D14*
X129013950Y-109460200D03*
D13*
X128863550Y-109918200D03*
X128863550Y-110324600D03*
X128863550Y-110731000D03*
X128863550Y-111137400D03*
D15*
X129497350Y-111086600D03*
D13*
X130080750Y-111137400D03*
X130080750Y-110731000D03*
X130080750Y-110324600D03*
X130080750Y-109918200D03*
X130080750Y-109511800D03*
D15*
X129496550Y-109537200D03*
D20*
X148350000Y-52780000D03*
D21*
X146330000Y-52780000D03*
D22*
X145100000Y-52780000D03*
D23*
X147350000Y-52780000D03*
D24*
X149370000Y-52780000D03*
D25*
X150600000Y-52780000D03*
D26*
X152170000Y-52700000D03*
X152170000Y-48900000D03*
X143530000Y-52700000D03*
X143530000Y-48900000D03*
D12*
X130050000Y-114950000D03*
X130050000Y-112950000D03*
D27*
X151912500Y-56900000D03*
X153987500Y-56900000D03*
D12*
X130100000Y-94900000D03*
X130100000Y-92900000D03*
D13*
X164289200Y-110115600D03*
D14*
X164439600Y-110064000D03*
D13*
X164289200Y-110522000D03*
X164289200Y-110928400D03*
X164289200Y-111334800D03*
X164289200Y-111741200D03*
D15*
X164923000Y-111690400D03*
D13*
X165506400Y-111741200D03*
X165506400Y-111334800D03*
X165506400Y-110928400D03*
X165506400Y-110522000D03*
X165506400Y-110115600D03*
D15*
X164922200Y-110141000D03*
D13*
X128963550Y-68911800D03*
D14*
X129113950Y-68860200D03*
D13*
X128963550Y-69318200D03*
X128963550Y-69724600D03*
X128963550Y-70131000D03*
X128963550Y-70537400D03*
D15*
X129597350Y-70486600D03*
D13*
X130180750Y-70537400D03*
X130180750Y-70131000D03*
X130180750Y-69724600D03*
X130180750Y-69318200D03*
X130180750Y-68911800D03*
D15*
X129596550Y-68937200D03*
D13*
X128863550Y-79511800D03*
D14*
X129013950Y-79460200D03*
D13*
X128863550Y-79918200D03*
X128863550Y-80324600D03*
X128863550Y-80731000D03*
X128863550Y-81137400D03*
D15*
X129497350Y-81086600D03*
D13*
X130080750Y-81137400D03*
X130080750Y-80731000D03*
X130080750Y-80324600D03*
X130080750Y-79918200D03*
X130080750Y-79511800D03*
D15*
X129496550Y-79537200D03*
D12*
X130150000Y-74600000D03*
X130150000Y-72600000D03*
D16*
X163500000Y-114500000D03*
X165500000Y-114500000D03*
D10*
X120700000Y-91475000D03*
D11*
X120700000Y-94015000D03*
X120700000Y-96555000D03*
X120700000Y-99095000D03*
X120700000Y-101635000D03*
X120700000Y-104175000D03*
X120700000Y-106715000D03*
X120700000Y-109255000D03*
X120700000Y-111795000D03*
X120700000Y-114335000D03*
D19*
X146800000Y-54950000D03*
X146800000Y-56950000D03*
D16*
X163650000Y-95050000D03*
X165650000Y-95050000D03*
D10*
X155240000Y-91475000D03*
D11*
X155240000Y-94015000D03*
X155240000Y-96555000D03*
X155240000Y-99095000D03*
X155240000Y-101635000D03*
X155240000Y-104175000D03*
X155240000Y-106715000D03*
X155240000Y-109255000D03*
X155240000Y-111795000D03*
X155240000Y-114335000D03*
D10*
X155240000Y-66075000D03*
D11*
X155240000Y-68615000D03*
X155240000Y-71155000D03*
X155240000Y-73695000D03*
X155240000Y-76235000D03*
X155240000Y-78775000D03*
X155240000Y-81315000D03*
X155240000Y-83855000D03*
X155240000Y-86395000D03*
X155240000Y-88935000D03*
D10*
X140000000Y-91475000D03*
D11*
X140000000Y-94015000D03*
X140000000Y-96555000D03*
X140000000Y-99095000D03*
X140000000Y-101635000D03*
X140000000Y-104175000D03*
X140000000Y-106715000D03*
X140000000Y-109255000D03*
X140000000Y-111795000D03*
X140000000Y-114335000D03*
D10*
X140000000Y-66075000D03*
D11*
X140000000Y-68615000D03*
X140000000Y-71155000D03*
X140000000Y-73695000D03*
X140000000Y-76235000D03*
X140000000Y-78775000D03*
X140000000Y-81315000D03*
X140000000Y-83855000D03*
X140000000Y-86395000D03*
X140000000Y-88935000D03*
M02*
