G04 #@! TF.GenerationSoftware,KiCad,Pcbnew,8.0.1*
G04 #@! TF.CreationDate,2025-01-27T18:08:07-06:00*
G04 #@! TF.ProjectId,level-shifter,6c657665-6c2d-4736-9869-667465722e6b,rev?*
G04 #@! TF.SameCoordinates,Original*
G04 #@! TF.FileFunction,AssemblyDrawing,Top*
%FSLAX46Y46*%
G04 Gerber Fmt 4.6, Leading zero omitted, Abs format (unit mm)*
G04 Created by KiCad (PCBNEW 8.0.1) date 2025-01-27 18:08:07*
%MOMM*%
%LPD*%
G01*
G04 APERTURE LIST*
%ADD10C,0.150000*%
%ADD11C,0.080000*%
%ADD12C,0.060000*%
%ADD13C,0.100000*%
G04 APERTURE END LIST*
D10*
X174854819Y-103238333D02*
X175569104Y-103238333D01*
X175569104Y-103238333D02*
X175711961Y-103285952D01*
X175711961Y-103285952D02*
X175807200Y-103381190D01*
X175807200Y-103381190D02*
X175854819Y-103524047D01*
X175854819Y-103524047D02*
X175854819Y-103619285D01*
X174854819Y-102857380D02*
X174854819Y-102238333D01*
X174854819Y-102238333D02*
X175235771Y-102571666D01*
X175235771Y-102571666D02*
X175235771Y-102428809D01*
X175235771Y-102428809D02*
X175283390Y-102333571D01*
X175283390Y-102333571D02*
X175331009Y-102285952D01*
X175331009Y-102285952D02*
X175426247Y-102238333D01*
X175426247Y-102238333D02*
X175664342Y-102238333D01*
X175664342Y-102238333D02*
X175759580Y-102285952D01*
X175759580Y-102285952D02*
X175807200Y-102333571D01*
X175807200Y-102333571D02*
X175854819Y-102428809D01*
X175854819Y-102428809D02*
X175854819Y-102714523D01*
X175854819Y-102714523D02*
X175807200Y-102809761D01*
X175807200Y-102809761D02*
X175759580Y-102857380D01*
D11*
X130327149Y-84183333D02*
X130089054Y-84349999D01*
X130327149Y-84469047D02*
X129827149Y-84469047D01*
X129827149Y-84469047D02*
X129827149Y-84278571D01*
X129827149Y-84278571D02*
X129850959Y-84230952D01*
X129850959Y-84230952D02*
X129874768Y-84207142D01*
X129874768Y-84207142D02*
X129922387Y-84183333D01*
X129922387Y-84183333D02*
X129993816Y-84183333D01*
X129993816Y-84183333D02*
X130041435Y-84207142D01*
X130041435Y-84207142D02*
X130065244Y-84230952D01*
X130065244Y-84230952D02*
X130089054Y-84278571D01*
X130089054Y-84278571D02*
X130089054Y-84469047D01*
X129874768Y-83992856D02*
X129850959Y-83969047D01*
X129850959Y-83969047D02*
X129827149Y-83921428D01*
X129827149Y-83921428D02*
X129827149Y-83802380D01*
X129827149Y-83802380D02*
X129850959Y-83754761D01*
X129850959Y-83754761D02*
X129874768Y-83730952D01*
X129874768Y-83730952D02*
X129922387Y-83707142D01*
X129922387Y-83707142D02*
X129970006Y-83707142D01*
X129970006Y-83707142D02*
X130041435Y-83730952D01*
X130041435Y-83730952D02*
X130327149Y-84016666D01*
X130327149Y-84016666D02*
X130327149Y-83707142D01*
D10*
X128981695Y-103620019D02*
X128981695Y-104429542D01*
X128981695Y-104429542D02*
X129029314Y-104524780D01*
X129029314Y-104524780D02*
X129076933Y-104572400D01*
X129076933Y-104572400D02*
X129172171Y-104620019D01*
X129172171Y-104620019D02*
X129362647Y-104620019D01*
X129362647Y-104620019D02*
X129457885Y-104572400D01*
X129457885Y-104572400D02*
X129505504Y-104524780D01*
X129505504Y-104524780D02*
X129553123Y-104429542D01*
X129553123Y-104429542D02*
X129553123Y-103620019D01*
X130457885Y-103953352D02*
X130457885Y-104620019D01*
X130219790Y-103572400D02*
X129981695Y-104286685D01*
X129981695Y-104286685D02*
X130600742Y-104286685D01*
D11*
X164666666Y-85527149D02*
X164500000Y-85289054D01*
X164380952Y-85527149D02*
X164380952Y-85027149D01*
X164380952Y-85027149D02*
X164571428Y-85027149D01*
X164571428Y-85027149D02*
X164619047Y-85050959D01*
X164619047Y-85050959D02*
X164642857Y-85074768D01*
X164642857Y-85074768D02*
X164666666Y-85122387D01*
X164666666Y-85122387D02*
X164666666Y-85193816D01*
X164666666Y-85193816D02*
X164642857Y-85241435D01*
X164642857Y-85241435D02*
X164619047Y-85265244D01*
X164619047Y-85265244D02*
X164571428Y-85289054D01*
X164571428Y-85289054D02*
X164380952Y-85289054D01*
X164904762Y-85527149D02*
X165000000Y-85527149D01*
X165000000Y-85527149D02*
X165047619Y-85503340D01*
X165047619Y-85503340D02*
X165071428Y-85479530D01*
X165071428Y-85479530D02*
X165119047Y-85408101D01*
X165119047Y-85408101D02*
X165142857Y-85312863D01*
X165142857Y-85312863D02*
X165142857Y-85122387D01*
X165142857Y-85122387D02*
X165119047Y-85074768D01*
X165119047Y-85074768D02*
X165095238Y-85050959D01*
X165095238Y-85050959D02*
X165047619Y-85027149D01*
X165047619Y-85027149D02*
X164952381Y-85027149D01*
X164952381Y-85027149D02*
X164904762Y-85050959D01*
X164904762Y-85050959D02*
X164880952Y-85074768D01*
X164880952Y-85074768D02*
X164857143Y-85122387D01*
X164857143Y-85122387D02*
X164857143Y-85241435D01*
X164857143Y-85241435D02*
X164880952Y-85289054D01*
X164880952Y-85289054D02*
X164904762Y-85312863D01*
X164904762Y-85312863D02*
X164952381Y-85336673D01*
X164952381Y-85336673D02*
X165047619Y-85336673D01*
X165047619Y-85336673D02*
X165095238Y-85312863D01*
X165095238Y-85312863D02*
X165119047Y-85289054D01*
X165119047Y-85289054D02*
X165142857Y-85241435D01*
D10*
X174854819Y-77838333D02*
X175569104Y-77838333D01*
X175569104Y-77838333D02*
X175711961Y-77885952D01*
X175711961Y-77885952D02*
X175807200Y-77981190D01*
X175807200Y-77981190D02*
X175854819Y-78124047D01*
X175854819Y-78124047D02*
X175854819Y-78219285D01*
X175188152Y-76933571D02*
X175854819Y-76933571D01*
X174807200Y-77171666D02*
X175521485Y-77409761D01*
X175521485Y-77409761D02*
X175521485Y-76790714D01*
X164815895Y-72863819D02*
X164815895Y-73673342D01*
X164815895Y-73673342D02*
X164863514Y-73768580D01*
X164863514Y-73768580D02*
X164911133Y-73816200D01*
X164911133Y-73816200D02*
X165006371Y-73863819D01*
X165006371Y-73863819D02*
X165196847Y-73863819D01*
X165196847Y-73863819D02*
X165292085Y-73816200D01*
X165292085Y-73816200D02*
X165339704Y-73768580D01*
X165339704Y-73768580D02*
X165387323Y-73673342D01*
X165387323Y-73673342D02*
X165387323Y-72863819D01*
X166292085Y-72863819D02*
X166101609Y-72863819D01*
X166101609Y-72863819D02*
X166006371Y-72911438D01*
X166006371Y-72911438D02*
X165958752Y-72959057D01*
X165958752Y-72959057D02*
X165863514Y-73101914D01*
X165863514Y-73101914D02*
X165815895Y-73292390D01*
X165815895Y-73292390D02*
X165815895Y-73673342D01*
X165815895Y-73673342D02*
X165863514Y-73768580D01*
X165863514Y-73768580D02*
X165911133Y-73816200D01*
X165911133Y-73816200D02*
X166006371Y-73863819D01*
X166006371Y-73863819D02*
X166196847Y-73863819D01*
X166196847Y-73863819D02*
X166292085Y-73816200D01*
X166292085Y-73816200D02*
X166339704Y-73768580D01*
X166339704Y-73768580D02*
X166387323Y-73673342D01*
X166387323Y-73673342D02*
X166387323Y-73435247D01*
X166387323Y-73435247D02*
X166339704Y-73340009D01*
X166339704Y-73340009D02*
X166292085Y-73292390D01*
X166292085Y-73292390D02*
X166196847Y-73244771D01*
X166196847Y-73244771D02*
X166006371Y-73244771D01*
X166006371Y-73244771D02*
X165911133Y-73292390D01*
X165911133Y-73292390D02*
X165863514Y-73340009D01*
X165863514Y-73340009D02*
X165815895Y-73435247D01*
D11*
X164516666Y-104627149D02*
X164350000Y-104389054D01*
X164230952Y-104627149D02*
X164230952Y-104127149D01*
X164230952Y-104127149D02*
X164421428Y-104127149D01*
X164421428Y-104127149D02*
X164469047Y-104150959D01*
X164469047Y-104150959D02*
X164492857Y-104174768D01*
X164492857Y-104174768D02*
X164516666Y-104222387D01*
X164516666Y-104222387D02*
X164516666Y-104293816D01*
X164516666Y-104293816D02*
X164492857Y-104341435D01*
X164492857Y-104341435D02*
X164469047Y-104365244D01*
X164469047Y-104365244D02*
X164421428Y-104389054D01*
X164421428Y-104389054D02*
X164230952Y-104389054D01*
X164683333Y-104127149D02*
X165016666Y-104127149D01*
X165016666Y-104127149D02*
X164802381Y-104627149D01*
X144079530Y-60483333D02*
X144103340Y-60507142D01*
X144103340Y-60507142D02*
X144127149Y-60578571D01*
X144127149Y-60578571D02*
X144127149Y-60626190D01*
X144127149Y-60626190D02*
X144103340Y-60697618D01*
X144103340Y-60697618D02*
X144055720Y-60745237D01*
X144055720Y-60745237D02*
X144008101Y-60769047D01*
X144008101Y-60769047D02*
X143912863Y-60792856D01*
X143912863Y-60792856D02*
X143841435Y-60792856D01*
X143841435Y-60792856D02*
X143746197Y-60769047D01*
X143746197Y-60769047D02*
X143698578Y-60745237D01*
X143698578Y-60745237D02*
X143650959Y-60697618D01*
X143650959Y-60697618D02*
X143627149Y-60626190D01*
X143627149Y-60626190D02*
X143627149Y-60578571D01*
X143627149Y-60578571D02*
X143650959Y-60507142D01*
X143650959Y-60507142D02*
X143674768Y-60483333D01*
X143674768Y-60292856D02*
X143650959Y-60269047D01*
X143650959Y-60269047D02*
X143627149Y-60221428D01*
X143627149Y-60221428D02*
X143627149Y-60102380D01*
X143627149Y-60102380D02*
X143650959Y-60054761D01*
X143650959Y-60054761D02*
X143674768Y-60030952D01*
X143674768Y-60030952D02*
X143722387Y-60007142D01*
X143722387Y-60007142D02*
X143770006Y-60007142D01*
X143770006Y-60007142D02*
X143841435Y-60030952D01*
X143841435Y-60030952D02*
X144127149Y-60316666D01*
X144127149Y-60316666D02*
X144127149Y-60007142D01*
D12*
X147404762Y-60294427D02*
X147404762Y-60618237D01*
X147404762Y-60618237D02*
X147423809Y-60656332D01*
X147423809Y-60656332D02*
X147442857Y-60675380D01*
X147442857Y-60675380D02*
X147480952Y-60694427D01*
X147480952Y-60694427D02*
X147557143Y-60694427D01*
X147557143Y-60694427D02*
X147595238Y-60675380D01*
X147595238Y-60675380D02*
X147614285Y-60656332D01*
X147614285Y-60656332D02*
X147633333Y-60618237D01*
X147633333Y-60618237D02*
X147633333Y-60294427D01*
X148033333Y-60694427D02*
X147804762Y-60694427D01*
X147919048Y-60694427D02*
X147919048Y-60294427D01*
X147919048Y-60294427D02*
X147880952Y-60351570D01*
X147880952Y-60351570D02*
X147842857Y-60389665D01*
X147842857Y-60389665D02*
X147804762Y-60408713D01*
X148414285Y-60694427D02*
X148185714Y-60694427D01*
X148300000Y-60694427D02*
X148300000Y-60294427D01*
X148300000Y-60294427D02*
X148261904Y-60351570D01*
X148261904Y-60351570D02*
X148223809Y-60389665D01*
X148223809Y-60389665D02*
X148185714Y-60408713D01*
D10*
X120154819Y-77838333D02*
X120869104Y-77838333D01*
X120869104Y-77838333D02*
X121011961Y-77885952D01*
X121011961Y-77885952D02*
X121107200Y-77981190D01*
X121107200Y-77981190D02*
X121154819Y-78124047D01*
X121154819Y-78124047D02*
X121154819Y-78219285D01*
X121154819Y-76838333D02*
X121154819Y-77409761D01*
X121154819Y-77124047D02*
X120154819Y-77124047D01*
X120154819Y-77124047D02*
X120297676Y-77219285D01*
X120297676Y-77219285D02*
X120392914Y-77314523D01*
X120392914Y-77314523D02*
X120440533Y-77409761D01*
X164462445Y-103601019D02*
X164462445Y-104410542D01*
X164462445Y-104410542D02*
X164510064Y-104505780D01*
X164510064Y-104505780D02*
X164557683Y-104553400D01*
X164557683Y-104553400D02*
X164652921Y-104601019D01*
X164652921Y-104601019D02*
X164843397Y-104601019D01*
X164843397Y-104601019D02*
X164938635Y-104553400D01*
X164938635Y-104553400D02*
X164986254Y-104505780D01*
X164986254Y-104505780D02*
X165033873Y-104410542D01*
X165033873Y-104410542D02*
X165033873Y-103601019D01*
X165557683Y-104601019D02*
X165748159Y-104601019D01*
X165748159Y-104601019D02*
X165843397Y-104553400D01*
X165843397Y-104553400D02*
X165891016Y-104505780D01*
X165891016Y-104505780D02*
X165986254Y-104362923D01*
X165986254Y-104362923D02*
X166033873Y-104172447D01*
X166033873Y-104172447D02*
X166033873Y-103791495D01*
X166033873Y-103791495D02*
X165986254Y-103696257D01*
X165986254Y-103696257D02*
X165938635Y-103648638D01*
X165938635Y-103648638D02*
X165843397Y-103601019D01*
X165843397Y-103601019D02*
X165652921Y-103601019D01*
X165652921Y-103601019D02*
X165557683Y-103648638D01*
X165557683Y-103648638D02*
X165510064Y-103696257D01*
X165510064Y-103696257D02*
X165462445Y-103791495D01*
X165462445Y-103791495D02*
X165462445Y-104029590D01*
X165462445Y-104029590D02*
X165510064Y-104124828D01*
X165510064Y-104124828D02*
X165557683Y-104172447D01*
X165557683Y-104172447D02*
X165652921Y-104220066D01*
X165652921Y-104220066D02*
X165843397Y-104220066D01*
X165843397Y-104220066D02*
X165938635Y-104172447D01*
X165938635Y-104172447D02*
X165986254Y-104124828D01*
X165986254Y-104124828D02*
X166033873Y-104029590D01*
D11*
X164628571Y-74777149D02*
X164461905Y-74539054D01*
X164342857Y-74777149D02*
X164342857Y-74277149D01*
X164342857Y-74277149D02*
X164533333Y-74277149D01*
X164533333Y-74277149D02*
X164580952Y-74300959D01*
X164580952Y-74300959D02*
X164604762Y-74324768D01*
X164604762Y-74324768D02*
X164628571Y-74372387D01*
X164628571Y-74372387D02*
X164628571Y-74443816D01*
X164628571Y-74443816D02*
X164604762Y-74491435D01*
X164604762Y-74491435D02*
X164580952Y-74515244D01*
X164580952Y-74515244D02*
X164533333Y-74539054D01*
X164533333Y-74539054D02*
X164342857Y-74539054D01*
X165104762Y-74777149D02*
X164819048Y-74777149D01*
X164961905Y-74777149D02*
X164961905Y-74277149D01*
X164961905Y-74277149D02*
X164914286Y-74348578D01*
X164914286Y-74348578D02*
X164866667Y-74396197D01*
X164866667Y-74396197D02*
X164819048Y-74420006D01*
X165414285Y-74277149D02*
X165461904Y-74277149D01*
X165461904Y-74277149D02*
X165509523Y-74300959D01*
X165509523Y-74300959D02*
X165533333Y-74324768D01*
X165533333Y-74324768D02*
X165557142Y-74372387D01*
X165557142Y-74372387D02*
X165580952Y-74467625D01*
X165580952Y-74467625D02*
X165580952Y-74586673D01*
X165580952Y-74586673D02*
X165557142Y-74681911D01*
X165557142Y-74681911D02*
X165533333Y-74729530D01*
X165533333Y-74729530D02*
X165509523Y-74753340D01*
X165509523Y-74753340D02*
X165461904Y-74777149D01*
X165461904Y-74777149D02*
X165414285Y-74777149D01*
X165414285Y-74777149D02*
X165366666Y-74753340D01*
X165366666Y-74753340D02*
X165342857Y-74729530D01*
X165342857Y-74729530D02*
X165319047Y-74681911D01*
X165319047Y-74681911D02*
X165295238Y-74586673D01*
X165295238Y-74586673D02*
X165295238Y-74467625D01*
X165295238Y-74467625D02*
X165319047Y-74372387D01*
X165319047Y-74372387D02*
X165342857Y-74324768D01*
X165342857Y-74324768D02*
X165366666Y-74300959D01*
X165366666Y-74300959D02*
X165414285Y-74277149D01*
X149227149Y-56271428D02*
X148989054Y-56438094D01*
X149227149Y-56557142D02*
X148727149Y-56557142D01*
X148727149Y-56557142D02*
X148727149Y-56366666D01*
X148727149Y-56366666D02*
X148750959Y-56319047D01*
X148750959Y-56319047D02*
X148774768Y-56295237D01*
X148774768Y-56295237D02*
X148822387Y-56271428D01*
X148822387Y-56271428D02*
X148893816Y-56271428D01*
X148893816Y-56271428D02*
X148941435Y-56295237D01*
X148941435Y-56295237D02*
X148965244Y-56319047D01*
X148965244Y-56319047D02*
X148989054Y-56366666D01*
X148989054Y-56366666D02*
X148989054Y-56557142D01*
X149227149Y-55795237D02*
X149227149Y-56080951D01*
X149227149Y-55938094D02*
X148727149Y-55938094D01*
X148727149Y-55938094D02*
X148798578Y-55985713D01*
X148798578Y-55985713D02*
X148846197Y-56033332D01*
X148846197Y-56033332D02*
X148870006Y-56080951D01*
X149227149Y-55319047D02*
X149227149Y-55604761D01*
X149227149Y-55461904D02*
X148727149Y-55461904D01*
X148727149Y-55461904D02*
X148798578Y-55509523D01*
X148798578Y-55509523D02*
X148846197Y-55557142D01*
X148846197Y-55557142D02*
X148870006Y-55604761D01*
D10*
X164562445Y-84101019D02*
X164562445Y-84910542D01*
X164562445Y-84910542D02*
X164610064Y-85005780D01*
X164610064Y-85005780D02*
X164657683Y-85053400D01*
X164657683Y-85053400D02*
X164752921Y-85101019D01*
X164752921Y-85101019D02*
X164943397Y-85101019D01*
X164943397Y-85101019D02*
X165038635Y-85053400D01*
X165038635Y-85053400D02*
X165086254Y-85005780D01*
X165086254Y-85005780D02*
X165133873Y-84910542D01*
X165133873Y-84910542D02*
X165133873Y-84101019D01*
X165514826Y-84101019D02*
X166181492Y-84101019D01*
X166181492Y-84101019D02*
X165752921Y-85101019D01*
X164512445Y-93951019D02*
X164512445Y-94760542D01*
X164512445Y-94760542D02*
X164560064Y-94855780D01*
X164560064Y-94855780D02*
X164607683Y-94903400D01*
X164607683Y-94903400D02*
X164702921Y-94951019D01*
X164702921Y-94951019D02*
X164893397Y-94951019D01*
X164893397Y-94951019D02*
X164988635Y-94903400D01*
X164988635Y-94903400D02*
X165036254Y-94855780D01*
X165036254Y-94855780D02*
X165083873Y-94760542D01*
X165083873Y-94760542D02*
X165083873Y-93951019D01*
X165702921Y-94379590D02*
X165607683Y-94331971D01*
X165607683Y-94331971D02*
X165560064Y-94284352D01*
X165560064Y-94284352D02*
X165512445Y-94189114D01*
X165512445Y-94189114D02*
X165512445Y-94141495D01*
X165512445Y-94141495D02*
X165560064Y-94046257D01*
X165560064Y-94046257D02*
X165607683Y-93998638D01*
X165607683Y-93998638D02*
X165702921Y-93951019D01*
X165702921Y-93951019D02*
X165893397Y-93951019D01*
X165893397Y-93951019D02*
X165988635Y-93998638D01*
X165988635Y-93998638D02*
X166036254Y-94046257D01*
X166036254Y-94046257D02*
X166083873Y-94141495D01*
X166083873Y-94141495D02*
X166083873Y-94189114D01*
X166083873Y-94189114D02*
X166036254Y-94284352D01*
X166036254Y-94284352D02*
X165988635Y-94331971D01*
X165988635Y-94331971D02*
X165893397Y-94379590D01*
X165893397Y-94379590D02*
X165702921Y-94379590D01*
X165702921Y-94379590D02*
X165607683Y-94427209D01*
X165607683Y-94427209D02*
X165560064Y-94474828D01*
X165560064Y-94474828D02*
X165512445Y-94570066D01*
X165512445Y-94570066D02*
X165512445Y-94760542D01*
X165512445Y-94760542D02*
X165560064Y-94855780D01*
X165560064Y-94855780D02*
X165607683Y-94903400D01*
X165607683Y-94903400D02*
X165702921Y-94951019D01*
X165702921Y-94951019D02*
X165893397Y-94951019D01*
X165893397Y-94951019D02*
X165988635Y-94903400D01*
X165988635Y-94903400D02*
X166036254Y-94855780D01*
X166036254Y-94855780D02*
X166083873Y-94760542D01*
X166083873Y-94760542D02*
X166083873Y-94570066D01*
X166083873Y-94570066D02*
X166036254Y-94474828D01*
X166036254Y-94474828D02*
X165988635Y-94427209D01*
X165988635Y-94427209D02*
X165893397Y-94379590D01*
D11*
X130327149Y-104283333D02*
X130089054Y-104449999D01*
X130327149Y-104569047D02*
X129827149Y-104569047D01*
X129827149Y-104569047D02*
X129827149Y-104378571D01*
X129827149Y-104378571D02*
X129850959Y-104330952D01*
X129850959Y-104330952D02*
X129874768Y-104307142D01*
X129874768Y-104307142D02*
X129922387Y-104283333D01*
X129922387Y-104283333D02*
X129993816Y-104283333D01*
X129993816Y-104283333D02*
X130041435Y-104307142D01*
X130041435Y-104307142D02*
X130065244Y-104330952D01*
X130065244Y-104330952D02*
X130089054Y-104378571D01*
X130089054Y-104378571D02*
X130089054Y-104569047D01*
X129993816Y-103854761D02*
X130327149Y-103854761D01*
X129803340Y-103973809D02*
X130160482Y-104092856D01*
X130160482Y-104092856D02*
X130160482Y-103783333D01*
D10*
X128962445Y-93301019D02*
X128962445Y-94110542D01*
X128962445Y-94110542D02*
X129010064Y-94205780D01*
X129010064Y-94205780D02*
X129057683Y-94253400D01*
X129057683Y-94253400D02*
X129152921Y-94301019D01*
X129152921Y-94301019D02*
X129343397Y-94301019D01*
X129343397Y-94301019D02*
X129438635Y-94253400D01*
X129438635Y-94253400D02*
X129486254Y-94205780D01*
X129486254Y-94205780D02*
X129533873Y-94110542D01*
X129533873Y-94110542D02*
X129533873Y-93301019D01*
X129914826Y-93301019D02*
X130533873Y-93301019D01*
X130533873Y-93301019D02*
X130200540Y-93681971D01*
X130200540Y-93681971D02*
X130343397Y-93681971D01*
X130343397Y-93681971D02*
X130438635Y-93729590D01*
X130438635Y-93729590D02*
X130486254Y-93777209D01*
X130486254Y-93777209D02*
X130533873Y-93872447D01*
X130533873Y-93872447D02*
X130533873Y-94110542D01*
X130533873Y-94110542D02*
X130486254Y-94205780D01*
X130486254Y-94205780D02*
X130438635Y-94253400D01*
X130438635Y-94253400D02*
X130343397Y-94301019D01*
X130343397Y-94301019D02*
X130057683Y-94301019D01*
X130057683Y-94301019D02*
X129962445Y-94253400D01*
X129962445Y-94253400D02*
X129914826Y-94205780D01*
X128912445Y-113651019D02*
X128912445Y-114460542D01*
X128912445Y-114460542D02*
X128960064Y-114555780D01*
X128960064Y-114555780D02*
X129007683Y-114603400D01*
X129007683Y-114603400D02*
X129102921Y-114651019D01*
X129102921Y-114651019D02*
X129293397Y-114651019D01*
X129293397Y-114651019D02*
X129388635Y-114603400D01*
X129388635Y-114603400D02*
X129436254Y-114555780D01*
X129436254Y-114555780D02*
X129483873Y-114460542D01*
X129483873Y-114460542D02*
X129483873Y-113651019D01*
X130436254Y-113651019D02*
X129960064Y-113651019D01*
X129960064Y-113651019D02*
X129912445Y-114127209D01*
X129912445Y-114127209D02*
X129960064Y-114079590D01*
X129960064Y-114079590D02*
X130055302Y-114031971D01*
X130055302Y-114031971D02*
X130293397Y-114031971D01*
X130293397Y-114031971D02*
X130388635Y-114079590D01*
X130388635Y-114079590D02*
X130436254Y-114127209D01*
X130436254Y-114127209D02*
X130483873Y-114222447D01*
X130483873Y-114222447D02*
X130483873Y-114460542D01*
X130483873Y-114460542D02*
X130436254Y-114555780D01*
X130436254Y-114555780D02*
X130388635Y-114603400D01*
X130388635Y-114603400D02*
X130293397Y-114651019D01*
X130293397Y-114651019D02*
X130055302Y-114651019D01*
X130055302Y-114651019D02*
X129960064Y-114603400D01*
X129960064Y-114603400D02*
X129912445Y-114555780D01*
X148183333Y-50520180D02*
X148183333Y-49805895D01*
X148183333Y-49805895D02*
X148230952Y-49663038D01*
X148230952Y-49663038D02*
X148326190Y-49567800D01*
X148326190Y-49567800D02*
X148469047Y-49520180D01*
X148469047Y-49520180D02*
X148564285Y-49520180D01*
X147659523Y-49520180D02*
X147469047Y-49520180D01*
X147469047Y-49520180D02*
X147373809Y-49567800D01*
X147373809Y-49567800D02*
X147326190Y-49615419D01*
X147326190Y-49615419D02*
X147230952Y-49758276D01*
X147230952Y-49758276D02*
X147183333Y-49948752D01*
X147183333Y-49948752D02*
X147183333Y-50329704D01*
X147183333Y-50329704D02*
X147230952Y-50424942D01*
X147230952Y-50424942D02*
X147278571Y-50472561D01*
X147278571Y-50472561D02*
X147373809Y-50520180D01*
X147373809Y-50520180D02*
X147564285Y-50520180D01*
X147564285Y-50520180D02*
X147659523Y-50472561D01*
X147659523Y-50472561D02*
X147707142Y-50424942D01*
X147707142Y-50424942D02*
X147754761Y-50329704D01*
X147754761Y-50329704D02*
X147754761Y-50091609D01*
X147754761Y-50091609D02*
X147707142Y-49996371D01*
X147707142Y-49996371D02*
X147659523Y-49948752D01*
X147659523Y-49948752D02*
X147564285Y-49901133D01*
X147564285Y-49901133D02*
X147373809Y-49901133D01*
X147373809Y-49901133D02*
X147278571Y-49948752D01*
X147278571Y-49948752D02*
X147230952Y-49996371D01*
X147230952Y-49996371D02*
X147183333Y-50091609D01*
D11*
X130277149Y-114033333D02*
X130039054Y-114199999D01*
X130277149Y-114319047D02*
X129777149Y-114319047D01*
X129777149Y-114319047D02*
X129777149Y-114128571D01*
X129777149Y-114128571D02*
X129800959Y-114080952D01*
X129800959Y-114080952D02*
X129824768Y-114057142D01*
X129824768Y-114057142D02*
X129872387Y-114033333D01*
X129872387Y-114033333D02*
X129943816Y-114033333D01*
X129943816Y-114033333D02*
X129991435Y-114057142D01*
X129991435Y-114057142D02*
X130015244Y-114080952D01*
X130015244Y-114080952D02*
X130039054Y-114128571D01*
X130039054Y-114128571D02*
X130039054Y-114319047D01*
X129777149Y-113580952D02*
X129777149Y-113819047D01*
X129777149Y-113819047D02*
X130015244Y-113842856D01*
X130015244Y-113842856D02*
X129991435Y-113819047D01*
X129991435Y-113819047D02*
X129967625Y-113771428D01*
X129967625Y-113771428D02*
X129967625Y-113652380D01*
X129967625Y-113652380D02*
X129991435Y-113604761D01*
X129991435Y-113604761D02*
X130015244Y-113580952D01*
X130015244Y-113580952D02*
X130062863Y-113557142D01*
X130062863Y-113557142D02*
X130181911Y-113557142D01*
X130181911Y-113557142D02*
X130229530Y-113580952D01*
X130229530Y-113580952D02*
X130253340Y-113604761D01*
X130253340Y-113604761D02*
X130277149Y-113652380D01*
X130277149Y-113652380D02*
X130277149Y-113771428D01*
X130277149Y-113771428D02*
X130253340Y-113819047D01*
X130253340Y-113819047D02*
X130229530Y-113842856D01*
X152866666Y-57079530D02*
X152842857Y-57103340D01*
X152842857Y-57103340D02*
X152771428Y-57127149D01*
X152771428Y-57127149D02*
X152723809Y-57127149D01*
X152723809Y-57127149D02*
X152652381Y-57103340D01*
X152652381Y-57103340D02*
X152604762Y-57055720D01*
X152604762Y-57055720D02*
X152580952Y-57008101D01*
X152580952Y-57008101D02*
X152557143Y-56912863D01*
X152557143Y-56912863D02*
X152557143Y-56841435D01*
X152557143Y-56841435D02*
X152580952Y-56746197D01*
X152580952Y-56746197D02*
X152604762Y-56698578D01*
X152604762Y-56698578D02*
X152652381Y-56650959D01*
X152652381Y-56650959D02*
X152723809Y-56627149D01*
X152723809Y-56627149D02*
X152771428Y-56627149D01*
X152771428Y-56627149D02*
X152842857Y-56650959D01*
X152842857Y-56650959D02*
X152866666Y-56674768D01*
X153342857Y-57127149D02*
X153057143Y-57127149D01*
X153200000Y-57127149D02*
X153200000Y-56627149D01*
X153200000Y-56627149D02*
X153152381Y-56698578D01*
X153152381Y-56698578D02*
X153104762Y-56746197D01*
X153104762Y-56746197D02*
X153057143Y-56770006D01*
X130327149Y-93983333D02*
X130089054Y-94149999D01*
X130327149Y-94269047D02*
X129827149Y-94269047D01*
X129827149Y-94269047D02*
X129827149Y-94078571D01*
X129827149Y-94078571D02*
X129850959Y-94030952D01*
X129850959Y-94030952D02*
X129874768Y-94007142D01*
X129874768Y-94007142D02*
X129922387Y-93983333D01*
X129922387Y-93983333D02*
X129993816Y-93983333D01*
X129993816Y-93983333D02*
X130041435Y-94007142D01*
X130041435Y-94007142D02*
X130065244Y-94030952D01*
X130065244Y-94030952D02*
X130089054Y-94078571D01*
X130089054Y-94078571D02*
X130089054Y-94269047D01*
X129827149Y-93816666D02*
X129827149Y-93507142D01*
X129827149Y-93507142D02*
X130017625Y-93673809D01*
X130017625Y-93673809D02*
X130017625Y-93602380D01*
X130017625Y-93602380D02*
X130041435Y-93554761D01*
X130041435Y-93554761D02*
X130065244Y-93530952D01*
X130065244Y-93530952D02*
X130112863Y-93507142D01*
X130112863Y-93507142D02*
X130231911Y-93507142D01*
X130231911Y-93507142D02*
X130279530Y-93530952D01*
X130279530Y-93530952D02*
X130303340Y-93554761D01*
X130303340Y-93554761D02*
X130327149Y-93602380D01*
X130327149Y-93602380D02*
X130327149Y-93745237D01*
X130327149Y-93745237D02*
X130303340Y-93792856D01*
X130303340Y-93792856D02*
X130279530Y-93816666D01*
D10*
X163861905Y-114254819D02*
X163861905Y-115064342D01*
X163861905Y-115064342D02*
X163909524Y-115159580D01*
X163909524Y-115159580D02*
X163957143Y-115207200D01*
X163957143Y-115207200D02*
X164052381Y-115254819D01*
X164052381Y-115254819D02*
X164242857Y-115254819D01*
X164242857Y-115254819D02*
X164338095Y-115207200D01*
X164338095Y-115207200D02*
X164385714Y-115159580D01*
X164385714Y-115159580D02*
X164433333Y-115064342D01*
X164433333Y-115064342D02*
X164433333Y-114254819D01*
X165433333Y-115254819D02*
X164861905Y-115254819D01*
X165147619Y-115254819D02*
X165147619Y-114254819D01*
X165147619Y-114254819D02*
X165052381Y-114397676D01*
X165052381Y-114397676D02*
X164957143Y-114492914D01*
X164957143Y-114492914D02*
X164861905Y-114540533D01*
X166052381Y-114254819D02*
X166147619Y-114254819D01*
X166147619Y-114254819D02*
X166242857Y-114302438D01*
X166242857Y-114302438D02*
X166290476Y-114350057D01*
X166290476Y-114350057D02*
X166338095Y-114445295D01*
X166338095Y-114445295D02*
X166385714Y-114635771D01*
X166385714Y-114635771D02*
X166385714Y-114873866D01*
X166385714Y-114873866D02*
X166338095Y-115064342D01*
X166338095Y-115064342D02*
X166290476Y-115159580D01*
X166290476Y-115159580D02*
X166242857Y-115207200D01*
X166242857Y-115207200D02*
X166147619Y-115254819D01*
X166147619Y-115254819D02*
X166052381Y-115254819D01*
X166052381Y-115254819D02*
X165957143Y-115207200D01*
X165957143Y-115207200D02*
X165909524Y-115159580D01*
X165909524Y-115159580D02*
X165861905Y-115064342D01*
X165861905Y-115064342D02*
X165814286Y-114873866D01*
X165814286Y-114873866D02*
X165814286Y-114635771D01*
X165814286Y-114635771D02*
X165861905Y-114445295D01*
X165861905Y-114445295D02*
X165909524Y-114350057D01*
X165909524Y-114350057D02*
X165957143Y-114302438D01*
X165957143Y-114302438D02*
X166052381Y-114254819D01*
X129012445Y-73051019D02*
X129012445Y-73860542D01*
X129012445Y-73860542D02*
X129060064Y-73955780D01*
X129060064Y-73955780D02*
X129107683Y-74003400D01*
X129107683Y-74003400D02*
X129202921Y-74051019D01*
X129202921Y-74051019D02*
X129393397Y-74051019D01*
X129393397Y-74051019D02*
X129488635Y-74003400D01*
X129488635Y-74003400D02*
X129536254Y-73955780D01*
X129536254Y-73955780D02*
X129583873Y-73860542D01*
X129583873Y-73860542D02*
X129583873Y-73051019D01*
X130583873Y-74051019D02*
X130012445Y-74051019D01*
X130298159Y-74051019D02*
X130298159Y-73051019D01*
X130298159Y-73051019D02*
X130202921Y-73193876D01*
X130202921Y-73193876D02*
X130107683Y-73289114D01*
X130107683Y-73289114D02*
X130012445Y-73336733D01*
X128912445Y-83651019D02*
X128912445Y-84460542D01*
X128912445Y-84460542D02*
X128960064Y-84555780D01*
X128960064Y-84555780D02*
X129007683Y-84603400D01*
X129007683Y-84603400D02*
X129102921Y-84651019D01*
X129102921Y-84651019D02*
X129293397Y-84651019D01*
X129293397Y-84651019D02*
X129388635Y-84603400D01*
X129388635Y-84603400D02*
X129436254Y-84555780D01*
X129436254Y-84555780D02*
X129483873Y-84460542D01*
X129483873Y-84460542D02*
X129483873Y-83651019D01*
X129912445Y-83746257D02*
X129960064Y-83698638D01*
X129960064Y-83698638D02*
X130055302Y-83651019D01*
X130055302Y-83651019D02*
X130293397Y-83651019D01*
X130293397Y-83651019D02*
X130388635Y-83698638D01*
X130388635Y-83698638D02*
X130436254Y-83746257D01*
X130436254Y-83746257D02*
X130483873Y-83841495D01*
X130483873Y-83841495D02*
X130483873Y-83936733D01*
X130483873Y-83936733D02*
X130436254Y-84079590D01*
X130436254Y-84079590D02*
X129864826Y-84651019D01*
X129864826Y-84651019D02*
X130483873Y-84651019D01*
D11*
X130377149Y-73683333D02*
X130139054Y-73849999D01*
X130377149Y-73969047D02*
X129877149Y-73969047D01*
X129877149Y-73969047D02*
X129877149Y-73778571D01*
X129877149Y-73778571D02*
X129900959Y-73730952D01*
X129900959Y-73730952D02*
X129924768Y-73707142D01*
X129924768Y-73707142D02*
X129972387Y-73683333D01*
X129972387Y-73683333D02*
X130043816Y-73683333D01*
X130043816Y-73683333D02*
X130091435Y-73707142D01*
X130091435Y-73707142D02*
X130115244Y-73730952D01*
X130115244Y-73730952D02*
X130139054Y-73778571D01*
X130139054Y-73778571D02*
X130139054Y-73969047D01*
X130377149Y-73207142D02*
X130377149Y-73492856D01*
X130377149Y-73349999D02*
X129877149Y-73349999D01*
X129877149Y-73349999D02*
X129948578Y-73397618D01*
X129948578Y-73397618D02*
X129996197Y-73445237D01*
X129996197Y-73445237D02*
X130020006Y-73492856D01*
X164416666Y-114727149D02*
X164250000Y-114489054D01*
X164130952Y-114727149D02*
X164130952Y-114227149D01*
X164130952Y-114227149D02*
X164321428Y-114227149D01*
X164321428Y-114227149D02*
X164369047Y-114250959D01*
X164369047Y-114250959D02*
X164392857Y-114274768D01*
X164392857Y-114274768D02*
X164416666Y-114322387D01*
X164416666Y-114322387D02*
X164416666Y-114393816D01*
X164416666Y-114393816D02*
X164392857Y-114441435D01*
X164392857Y-114441435D02*
X164369047Y-114465244D01*
X164369047Y-114465244D02*
X164321428Y-114489054D01*
X164321428Y-114489054D02*
X164130952Y-114489054D01*
X164845238Y-114227149D02*
X164750000Y-114227149D01*
X164750000Y-114227149D02*
X164702381Y-114250959D01*
X164702381Y-114250959D02*
X164678571Y-114274768D01*
X164678571Y-114274768D02*
X164630952Y-114346197D01*
X164630952Y-114346197D02*
X164607143Y-114441435D01*
X164607143Y-114441435D02*
X164607143Y-114631911D01*
X164607143Y-114631911D02*
X164630952Y-114679530D01*
X164630952Y-114679530D02*
X164654762Y-114703340D01*
X164654762Y-114703340D02*
X164702381Y-114727149D01*
X164702381Y-114727149D02*
X164797619Y-114727149D01*
X164797619Y-114727149D02*
X164845238Y-114703340D01*
X164845238Y-114703340D02*
X164869047Y-114679530D01*
X164869047Y-114679530D02*
X164892857Y-114631911D01*
X164892857Y-114631911D02*
X164892857Y-114512863D01*
X164892857Y-114512863D02*
X164869047Y-114465244D01*
X164869047Y-114465244D02*
X164845238Y-114441435D01*
X164845238Y-114441435D02*
X164797619Y-114417625D01*
X164797619Y-114417625D02*
X164702381Y-114417625D01*
X164702381Y-114417625D02*
X164654762Y-114441435D01*
X164654762Y-114441435D02*
X164630952Y-114465244D01*
X164630952Y-114465244D02*
X164607143Y-114512863D01*
D10*
X120154819Y-103238333D02*
X120869104Y-103238333D01*
X120869104Y-103238333D02*
X121011961Y-103285952D01*
X121011961Y-103285952D02*
X121107200Y-103381190D01*
X121107200Y-103381190D02*
X121154819Y-103524047D01*
X121154819Y-103524047D02*
X121154819Y-103619285D01*
X120250057Y-102809761D02*
X120202438Y-102762142D01*
X120202438Y-102762142D02*
X120154819Y-102666904D01*
X120154819Y-102666904D02*
X120154819Y-102428809D01*
X120154819Y-102428809D02*
X120202438Y-102333571D01*
X120202438Y-102333571D02*
X120250057Y-102285952D01*
X120250057Y-102285952D02*
X120345295Y-102238333D01*
X120345295Y-102238333D02*
X120440533Y-102238333D01*
X120440533Y-102238333D02*
X120583390Y-102285952D01*
X120583390Y-102285952D02*
X121154819Y-102857380D01*
X121154819Y-102857380D02*
X121154819Y-102238333D01*
D11*
X147027149Y-56271428D02*
X146789054Y-56438094D01*
X147027149Y-56557142D02*
X146527149Y-56557142D01*
X146527149Y-56557142D02*
X146527149Y-56366666D01*
X146527149Y-56366666D02*
X146550959Y-56319047D01*
X146550959Y-56319047D02*
X146574768Y-56295237D01*
X146574768Y-56295237D02*
X146622387Y-56271428D01*
X146622387Y-56271428D02*
X146693816Y-56271428D01*
X146693816Y-56271428D02*
X146741435Y-56295237D01*
X146741435Y-56295237D02*
X146765244Y-56319047D01*
X146765244Y-56319047D02*
X146789054Y-56366666D01*
X146789054Y-56366666D02*
X146789054Y-56557142D01*
X147027149Y-55795237D02*
X147027149Y-56080951D01*
X147027149Y-55938094D02*
X146527149Y-55938094D01*
X146527149Y-55938094D02*
X146598578Y-55985713D01*
X146598578Y-55985713D02*
X146646197Y-56033332D01*
X146646197Y-56033332D02*
X146670006Y-56080951D01*
X146574768Y-55604761D02*
X146550959Y-55580952D01*
X146550959Y-55580952D02*
X146527149Y-55533333D01*
X146527149Y-55533333D02*
X146527149Y-55414285D01*
X146527149Y-55414285D02*
X146550959Y-55366666D01*
X146550959Y-55366666D02*
X146574768Y-55342857D01*
X146574768Y-55342857D02*
X146622387Y-55319047D01*
X146622387Y-55319047D02*
X146670006Y-55319047D01*
X146670006Y-55319047D02*
X146741435Y-55342857D01*
X146741435Y-55342857D02*
X147027149Y-55628571D01*
X147027149Y-55628571D02*
X147027149Y-55319047D01*
X164566666Y-95277149D02*
X164400000Y-95039054D01*
X164280952Y-95277149D02*
X164280952Y-94777149D01*
X164280952Y-94777149D02*
X164471428Y-94777149D01*
X164471428Y-94777149D02*
X164519047Y-94800959D01*
X164519047Y-94800959D02*
X164542857Y-94824768D01*
X164542857Y-94824768D02*
X164566666Y-94872387D01*
X164566666Y-94872387D02*
X164566666Y-94943816D01*
X164566666Y-94943816D02*
X164542857Y-94991435D01*
X164542857Y-94991435D02*
X164519047Y-95015244D01*
X164519047Y-95015244D02*
X164471428Y-95039054D01*
X164471428Y-95039054D02*
X164280952Y-95039054D01*
X164852381Y-94991435D02*
X164804762Y-94967625D01*
X164804762Y-94967625D02*
X164780952Y-94943816D01*
X164780952Y-94943816D02*
X164757143Y-94896197D01*
X164757143Y-94896197D02*
X164757143Y-94872387D01*
X164757143Y-94872387D02*
X164780952Y-94824768D01*
X164780952Y-94824768D02*
X164804762Y-94800959D01*
X164804762Y-94800959D02*
X164852381Y-94777149D01*
X164852381Y-94777149D02*
X164947619Y-94777149D01*
X164947619Y-94777149D02*
X164995238Y-94800959D01*
X164995238Y-94800959D02*
X165019047Y-94824768D01*
X165019047Y-94824768D02*
X165042857Y-94872387D01*
X165042857Y-94872387D02*
X165042857Y-94896197D01*
X165042857Y-94896197D02*
X165019047Y-94943816D01*
X165019047Y-94943816D02*
X164995238Y-94967625D01*
X164995238Y-94967625D02*
X164947619Y-94991435D01*
X164947619Y-94991435D02*
X164852381Y-94991435D01*
X164852381Y-94991435D02*
X164804762Y-95015244D01*
X164804762Y-95015244D02*
X164780952Y-95039054D01*
X164780952Y-95039054D02*
X164757143Y-95086673D01*
X164757143Y-95086673D02*
X164757143Y-95181911D01*
X164757143Y-95181911D02*
X164780952Y-95229530D01*
X164780952Y-95229530D02*
X164804762Y-95253340D01*
X164804762Y-95253340D02*
X164852381Y-95277149D01*
X164852381Y-95277149D02*
X164947619Y-95277149D01*
X164947619Y-95277149D02*
X164995238Y-95253340D01*
X164995238Y-95253340D02*
X165019047Y-95229530D01*
X165019047Y-95229530D02*
X165042857Y-95181911D01*
X165042857Y-95181911D02*
X165042857Y-95086673D01*
X165042857Y-95086673D02*
X165019047Y-95039054D01*
X165019047Y-95039054D02*
X164995238Y-95015244D01*
X164995238Y-95015244D02*
X164947619Y-94991435D01*
D13*
X174130000Y-90840000D02*
X174765000Y-90205000D01*
X174130000Y-115605000D02*
X174130000Y-90840000D01*
X174765000Y-90205000D02*
X176670000Y-90205000D01*
X176670000Y-90205000D02*
X176670000Y-115605000D01*
X176670000Y-115605000D02*
X174130000Y-115605000D01*
X129475000Y-83100000D02*
X130725000Y-83100000D01*
X129475000Y-85100000D02*
X129475000Y-83100000D01*
X130725000Y-83100000D02*
X130725000Y-85100000D01*
X130725000Y-85100000D02*
X129475000Y-85100000D01*
X163750000Y-84675000D02*
X165750000Y-84675000D01*
X163750000Y-85925000D02*
X163750000Y-84675000D01*
X165750000Y-84675000D02*
X165750000Y-85925000D01*
X165750000Y-85925000D02*
X163750000Y-85925000D01*
X174130000Y-65440000D02*
X174765000Y-64805000D01*
X174130000Y-90205000D02*
X174130000Y-65440000D01*
X174765000Y-64805000D02*
X176670000Y-64805000D01*
X176670000Y-64805000D02*
X176670000Y-90205000D01*
X176670000Y-90205000D02*
X174130000Y-90205000D01*
X163600000Y-103775000D02*
X165600000Y-103775000D01*
X163600000Y-105025000D02*
X163600000Y-103775000D01*
X165600000Y-103775000D02*
X165600000Y-105025000D01*
X165600000Y-105025000D02*
X163600000Y-105025000D01*
X143275000Y-59400000D02*
X144525000Y-59400000D01*
X143275000Y-61400000D02*
X143275000Y-59400000D01*
X144525000Y-59400000D02*
X144525000Y-61400000D01*
X144525000Y-61400000D02*
X143275000Y-61400000D01*
X147100000Y-59062500D02*
X148700000Y-59062500D01*
X147100000Y-61962500D02*
X147100000Y-59062500D01*
X148300000Y-61962500D02*
X147100000Y-61962500D01*
X148700000Y-59062500D02*
X148700000Y-61562500D01*
X148700000Y-61562500D02*
X148300000Y-61962500D01*
X119430000Y-65440000D02*
X120065000Y-64805000D01*
X119430000Y-90205000D02*
X119430000Y-65440000D01*
X120065000Y-64805000D02*
X121970000Y-64805000D01*
X121970000Y-64805000D02*
X121970000Y-90205000D01*
X121970000Y-90205000D02*
X119430000Y-90205000D01*
X163950000Y-73925000D02*
X165950000Y-73925000D01*
X163950000Y-75175000D02*
X163950000Y-73925000D01*
X165950000Y-73925000D02*
X165950000Y-75175000D01*
X165950000Y-75175000D02*
X163950000Y-75175000D01*
X148375000Y-54950000D02*
X149625000Y-54950000D01*
X148375000Y-56950000D02*
X148375000Y-54950000D01*
X149625000Y-54950000D02*
X149625000Y-56950000D01*
X149625000Y-56950000D02*
X148375000Y-56950000D01*
X129475000Y-103200000D02*
X130725000Y-103200000D01*
X129475000Y-105200000D02*
X129475000Y-103200000D01*
X130725000Y-103200000D02*
X130725000Y-105200000D01*
X130725000Y-105200000D02*
X129475000Y-105200000D01*
X152320000Y-53100000D02*
X143380000Y-53100000D01*
X143380000Y-46300000D01*
X152320000Y-46300000D01*
X152320000Y-53100000D01*
X129425000Y-112950000D02*
X130675000Y-112950000D01*
X129425000Y-114950000D02*
X129425000Y-112950000D01*
X130675000Y-112950000D02*
X130675000Y-114950000D01*
X130675000Y-114950000D02*
X129425000Y-114950000D01*
X151950000Y-56275000D02*
X153950000Y-56275000D01*
X151950000Y-57525000D02*
X151950000Y-56275000D01*
X153950000Y-56275000D02*
X153950000Y-57525000D01*
X153950000Y-57525000D02*
X151950000Y-57525000D01*
X129475000Y-92900000D02*
X130725000Y-92900000D01*
X129475000Y-94900000D02*
X129475000Y-92900000D01*
X130725000Y-92900000D02*
X130725000Y-94900000D01*
X130725000Y-94900000D02*
X129475000Y-94900000D01*
X129525000Y-72600000D02*
X130775000Y-72600000D01*
X129525000Y-74600000D02*
X129525000Y-72600000D01*
X130775000Y-72600000D02*
X130775000Y-74600000D01*
X130775000Y-74600000D02*
X129525000Y-74600000D01*
X163500000Y-113875000D02*
X165500000Y-113875000D01*
X163500000Y-115125000D02*
X163500000Y-113875000D01*
X165500000Y-113875000D02*
X165500000Y-115125000D01*
X165500000Y-115125000D02*
X163500000Y-115125000D01*
X119430000Y-90840000D02*
X120065000Y-90205000D01*
X119430000Y-115605000D02*
X119430000Y-90840000D01*
X120065000Y-90205000D02*
X121970000Y-90205000D01*
X121970000Y-90205000D02*
X121970000Y-115605000D01*
X121970000Y-115605000D02*
X119430000Y-115605000D01*
X146175000Y-54950000D02*
X147425000Y-54950000D01*
X146175000Y-56950000D02*
X146175000Y-54950000D01*
X147425000Y-54950000D02*
X147425000Y-56950000D01*
X147425000Y-56950000D02*
X146175000Y-56950000D01*
X163650000Y-94425000D02*
X165650000Y-94425000D01*
X163650000Y-95675000D02*
X163650000Y-94425000D01*
X165650000Y-94425000D02*
X165650000Y-95675000D01*
X165650000Y-95675000D02*
X163650000Y-95675000D01*
M02*
