G04 #@! TF.GenerationSoftware,KiCad,Pcbnew,8.0.1*
G04 #@! TF.CreationDate,2025-01-27T18:08:07-06:00*
G04 #@! TF.ProjectId,level-shifter,6c657665-6c2d-4736-9869-667465722e6b,rev?*
G04 #@! TF.SameCoordinates,Original*
G04 #@! TF.FileFunction,AssemblyDrawing,Bot*
%FSLAX46Y46*%
G04 Gerber Fmt 4.6, Leading zero omitted, Abs format (unit mm)*
G04 Created by KiCad (PCBNEW 8.0.1) date 2025-01-27 18:08:07*
%MOMM*%
%LPD*%
G01*
G04 APERTURE LIST*
%ADD10C,0.150000*%
%ADD11C,0.100000*%
G04 APERTURE END LIST*
D10*
X154694819Y-102571666D02*
X155409104Y-102571666D01*
X155409104Y-102571666D02*
X155551961Y-102524047D01*
X155551961Y-102524047D02*
X155647200Y-102428809D01*
X155647200Y-102428809D02*
X155694819Y-102285952D01*
X155694819Y-102285952D02*
X155694819Y-102190714D01*
X155123390Y-103190714D02*
X155075771Y-103095476D01*
X155075771Y-103095476D02*
X155028152Y-103047857D01*
X155028152Y-103047857D02*
X154932914Y-103000238D01*
X154932914Y-103000238D02*
X154885295Y-103000238D01*
X154885295Y-103000238D02*
X154790057Y-103047857D01*
X154790057Y-103047857D02*
X154742438Y-103095476D01*
X154742438Y-103095476D02*
X154694819Y-103190714D01*
X154694819Y-103190714D02*
X154694819Y-103381190D01*
X154694819Y-103381190D02*
X154742438Y-103476428D01*
X154742438Y-103476428D02*
X154790057Y-103524047D01*
X154790057Y-103524047D02*
X154885295Y-103571666D01*
X154885295Y-103571666D02*
X154932914Y-103571666D01*
X154932914Y-103571666D02*
X155028152Y-103524047D01*
X155028152Y-103524047D02*
X155075771Y-103476428D01*
X155075771Y-103476428D02*
X155123390Y-103381190D01*
X155123390Y-103381190D02*
X155123390Y-103190714D01*
X155123390Y-103190714D02*
X155171009Y-103095476D01*
X155171009Y-103095476D02*
X155218628Y-103047857D01*
X155218628Y-103047857D02*
X155313866Y-103000238D01*
X155313866Y-103000238D02*
X155504342Y-103000238D01*
X155504342Y-103000238D02*
X155599580Y-103047857D01*
X155599580Y-103047857D02*
X155647200Y-103095476D01*
X155647200Y-103095476D02*
X155694819Y-103190714D01*
X155694819Y-103190714D02*
X155694819Y-103381190D01*
X155694819Y-103381190D02*
X155647200Y-103476428D01*
X155647200Y-103476428D02*
X155599580Y-103524047D01*
X155599580Y-103524047D02*
X155504342Y-103571666D01*
X155504342Y-103571666D02*
X155313866Y-103571666D01*
X155313866Y-103571666D02*
X155218628Y-103524047D01*
X155218628Y-103524047D02*
X155171009Y-103476428D01*
X155171009Y-103476428D02*
X155123390Y-103381190D01*
X154694819Y-77171666D02*
X155409104Y-77171666D01*
X155409104Y-77171666D02*
X155551961Y-77124047D01*
X155551961Y-77124047D02*
X155647200Y-77028809D01*
X155647200Y-77028809D02*
X155694819Y-76885952D01*
X155694819Y-76885952D02*
X155694819Y-76790714D01*
X154694819Y-77552619D02*
X154694819Y-78219285D01*
X154694819Y-78219285D02*
X155694819Y-77790714D01*
X139454819Y-102571666D02*
X140169104Y-102571666D01*
X140169104Y-102571666D02*
X140311961Y-102524047D01*
X140311961Y-102524047D02*
X140407200Y-102428809D01*
X140407200Y-102428809D02*
X140454819Y-102285952D01*
X140454819Y-102285952D02*
X140454819Y-102190714D01*
X139454819Y-103476428D02*
X139454819Y-103285952D01*
X139454819Y-103285952D02*
X139502438Y-103190714D01*
X139502438Y-103190714D02*
X139550057Y-103143095D01*
X139550057Y-103143095D02*
X139692914Y-103047857D01*
X139692914Y-103047857D02*
X139883390Y-103000238D01*
X139883390Y-103000238D02*
X140264342Y-103000238D01*
X140264342Y-103000238D02*
X140359580Y-103047857D01*
X140359580Y-103047857D02*
X140407200Y-103095476D01*
X140407200Y-103095476D02*
X140454819Y-103190714D01*
X140454819Y-103190714D02*
X140454819Y-103381190D01*
X140454819Y-103381190D02*
X140407200Y-103476428D01*
X140407200Y-103476428D02*
X140359580Y-103524047D01*
X140359580Y-103524047D02*
X140264342Y-103571666D01*
X140264342Y-103571666D02*
X140026247Y-103571666D01*
X140026247Y-103571666D02*
X139931009Y-103524047D01*
X139931009Y-103524047D02*
X139883390Y-103476428D01*
X139883390Y-103476428D02*
X139835771Y-103381190D01*
X139835771Y-103381190D02*
X139835771Y-103190714D01*
X139835771Y-103190714D02*
X139883390Y-103095476D01*
X139883390Y-103095476D02*
X139931009Y-103047857D01*
X139931009Y-103047857D02*
X140026247Y-103000238D01*
X139454819Y-77171666D02*
X140169104Y-77171666D01*
X140169104Y-77171666D02*
X140311961Y-77124047D01*
X140311961Y-77124047D02*
X140407200Y-77028809D01*
X140407200Y-77028809D02*
X140454819Y-76885952D01*
X140454819Y-76885952D02*
X140454819Y-76790714D01*
X139454819Y-78124047D02*
X139454819Y-77647857D01*
X139454819Y-77647857D02*
X139931009Y-77600238D01*
X139931009Y-77600238D02*
X139883390Y-77647857D01*
X139883390Y-77647857D02*
X139835771Y-77743095D01*
X139835771Y-77743095D02*
X139835771Y-77981190D01*
X139835771Y-77981190D02*
X139883390Y-78076428D01*
X139883390Y-78076428D02*
X139931009Y-78124047D01*
X139931009Y-78124047D02*
X140026247Y-78171666D01*
X140026247Y-78171666D02*
X140264342Y-78171666D01*
X140264342Y-78171666D02*
X140359580Y-78124047D01*
X140359580Y-78124047D02*
X140407200Y-78076428D01*
X140407200Y-78076428D02*
X140454819Y-77981190D01*
X140454819Y-77981190D02*
X140454819Y-77743095D01*
X140454819Y-77743095D02*
X140407200Y-77647857D01*
X140407200Y-77647857D02*
X140359580Y-77600238D01*
D11*
X153970000Y-90205000D02*
X155875000Y-90205000D01*
X153970000Y-115605000D02*
X153970000Y-90205000D01*
X155875000Y-90205000D02*
X156510000Y-90840000D01*
X156510000Y-90840000D02*
X156510000Y-115605000D01*
X156510000Y-115605000D02*
X153970000Y-115605000D01*
X153970000Y-64805000D02*
X155875000Y-64805000D01*
X153970000Y-90205000D02*
X153970000Y-64805000D01*
X155875000Y-64805000D02*
X156510000Y-65440000D01*
X156510000Y-65440000D02*
X156510000Y-90205000D01*
X156510000Y-90205000D02*
X153970000Y-90205000D01*
X138730000Y-90205000D02*
X140635000Y-90205000D01*
X138730000Y-115605000D02*
X138730000Y-90205000D01*
X140635000Y-90205000D02*
X141270000Y-90840000D01*
X141270000Y-90840000D02*
X141270000Y-115605000D01*
X141270000Y-115605000D02*
X138730000Y-115605000D01*
X138730000Y-64805000D02*
X140635000Y-64805000D01*
X138730000Y-90205000D02*
X138730000Y-64805000D01*
X140635000Y-64805000D02*
X141270000Y-65440000D01*
X141270000Y-65440000D02*
X141270000Y-90205000D01*
X141270000Y-90205000D02*
X138730000Y-90205000D01*
M02*
