G04 #@! TF.GenerationSoftware,KiCad,Pcbnew,8.0.1*
G04 #@! TF.CreationDate,2025-01-27T18:08:07-06:00*
G04 #@! TF.ProjectId,level-shifter,6c657665-6c2d-4736-9869-667465722e6b,rev?*
G04 #@! TF.SameCoordinates,Original*
G04 #@! TF.FileFunction,Copper,L2,Bot*
G04 #@! TF.FilePolarity,Positive*
%FSLAX46Y46*%
G04 Gerber Fmt 4.6, Leading zero omitted, Abs format (unit mm)*
G04 Created by KiCad (PCBNEW 8.0.1) date 2025-01-27 18:08:07*
%MOMM*%
%LPD*%
G01*
G04 APERTURE LIST*
G04 #@! TA.AperFunction,ComponentPad*
%ADD10R,1.700000X1.700000*%
G04 #@! TD*
G04 #@! TA.AperFunction,ComponentPad*
%ADD11O,1.700000X1.700000*%
G04 #@! TD*
G04 #@! TA.AperFunction,ComponentPad*
%ADD12O,1.100000X1.700000*%
G04 #@! TD*
G04 #@! TA.AperFunction,ViaPad*
%ADD13C,0.600000*%
G04 #@! TD*
G04 #@! TA.AperFunction,Conductor*
%ADD14C,0.200000*%
G04 #@! TD*
G04 APERTURE END LIST*
D10*
X175400000Y-91475000D03*
D11*
X175400000Y-94015000D03*
X175400000Y-96555000D03*
X175400000Y-99095000D03*
X175400000Y-101635000D03*
X175400000Y-104175000D03*
X175400000Y-106715000D03*
X175400000Y-109255000D03*
X175400000Y-111795000D03*
X175400000Y-114335000D03*
D10*
X175400000Y-66075000D03*
D11*
X175400000Y-68615000D03*
X175400000Y-71155000D03*
X175400000Y-73695000D03*
X175400000Y-76235000D03*
X175400000Y-78775000D03*
X175400000Y-81315000D03*
X175400000Y-83855000D03*
X175400000Y-86395000D03*
X175400000Y-88935000D03*
D10*
X120700000Y-66075000D03*
D11*
X120700000Y-68615000D03*
X120700000Y-71155000D03*
X120700000Y-73695000D03*
X120700000Y-76235000D03*
X120700000Y-78775000D03*
X120700000Y-81315000D03*
X120700000Y-83855000D03*
X120700000Y-86395000D03*
X120700000Y-88935000D03*
D12*
X152170000Y-52700000D03*
X152170000Y-48900000D03*
X143530000Y-52700000D03*
X143530000Y-48900000D03*
D10*
X120700000Y-91475000D03*
D11*
X120700000Y-94015000D03*
X120700000Y-96555000D03*
X120700000Y-99095000D03*
X120700000Y-101635000D03*
X120700000Y-104175000D03*
X120700000Y-106715000D03*
X120700000Y-109255000D03*
X120700000Y-111795000D03*
X120700000Y-114335000D03*
D10*
X155240000Y-91475000D03*
D11*
X155240000Y-94015000D03*
X155240000Y-96555000D03*
X155240000Y-99095000D03*
X155240000Y-101635000D03*
X155240000Y-104175000D03*
X155240000Y-106715000D03*
X155240000Y-109255000D03*
X155240000Y-111795000D03*
X155240000Y-114335000D03*
D10*
X155240000Y-66075000D03*
D11*
X155240000Y-68615000D03*
X155240000Y-71155000D03*
X155240000Y-73695000D03*
X155240000Y-76235000D03*
X155240000Y-78775000D03*
X155240000Y-81315000D03*
X155240000Y-83855000D03*
X155240000Y-86395000D03*
X155240000Y-88935000D03*
D10*
X140000000Y-91475000D03*
D11*
X140000000Y-94015000D03*
X140000000Y-96555000D03*
X140000000Y-99095000D03*
X140000000Y-101635000D03*
X140000000Y-104175000D03*
X140000000Y-106715000D03*
X140000000Y-109255000D03*
X140000000Y-111795000D03*
X140000000Y-114335000D03*
D10*
X140000000Y-66075000D03*
D11*
X140000000Y-68615000D03*
X140000000Y-71155000D03*
X140000000Y-73695000D03*
X140000000Y-76235000D03*
X140000000Y-78775000D03*
X140000000Y-81315000D03*
X140000000Y-83855000D03*
X140000000Y-86395000D03*
X140000000Y-88935000D03*
D13*
X163450000Y-98850000D03*
X129500000Y-108550000D03*
X162250000Y-104400000D03*
X163650000Y-109550000D03*
X162650000Y-74550000D03*
X129550000Y-88000000D03*
X163850000Y-89150000D03*
X129500000Y-78200000D03*
X129600000Y-67750000D03*
X162350000Y-95050000D03*
X163600000Y-79200000D03*
X162150000Y-114500000D03*
X157500000Y-64850000D03*
X129550000Y-98500000D03*
X163900000Y-67950000D03*
X148150000Y-85800000D03*
X162450000Y-85300000D03*
X129000000Y-71300000D03*
X150450000Y-56950000D03*
X150650000Y-60500000D03*
X165200000Y-71350000D03*
X128800000Y-81950000D03*
X128750000Y-102000000D03*
X164650000Y-102300000D03*
X128700000Y-111900000D03*
X145350000Y-56950000D03*
X164750000Y-92650000D03*
X154000000Y-58550000D03*
X164900000Y-82650000D03*
X128850000Y-91600000D03*
X164400000Y-112700000D03*
X143900000Y-58000000D03*
D14*
X130200000Y-67150000D02*
X129600000Y-67750000D01*
X160750000Y-74550000D02*
X162650000Y-74550000D01*
X157500000Y-82950000D02*
X157500000Y-86750000D01*
X142475000Y-91475000D02*
X148150000Y-85800000D01*
X157500000Y-76550000D02*
X157500000Y-82950000D01*
X157500000Y-98100000D02*
X157500000Y-103400000D01*
X157500000Y-99650000D02*
X162250000Y-104400000D01*
X130000000Y-87550000D02*
X129550000Y-88000000D01*
X161750000Y-98850000D02*
X163450000Y-98850000D01*
X132700000Y-80000000D02*
X132700000Y-67800000D01*
X161450000Y-86750000D02*
X163850000Y-89150000D01*
X132050000Y-67150000D02*
X130200000Y-67150000D01*
X157500000Y-90800000D02*
X157500000Y-94600000D01*
X160100000Y-82950000D02*
X162450000Y-85300000D01*
X157500000Y-64850000D02*
X157500000Y-71300000D01*
X132700000Y-67800000D02*
X132050000Y-67150000D01*
X131800000Y-107700000D02*
X130350000Y-107700000D01*
X130350000Y-107700000D02*
X129500000Y-108550000D01*
X140000000Y-91475000D02*
X142475000Y-91475000D01*
X157500000Y-86750000D02*
X161450000Y-86750000D01*
X157500000Y-82950000D02*
X160100000Y-82950000D01*
X157500000Y-109850000D02*
X162150000Y-114500000D01*
X157500000Y-94600000D02*
X157500000Y-98100000D01*
X132350000Y-95750000D02*
X129600000Y-98500000D01*
X157500000Y-103400000D02*
X157500000Y-109850000D01*
X157500000Y-98100000D02*
X157500000Y-99650000D01*
X157500000Y-94600000D02*
X161750000Y-98850000D01*
X132350000Y-95750000D02*
X132350000Y-107150000D01*
X157500000Y-76550000D02*
X160150000Y-79200000D01*
X136625000Y-91475000D02*
X132350000Y-95750000D01*
X157500000Y-86750000D02*
X157500000Y-90800000D01*
X132700000Y-80000000D02*
X130900000Y-78200000D01*
X132700000Y-87550000D02*
X132700000Y-80000000D01*
X157500000Y-103400000D02*
X163650000Y-109550000D01*
X140000000Y-91475000D02*
X136625000Y-91475000D01*
X157500000Y-71300000D02*
X160750000Y-74550000D01*
X161750000Y-95050000D02*
X162350000Y-95050000D01*
X129600000Y-98500000D02*
X129550000Y-98500000D01*
X160600000Y-67950000D02*
X163900000Y-67950000D01*
X136625000Y-91475000D02*
X132700000Y-87550000D01*
X132700000Y-87550000D02*
X130000000Y-87550000D01*
X160150000Y-79200000D02*
X163600000Y-79200000D01*
X157500000Y-90800000D02*
X161750000Y-95050000D01*
X132350000Y-107150000D02*
X131800000Y-107700000D01*
X130900000Y-78200000D02*
X129500000Y-78200000D01*
X157500000Y-64850000D02*
X160600000Y-67950000D01*
X157500000Y-71300000D02*
X157500000Y-76550000D01*
G04 #@! TA.AperFunction,Conductor*
G36*
X154827826Y-47822174D02*
G01*
X154849500Y-47874500D01*
X154849500Y-57149829D01*
X154887634Y-57241894D01*
X154887635Y-57241896D01*
X154887636Y-57241897D01*
X156508103Y-58862364D01*
X156600172Y-58900500D01*
X156699828Y-58900500D01*
X175765587Y-58900500D01*
X175817913Y-58922174D01*
X177677826Y-60782086D01*
X177699500Y-60834412D01*
X177699500Y-115122150D01*
X177684778Y-115166446D01*
X176486670Y-116769796D01*
X176437986Y-116798738D01*
X176427392Y-116799500D01*
X119511108Y-116799500D01*
X119458782Y-116777826D01*
X119454471Y-116773126D01*
X118517863Y-115659322D01*
X118500500Y-115611696D01*
X118500500Y-114335000D01*
X119694659Y-114335000D01*
X119713976Y-114531133D01*
X119771187Y-114719731D01*
X119837594Y-114843968D01*
X119864090Y-114893538D01*
X119989117Y-115045883D01*
X120141462Y-115170910D01*
X120218278Y-115211969D01*
X120315268Y-115263812D01*
X120315270Y-115263812D01*
X120315273Y-115263814D01*
X120503868Y-115321024D01*
X120700000Y-115340341D01*
X120896132Y-115321024D01*
X121084727Y-115263814D01*
X121258538Y-115170910D01*
X121410883Y-115045883D01*
X121535910Y-114893538D01*
X121628814Y-114719727D01*
X121686024Y-114531132D01*
X121705341Y-114335000D01*
X138994659Y-114335000D01*
X139013976Y-114531133D01*
X139071187Y-114719731D01*
X139137594Y-114843968D01*
X139164090Y-114893538D01*
X139289117Y-115045883D01*
X139441462Y-115170910D01*
X139518278Y-115211969D01*
X139615268Y-115263812D01*
X139615270Y-115263812D01*
X139615273Y-115263814D01*
X139803868Y-115321024D01*
X140000000Y-115340341D01*
X140196132Y-115321024D01*
X140384727Y-115263814D01*
X140558538Y-115170910D01*
X140710883Y-115045883D01*
X140835910Y-114893538D01*
X140928814Y-114719727D01*
X140986024Y-114531132D01*
X141005341Y-114335000D01*
X154234659Y-114335000D01*
X154253976Y-114531133D01*
X154311187Y-114719731D01*
X154377594Y-114843968D01*
X154404090Y-114893538D01*
X154529117Y-115045883D01*
X154681462Y-115170910D01*
X154758278Y-115211969D01*
X154855268Y-115263812D01*
X154855270Y-115263812D01*
X154855273Y-115263814D01*
X155043868Y-115321024D01*
X155240000Y-115340341D01*
X155436132Y-115321024D01*
X155624727Y-115263814D01*
X155798538Y-115170910D01*
X155950883Y-115045883D01*
X156075910Y-114893538D01*
X156168814Y-114719727D01*
X156226024Y-114531132D01*
X156245341Y-114335000D01*
X156226024Y-114138868D01*
X156168814Y-113950273D01*
X156168812Y-113950270D01*
X156168812Y-113950268D01*
X156117048Y-113853426D01*
X156075910Y-113776462D01*
X155950883Y-113624117D01*
X155798538Y-113499090D01*
X155788597Y-113493776D01*
X155624731Y-113406187D01*
X155436133Y-113348976D01*
X155240000Y-113329659D01*
X155043866Y-113348976D01*
X154855268Y-113406187D01*
X154681463Y-113499089D01*
X154529117Y-113624117D01*
X154404089Y-113776463D01*
X154311187Y-113950268D01*
X154253976Y-114138866D01*
X154234659Y-114335000D01*
X141005341Y-114335000D01*
X140986024Y-114138868D01*
X140928814Y-113950273D01*
X140928812Y-113950270D01*
X140928812Y-113950268D01*
X140877048Y-113853426D01*
X140835910Y-113776462D01*
X140710883Y-113624117D01*
X140558538Y-113499090D01*
X140548597Y-113493776D01*
X140384731Y-113406187D01*
X140196133Y-113348976D01*
X140000000Y-113329659D01*
X139803866Y-113348976D01*
X139615268Y-113406187D01*
X139441463Y-113499089D01*
X139289117Y-113624117D01*
X139164089Y-113776463D01*
X139071187Y-113950268D01*
X139013976Y-114138866D01*
X138994659Y-114335000D01*
X121705341Y-114335000D01*
X121686024Y-114138868D01*
X121628814Y-113950273D01*
X121628812Y-113950270D01*
X121628812Y-113950268D01*
X121577048Y-113853426D01*
X121535910Y-113776462D01*
X121410883Y-113624117D01*
X121258538Y-113499090D01*
X121248597Y-113493776D01*
X121084731Y-113406187D01*
X120896133Y-113348976D01*
X120700000Y-113329659D01*
X120503866Y-113348976D01*
X120315268Y-113406187D01*
X120141463Y-113499089D01*
X119989117Y-113624117D01*
X119864089Y-113776463D01*
X119771187Y-113950268D01*
X119713976Y-114138866D01*
X119694659Y-114335000D01*
X118500500Y-114335000D01*
X118500500Y-111795000D01*
X119694659Y-111795000D01*
X119713976Y-111991133D01*
X119771187Y-112179731D01*
X119858776Y-112343597D01*
X119864090Y-112353538D01*
X119989117Y-112505883D01*
X120141462Y-112630910D01*
X120218426Y-112672048D01*
X120315268Y-112723812D01*
X120315270Y-112723812D01*
X120315273Y-112723814D01*
X120503868Y-112781024D01*
X120700000Y-112800341D01*
X120896132Y-112781024D01*
X121084727Y-112723814D01*
X121258538Y-112630910D01*
X121410883Y-112505883D01*
X121535910Y-112353538D01*
X121628814Y-112179727D01*
X121686024Y-111991132D01*
X121705341Y-111795000D01*
X138994659Y-111795000D01*
X139013976Y-111991133D01*
X139071187Y-112179731D01*
X139158776Y-112343597D01*
X139164090Y-112353538D01*
X139289117Y-112505883D01*
X139441462Y-112630910D01*
X139518426Y-112672048D01*
X139615268Y-112723812D01*
X139615270Y-112723812D01*
X139615273Y-112723814D01*
X139803868Y-112781024D01*
X140000000Y-112800341D01*
X140196132Y-112781024D01*
X140384727Y-112723814D01*
X140558538Y-112630910D01*
X140710883Y-112505883D01*
X140835910Y-112353538D01*
X140928814Y-112179727D01*
X140986024Y-111991132D01*
X141005341Y-111795000D01*
X154234659Y-111795000D01*
X154253976Y-111991133D01*
X154311187Y-112179731D01*
X154398776Y-112343597D01*
X154404090Y-112353538D01*
X154529117Y-112505883D01*
X154681462Y-112630910D01*
X154758426Y-112672048D01*
X154855268Y-112723812D01*
X154855270Y-112723812D01*
X154855273Y-112723814D01*
X155043868Y-112781024D01*
X155240000Y-112800341D01*
X155436132Y-112781024D01*
X155624727Y-112723814D01*
X155798538Y-112630910D01*
X155950883Y-112505883D01*
X156075910Y-112353538D01*
X156168814Y-112179727D01*
X156226024Y-111991132D01*
X156245341Y-111795000D01*
X156226024Y-111598868D01*
X156168814Y-111410273D01*
X156168812Y-111410270D01*
X156168812Y-111410268D01*
X156117048Y-111313426D01*
X156075910Y-111236462D01*
X155950883Y-111084117D01*
X155798538Y-110959090D01*
X155788597Y-110953776D01*
X155624731Y-110866187D01*
X155436133Y-110808976D01*
X155240000Y-110789659D01*
X155043866Y-110808976D01*
X154855268Y-110866187D01*
X154681463Y-110959089D01*
X154529117Y-111084117D01*
X154404089Y-111236463D01*
X154311187Y-111410268D01*
X154253976Y-111598866D01*
X154234659Y-111795000D01*
X141005341Y-111795000D01*
X140986024Y-111598868D01*
X140928814Y-111410273D01*
X140928812Y-111410270D01*
X140928812Y-111410268D01*
X140877048Y-111313426D01*
X140835910Y-111236462D01*
X140710883Y-111084117D01*
X140558538Y-110959090D01*
X140548597Y-110953776D01*
X140384731Y-110866187D01*
X140196133Y-110808976D01*
X140000000Y-110789659D01*
X139803866Y-110808976D01*
X139615268Y-110866187D01*
X139441463Y-110959089D01*
X139289117Y-111084117D01*
X139164089Y-111236463D01*
X139071187Y-111410268D01*
X139013976Y-111598866D01*
X138994659Y-111795000D01*
X121705341Y-111795000D01*
X121686024Y-111598868D01*
X121628814Y-111410273D01*
X121628812Y-111410270D01*
X121628812Y-111410268D01*
X121577048Y-111313426D01*
X121535910Y-111236462D01*
X121410883Y-111084117D01*
X121258538Y-110959090D01*
X121248597Y-110953776D01*
X121084731Y-110866187D01*
X120896133Y-110808976D01*
X120700000Y-110789659D01*
X120503866Y-110808976D01*
X120315268Y-110866187D01*
X120141463Y-110959089D01*
X119989117Y-111084117D01*
X119864089Y-111236463D01*
X119771187Y-111410268D01*
X119713976Y-111598866D01*
X119694659Y-111795000D01*
X118500500Y-111795000D01*
X118500500Y-109255000D01*
X119694659Y-109255000D01*
X119713976Y-109451133D01*
X119771187Y-109639731D01*
X119828118Y-109746239D01*
X119864090Y-109813538D01*
X119989117Y-109965883D01*
X120141462Y-110090910D01*
X120218426Y-110132048D01*
X120315268Y-110183812D01*
X120315270Y-110183812D01*
X120315273Y-110183814D01*
X120503868Y-110241024D01*
X120700000Y-110260341D01*
X120896132Y-110241024D01*
X121084727Y-110183814D01*
X121258538Y-110090910D01*
X121410883Y-109965883D01*
X121535910Y-109813538D01*
X121628814Y-109639727D01*
X121686024Y-109451132D01*
X121705341Y-109255000D01*
X138994659Y-109255000D01*
X139013976Y-109451133D01*
X139071187Y-109639731D01*
X139128118Y-109746239D01*
X139164090Y-109813538D01*
X139289117Y-109965883D01*
X139441462Y-110090910D01*
X139518426Y-110132048D01*
X139615268Y-110183812D01*
X139615270Y-110183812D01*
X139615273Y-110183814D01*
X139803868Y-110241024D01*
X140000000Y-110260341D01*
X140196132Y-110241024D01*
X140384727Y-110183814D01*
X140558538Y-110090910D01*
X140710883Y-109965883D01*
X140835910Y-109813538D01*
X140928814Y-109639727D01*
X140986024Y-109451132D01*
X141005341Y-109255000D01*
X154234659Y-109255000D01*
X154253976Y-109451133D01*
X154311187Y-109639731D01*
X154368118Y-109746239D01*
X154404090Y-109813538D01*
X154529117Y-109965883D01*
X154681462Y-110090910D01*
X154758426Y-110132048D01*
X154855268Y-110183812D01*
X154855270Y-110183812D01*
X154855273Y-110183814D01*
X155043868Y-110241024D01*
X155240000Y-110260341D01*
X155436132Y-110241024D01*
X155624727Y-110183814D01*
X155798538Y-110090910D01*
X155950883Y-109965883D01*
X156075910Y-109813538D01*
X156168814Y-109639727D01*
X156226024Y-109451132D01*
X156245341Y-109255000D01*
X156226024Y-109058868D01*
X156168814Y-108870273D01*
X156168812Y-108870270D01*
X156168812Y-108870268D01*
X156117048Y-108773426D01*
X156075910Y-108696462D01*
X155950883Y-108544117D01*
X155798538Y-108419090D01*
X155788597Y-108413776D01*
X155624731Y-108326187D01*
X155436133Y-108268976D01*
X155240000Y-108249659D01*
X155043866Y-108268976D01*
X154855268Y-108326187D01*
X154681463Y-108419089D01*
X154529117Y-108544117D01*
X154404089Y-108696463D01*
X154311187Y-108870268D01*
X154253976Y-109058866D01*
X154234659Y-109255000D01*
X141005341Y-109255000D01*
X140986024Y-109058868D01*
X140928814Y-108870273D01*
X140928812Y-108870270D01*
X140928812Y-108870268D01*
X140877048Y-108773426D01*
X140835910Y-108696462D01*
X140710883Y-108544117D01*
X140558538Y-108419090D01*
X140548597Y-108413776D01*
X140384731Y-108326187D01*
X140196133Y-108268976D01*
X140000000Y-108249659D01*
X139803866Y-108268976D01*
X139615268Y-108326187D01*
X139441463Y-108419089D01*
X139289117Y-108544117D01*
X139164089Y-108696463D01*
X139071187Y-108870268D01*
X139013976Y-109058866D01*
X138994659Y-109255000D01*
X121705341Y-109255000D01*
X121686024Y-109058868D01*
X121628814Y-108870273D01*
X121628812Y-108870270D01*
X121628812Y-108870268D01*
X121577048Y-108773426D01*
X121535910Y-108696462D01*
X121415711Y-108550000D01*
X129044867Y-108550000D01*
X129063302Y-108678223D01*
X129063302Y-108678224D01*
X129063303Y-108678226D01*
X129117118Y-108796063D01*
X129201951Y-108893967D01*
X129310931Y-108964004D01*
X129435228Y-109000500D01*
X129564772Y-109000500D01*
X129689069Y-108964004D01*
X129798049Y-108893967D01*
X129882882Y-108796063D01*
X129936697Y-108678226D01*
X129955133Y-108550000D01*
X129947723Y-108498470D01*
X129961729Y-108443595D01*
X129968637Y-108435621D01*
X130432086Y-107972174D01*
X130484412Y-107950500D01*
X131849827Y-107950500D01*
X131849828Y-107950500D01*
X131941897Y-107912364D01*
X132562364Y-107291897D01*
X132600500Y-107199828D01*
X132600500Y-107100173D01*
X132600500Y-106715000D01*
X138994659Y-106715000D01*
X139013976Y-106911133D01*
X139071187Y-107099731D01*
X139158776Y-107263597D01*
X139164090Y-107273538D01*
X139289117Y-107425883D01*
X139441462Y-107550910D01*
X139518426Y-107592048D01*
X139615268Y-107643812D01*
X139615270Y-107643812D01*
X139615273Y-107643814D01*
X139803868Y-107701024D01*
X140000000Y-107720341D01*
X140196132Y-107701024D01*
X140384727Y-107643814D01*
X140558538Y-107550910D01*
X140710883Y-107425883D01*
X140835910Y-107273538D01*
X140928814Y-107099727D01*
X140986024Y-106911132D01*
X141005341Y-106715000D01*
X154234659Y-106715000D01*
X154253976Y-106911133D01*
X154311187Y-107099731D01*
X154398776Y-107263597D01*
X154404090Y-107273538D01*
X154529117Y-107425883D01*
X154681462Y-107550910D01*
X154758426Y-107592048D01*
X154855268Y-107643812D01*
X154855270Y-107643812D01*
X154855273Y-107643814D01*
X155043868Y-107701024D01*
X155240000Y-107720341D01*
X155436132Y-107701024D01*
X155624727Y-107643814D01*
X155798538Y-107550910D01*
X155950883Y-107425883D01*
X156075910Y-107273538D01*
X156168814Y-107099727D01*
X156226024Y-106911132D01*
X156245341Y-106715000D01*
X156226024Y-106518868D01*
X156168814Y-106330273D01*
X156168812Y-106330270D01*
X156168812Y-106330268D01*
X156117048Y-106233426D01*
X156075910Y-106156462D01*
X155950883Y-106004117D01*
X155798538Y-105879090D01*
X155788597Y-105873776D01*
X155624731Y-105786187D01*
X155436133Y-105728976D01*
X155240000Y-105709659D01*
X155043866Y-105728976D01*
X154855268Y-105786187D01*
X154681463Y-105879089D01*
X154529117Y-106004117D01*
X154404089Y-106156463D01*
X154311187Y-106330268D01*
X154253976Y-106518866D01*
X154234659Y-106715000D01*
X141005341Y-106715000D01*
X140986024Y-106518868D01*
X140928814Y-106330273D01*
X140928812Y-106330270D01*
X140928812Y-106330268D01*
X140877048Y-106233426D01*
X140835910Y-106156462D01*
X140710883Y-106004117D01*
X140558538Y-105879090D01*
X140548597Y-105873776D01*
X140384731Y-105786187D01*
X140196133Y-105728976D01*
X140000000Y-105709659D01*
X139803866Y-105728976D01*
X139615268Y-105786187D01*
X139441463Y-105879089D01*
X139289117Y-106004117D01*
X139164089Y-106156463D01*
X139071187Y-106330268D01*
X139013976Y-106518866D01*
X138994659Y-106715000D01*
X132600500Y-106715000D01*
X132600500Y-104175000D01*
X138994659Y-104175000D01*
X139013976Y-104371133D01*
X139071187Y-104559731D01*
X139117334Y-104646064D01*
X139164090Y-104733538D01*
X139289117Y-104885883D01*
X139441462Y-105010910D01*
X139518426Y-105052048D01*
X139615268Y-105103812D01*
X139615270Y-105103812D01*
X139615273Y-105103814D01*
X139803868Y-105161024D01*
X140000000Y-105180341D01*
X140196132Y-105161024D01*
X140384727Y-105103814D01*
X140558538Y-105010910D01*
X140710883Y-104885883D01*
X140835910Y-104733538D01*
X140928814Y-104559727D01*
X140986024Y-104371132D01*
X141005341Y-104175000D01*
X154234659Y-104175000D01*
X154253976Y-104371133D01*
X154311187Y-104559731D01*
X154357334Y-104646064D01*
X154404090Y-104733538D01*
X154529117Y-104885883D01*
X154681462Y-105010910D01*
X154758426Y-105052048D01*
X154855268Y-105103812D01*
X154855270Y-105103812D01*
X154855273Y-105103814D01*
X155043868Y-105161024D01*
X155240000Y-105180341D01*
X155436132Y-105161024D01*
X155624727Y-105103814D01*
X155798538Y-105010910D01*
X155950883Y-104885883D01*
X156075910Y-104733538D01*
X156168814Y-104559727D01*
X156226024Y-104371132D01*
X156245341Y-104175000D01*
X156226024Y-103978868D01*
X156168814Y-103790273D01*
X156168812Y-103790270D01*
X156168812Y-103790268D01*
X156117048Y-103693426D01*
X156075910Y-103616462D01*
X155950883Y-103464117D01*
X155798538Y-103339090D01*
X155758919Y-103317913D01*
X155624731Y-103246187D01*
X155436133Y-103188976D01*
X155240000Y-103169659D01*
X155043866Y-103188976D01*
X154855268Y-103246187D01*
X154681463Y-103339089D01*
X154529117Y-103464117D01*
X154404089Y-103616463D01*
X154311187Y-103790268D01*
X154253976Y-103978866D01*
X154234659Y-104175000D01*
X141005341Y-104175000D01*
X140986024Y-103978868D01*
X140928814Y-103790273D01*
X140928812Y-103790270D01*
X140928812Y-103790268D01*
X140877048Y-103693426D01*
X140835910Y-103616462D01*
X140710883Y-103464117D01*
X140558538Y-103339090D01*
X140518919Y-103317913D01*
X140384731Y-103246187D01*
X140196133Y-103188976D01*
X140000000Y-103169659D01*
X139803866Y-103188976D01*
X139615268Y-103246187D01*
X139441463Y-103339089D01*
X139289117Y-103464117D01*
X139164089Y-103616463D01*
X139071187Y-103790268D01*
X139013976Y-103978866D01*
X138994659Y-104175000D01*
X132600500Y-104175000D01*
X132600500Y-101635000D01*
X138994659Y-101635000D01*
X139013976Y-101831133D01*
X139071187Y-102019731D01*
X139158776Y-102183597D01*
X139164090Y-102193538D01*
X139289117Y-102345883D01*
X139441462Y-102470910D01*
X139518426Y-102512048D01*
X139615268Y-102563812D01*
X139615270Y-102563812D01*
X139615273Y-102563814D01*
X139803868Y-102621024D01*
X140000000Y-102640341D01*
X140196132Y-102621024D01*
X140384727Y-102563814D01*
X140558538Y-102470910D01*
X140710883Y-102345883D01*
X140835910Y-102193538D01*
X140928814Y-102019727D01*
X140986024Y-101831132D01*
X141005341Y-101635000D01*
X154234659Y-101635000D01*
X154253976Y-101831133D01*
X154311187Y-102019731D01*
X154398776Y-102183597D01*
X154404090Y-102193538D01*
X154529117Y-102345883D01*
X154681462Y-102470910D01*
X154758426Y-102512048D01*
X154855268Y-102563812D01*
X154855270Y-102563812D01*
X154855273Y-102563814D01*
X155043868Y-102621024D01*
X155240000Y-102640341D01*
X155436132Y-102621024D01*
X155624727Y-102563814D01*
X155798538Y-102470910D01*
X155950883Y-102345883D01*
X156075910Y-102193538D01*
X156168814Y-102019727D01*
X156226024Y-101831132D01*
X156245341Y-101635000D01*
X156226024Y-101438868D01*
X156168814Y-101250273D01*
X156168812Y-101250270D01*
X156168812Y-101250268D01*
X156117048Y-101153426D01*
X156075910Y-101076462D01*
X155950883Y-100924117D01*
X155798538Y-100799090D01*
X155788597Y-100793776D01*
X155624731Y-100706187D01*
X155436133Y-100648976D01*
X155240000Y-100629659D01*
X155043866Y-100648976D01*
X154855268Y-100706187D01*
X154681463Y-100799089D01*
X154529117Y-100924117D01*
X154404089Y-101076463D01*
X154311187Y-101250268D01*
X154253976Y-101438866D01*
X154234659Y-101635000D01*
X141005341Y-101635000D01*
X140986024Y-101438868D01*
X140928814Y-101250273D01*
X140928812Y-101250270D01*
X140928812Y-101250268D01*
X140877048Y-101153426D01*
X140835910Y-101076462D01*
X140710883Y-100924117D01*
X140558538Y-100799090D01*
X140548597Y-100793776D01*
X140384731Y-100706187D01*
X140196133Y-100648976D01*
X140000000Y-100629659D01*
X139803866Y-100648976D01*
X139615268Y-100706187D01*
X139441463Y-100799089D01*
X139289117Y-100924117D01*
X139164089Y-101076463D01*
X139071187Y-101250268D01*
X139013976Y-101438866D01*
X138994659Y-101635000D01*
X132600500Y-101635000D01*
X132600500Y-99095000D01*
X138994659Y-99095000D01*
X139013976Y-99291133D01*
X139071187Y-99479731D01*
X139106737Y-99546239D01*
X139164090Y-99653538D01*
X139289117Y-99805883D01*
X139441462Y-99930910D01*
X139518426Y-99972048D01*
X139615268Y-100023812D01*
X139615270Y-100023812D01*
X139615273Y-100023814D01*
X139803868Y-100081024D01*
X140000000Y-100100341D01*
X140196132Y-100081024D01*
X140384727Y-100023814D01*
X140558538Y-99930910D01*
X140710883Y-99805883D01*
X140835910Y-99653538D01*
X140928814Y-99479727D01*
X140986024Y-99291132D01*
X141005341Y-99095000D01*
X154234659Y-99095000D01*
X154253976Y-99291133D01*
X154311187Y-99479731D01*
X154346737Y-99546239D01*
X154404090Y-99653538D01*
X154529117Y-99805883D01*
X154681462Y-99930910D01*
X154758426Y-99972048D01*
X154855268Y-100023812D01*
X154855270Y-100023812D01*
X154855273Y-100023814D01*
X155043868Y-100081024D01*
X155240000Y-100100341D01*
X155436132Y-100081024D01*
X155624727Y-100023814D01*
X155798538Y-99930910D01*
X155950883Y-99805883D01*
X156075910Y-99653538D01*
X156168814Y-99479727D01*
X156226024Y-99291132D01*
X156245341Y-99095000D01*
X156226024Y-98898868D01*
X156168814Y-98710273D01*
X156168812Y-98710270D01*
X156168812Y-98710268D01*
X156111975Y-98603935D01*
X156075910Y-98536462D01*
X155950883Y-98384117D01*
X155798538Y-98259090D01*
X155788597Y-98253776D01*
X155624731Y-98166187D01*
X155436133Y-98108976D01*
X155240000Y-98089659D01*
X155043866Y-98108976D01*
X154855268Y-98166187D01*
X154681463Y-98259089D01*
X154529117Y-98384117D01*
X154404089Y-98536463D01*
X154311187Y-98710268D01*
X154253976Y-98898866D01*
X154234659Y-99095000D01*
X141005341Y-99095000D01*
X140986024Y-98898868D01*
X140928814Y-98710273D01*
X140928812Y-98710270D01*
X140928812Y-98710268D01*
X140871975Y-98603935D01*
X140835910Y-98536462D01*
X140710883Y-98384117D01*
X140558538Y-98259090D01*
X140548597Y-98253776D01*
X140384731Y-98166187D01*
X140196133Y-98108976D01*
X140000000Y-98089659D01*
X139803866Y-98108976D01*
X139615268Y-98166187D01*
X139441463Y-98259089D01*
X139289117Y-98384117D01*
X139164089Y-98536463D01*
X139071187Y-98710268D01*
X139013976Y-98898866D01*
X138994659Y-99095000D01*
X132600500Y-99095000D01*
X132600500Y-96555000D01*
X138994659Y-96555000D01*
X139013976Y-96751133D01*
X139071187Y-96939731D01*
X139158776Y-97103597D01*
X139164090Y-97113538D01*
X139289117Y-97265883D01*
X139441462Y-97390910D01*
X139518426Y-97432048D01*
X139615268Y-97483812D01*
X139615270Y-97483812D01*
X139615273Y-97483814D01*
X139803868Y-97541024D01*
X140000000Y-97560341D01*
X140196132Y-97541024D01*
X140384727Y-97483814D01*
X140558538Y-97390910D01*
X140710883Y-97265883D01*
X140835910Y-97113538D01*
X140928814Y-96939727D01*
X140986024Y-96751132D01*
X141005341Y-96555000D01*
X154234659Y-96555000D01*
X154253976Y-96751133D01*
X154311187Y-96939731D01*
X154398776Y-97103597D01*
X154404090Y-97113538D01*
X154529117Y-97265883D01*
X154681462Y-97390910D01*
X154758426Y-97432048D01*
X154855268Y-97483812D01*
X154855270Y-97483812D01*
X154855273Y-97483814D01*
X155043868Y-97541024D01*
X155240000Y-97560341D01*
X155436132Y-97541024D01*
X155624727Y-97483814D01*
X155798538Y-97390910D01*
X155950883Y-97265883D01*
X156075910Y-97113538D01*
X156168814Y-96939727D01*
X156226024Y-96751132D01*
X156245341Y-96555000D01*
X156226024Y-96358868D01*
X156168814Y-96170273D01*
X156168812Y-96170270D01*
X156168812Y-96170268D01*
X156117048Y-96073426D01*
X156075910Y-95996462D01*
X155950883Y-95844117D01*
X155798538Y-95719090D01*
X155788597Y-95713776D01*
X155624731Y-95626187D01*
X155436133Y-95568976D01*
X155240000Y-95549659D01*
X155043866Y-95568976D01*
X154855268Y-95626187D01*
X154681463Y-95719089D01*
X154529117Y-95844117D01*
X154404089Y-95996463D01*
X154311187Y-96170268D01*
X154253976Y-96358866D01*
X154234659Y-96555000D01*
X141005341Y-96555000D01*
X140986024Y-96358868D01*
X140928814Y-96170273D01*
X140928812Y-96170270D01*
X140928812Y-96170268D01*
X140877048Y-96073426D01*
X140835910Y-95996462D01*
X140710883Y-95844117D01*
X140558538Y-95719090D01*
X140548597Y-95713776D01*
X140384731Y-95626187D01*
X140196133Y-95568976D01*
X140000000Y-95549659D01*
X139803866Y-95568976D01*
X139615268Y-95626187D01*
X139441463Y-95719089D01*
X139289117Y-95844117D01*
X139164089Y-95996463D01*
X139071187Y-96170268D01*
X139013976Y-96358866D01*
X138994659Y-96555000D01*
X132600500Y-96555000D01*
X132600500Y-95884413D01*
X132622174Y-95832087D01*
X134439261Y-94015000D01*
X138994659Y-94015000D01*
X139013976Y-94211133D01*
X139071187Y-94399731D01*
X139151601Y-94550172D01*
X139164090Y-94573538D01*
X139289117Y-94725883D01*
X139441462Y-94850910D01*
X139518426Y-94892048D01*
X139615268Y-94943812D01*
X139615270Y-94943812D01*
X139615273Y-94943814D01*
X139803868Y-95001024D01*
X140000000Y-95020341D01*
X140196132Y-95001024D01*
X140384727Y-94943814D01*
X140558538Y-94850910D01*
X140710883Y-94725883D01*
X140835910Y-94573538D01*
X140928814Y-94399727D01*
X140986024Y-94211132D01*
X141005341Y-94015000D01*
X140986024Y-93818868D01*
X140928814Y-93630273D01*
X140928812Y-93630270D01*
X140928812Y-93630268D01*
X140877048Y-93533426D01*
X140835910Y-93456462D01*
X140710883Y-93304117D01*
X140558538Y-93179090D01*
X140548597Y-93173776D01*
X140384731Y-93086187D01*
X140196133Y-93028976D01*
X140000000Y-93009659D01*
X139803866Y-93028976D01*
X139615268Y-93086187D01*
X139441463Y-93179089D01*
X139289117Y-93304117D01*
X139164089Y-93456463D01*
X139071187Y-93630268D01*
X139013976Y-93818866D01*
X138994659Y-94015000D01*
X134439261Y-94015000D01*
X136707087Y-91747174D01*
X136759413Y-91725500D01*
X138925500Y-91725500D01*
X138977826Y-91747174D01*
X138999500Y-91799500D01*
X138999500Y-92339820D01*
X139008233Y-92383722D01*
X139041496Y-92433504D01*
X139091278Y-92466767D01*
X139135180Y-92475500D01*
X139135181Y-92475500D01*
X140864819Y-92475500D01*
X140864820Y-92475500D01*
X140908722Y-92466767D01*
X140958504Y-92433504D01*
X140991767Y-92383722D01*
X141000500Y-92339820D01*
X154239500Y-92339820D01*
X154248233Y-92383722D01*
X154281496Y-92433504D01*
X154331278Y-92466767D01*
X154375180Y-92475500D01*
X154375181Y-92475500D01*
X156104819Y-92475500D01*
X156104820Y-92475500D01*
X156148722Y-92466767D01*
X156198504Y-92433504D01*
X156231767Y-92383722D01*
X156240500Y-92339820D01*
X156240500Y-90610180D01*
X156231767Y-90566278D01*
X156198504Y-90516496D01*
X156148722Y-90483233D01*
X156104820Y-90474500D01*
X154375180Y-90474500D01*
X154353229Y-90478866D01*
X154331277Y-90483233D01*
X154281496Y-90516495D01*
X154281495Y-90516496D01*
X154248233Y-90566277D01*
X154248233Y-90566278D01*
X154239500Y-90610180D01*
X154239500Y-92339820D01*
X141000500Y-92339820D01*
X141000500Y-91799500D01*
X141022174Y-91747174D01*
X141074500Y-91725500D01*
X142524827Y-91725500D01*
X142524828Y-91725500D01*
X142616897Y-91687364D01*
X145369260Y-88935000D01*
X154234659Y-88935000D01*
X154253976Y-89131133D01*
X154311187Y-89319731D01*
X154398776Y-89483597D01*
X154404090Y-89493538D01*
X154529117Y-89645883D01*
X154681462Y-89770910D01*
X154758426Y-89812048D01*
X154855268Y-89863812D01*
X154855270Y-89863812D01*
X154855273Y-89863814D01*
X155043868Y-89921024D01*
X155240000Y-89940341D01*
X155436132Y-89921024D01*
X155624727Y-89863814D01*
X155798538Y-89770910D01*
X155950883Y-89645883D01*
X156075910Y-89493538D01*
X156168814Y-89319727D01*
X156226024Y-89131132D01*
X156245341Y-88935000D01*
X156226024Y-88738868D01*
X156168814Y-88550273D01*
X156168812Y-88550270D01*
X156168812Y-88550268D01*
X156115484Y-88450500D01*
X156075910Y-88376462D01*
X155950883Y-88224117D01*
X155798538Y-88099090D01*
X155788597Y-88093776D01*
X155624731Y-88006187D01*
X155436133Y-87948976D01*
X155240000Y-87929659D01*
X155043866Y-87948976D01*
X154855268Y-88006187D01*
X154681463Y-88099089D01*
X154529117Y-88224117D01*
X154404089Y-88376463D01*
X154311187Y-88550268D01*
X154253976Y-88738866D01*
X154234659Y-88935000D01*
X145369260Y-88935000D01*
X147909259Y-86395000D01*
X154234659Y-86395000D01*
X154253976Y-86591133D01*
X154311187Y-86779731D01*
X154398776Y-86943597D01*
X154404090Y-86953538D01*
X154529117Y-87105883D01*
X154681462Y-87230910D01*
X154758426Y-87272048D01*
X154855268Y-87323812D01*
X154855270Y-87323812D01*
X154855273Y-87323814D01*
X155043868Y-87381024D01*
X155240000Y-87400341D01*
X155436132Y-87381024D01*
X155624727Y-87323814D01*
X155798538Y-87230910D01*
X155950883Y-87105883D01*
X156075910Y-86953538D01*
X156168814Y-86779727D01*
X156226024Y-86591132D01*
X156245341Y-86395000D01*
X156226024Y-86198868D01*
X156168814Y-86010273D01*
X156168812Y-86010270D01*
X156168812Y-86010268D01*
X156103560Y-85888191D01*
X156075910Y-85836462D01*
X155950883Y-85684117D01*
X155798538Y-85559090D01*
X155774166Y-85546063D01*
X155624731Y-85466187D01*
X155436133Y-85408976D01*
X155240000Y-85389659D01*
X155043866Y-85408976D01*
X154855268Y-85466187D01*
X154681463Y-85559089D01*
X154529117Y-85684117D01*
X154404089Y-85836463D01*
X154311187Y-86010268D01*
X154253976Y-86198866D01*
X154234659Y-86395000D01*
X147909259Y-86395000D01*
X148032086Y-86272173D01*
X148084412Y-86250500D01*
X148214772Y-86250500D01*
X148339069Y-86214004D01*
X148448049Y-86143967D01*
X148532882Y-86046063D01*
X148586697Y-85928226D01*
X148605133Y-85800000D01*
X148586697Y-85671774D01*
X148532882Y-85553937D01*
X148448049Y-85456033D01*
X148344769Y-85389659D01*
X148339068Y-85385995D01*
X148214772Y-85349500D01*
X148085228Y-85349500D01*
X147960931Y-85385995D01*
X147851954Y-85456031D01*
X147851950Y-85456034D01*
X147767119Y-85553935D01*
X147713302Y-85671776D01*
X147694867Y-85800000D01*
X147702275Y-85851526D01*
X147688268Y-85906404D01*
X147681354Y-85914383D01*
X142392913Y-91202826D01*
X142340587Y-91224500D01*
X141074500Y-91224500D01*
X141022174Y-91202826D01*
X141000500Y-91150500D01*
X141000500Y-90610180D01*
X140991767Y-90566278D01*
X140958504Y-90516496D01*
X140908722Y-90483233D01*
X140864820Y-90474500D01*
X139135180Y-90474500D01*
X139113229Y-90478866D01*
X139091277Y-90483233D01*
X139041496Y-90516495D01*
X139041495Y-90516496D01*
X139008233Y-90566277D01*
X138999500Y-90610180D01*
X138999500Y-91150500D01*
X138977826Y-91202826D01*
X138925500Y-91224500D01*
X136759413Y-91224500D01*
X136707087Y-91202826D01*
X134439261Y-88935000D01*
X138994659Y-88935000D01*
X139013976Y-89131133D01*
X139071187Y-89319731D01*
X139158776Y-89483597D01*
X139164090Y-89493538D01*
X139289117Y-89645883D01*
X139441462Y-89770910D01*
X139518426Y-89812048D01*
X139615268Y-89863812D01*
X139615270Y-89863812D01*
X139615273Y-89863814D01*
X139803868Y-89921024D01*
X140000000Y-89940341D01*
X140196132Y-89921024D01*
X140384727Y-89863814D01*
X140558538Y-89770910D01*
X140710883Y-89645883D01*
X140835910Y-89493538D01*
X140928814Y-89319727D01*
X140986024Y-89131132D01*
X141005341Y-88935000D01*
X140986024Y-88738868D01*
X140928814Y-88550273D01*
X140928812Y-88550270D01*
X140928812Y-88550268D01*
X140875484Y-88450500D01*
X140835910Y-88376462D01*
X140710883Y-88224117D01*
X140558538Y-88099090D01*
X140548597Y-88093776D01*
X140384731Y-88006187D01*
X140196133Y-87948976D01*
X140000000Y-87929659D01*
X139803866Y-87948976D01*
X139615268Y-88006187D01*
X139441463Y-88099089D01*
X139289117Y-88224117D01*
X139164089Y-88376463D01*
X139071187Y-88550268D01*
X139013976Y-88738866D01*
X138994659Y-88935000D01*
X134439261Y-88935000D01*
X132972174Y-87467913D01*
X132950500Y-87415587D01*
X132950500Y-86395000D01*
X138994659Y-86395000D01*
X139013976Y-86591133D01*
X139071187Y-86779731D01*
X139158776Y-86943597D01*
X139164090Y-86953538D01*
X139289117Y-87105883D01*
X139441462Y-87230910D01*
X139518426Y-87272048D01*
X139615268Y-87323812D01*
X139615270Y-87323812D01*
X139615273Y-87323814D01*
X139803868Y-87381024D01*
X140000000Y-87400341D01*
X140196132Y-87381024D01*
X140384727Y-87323814D01*
X140558538Y-87230910D01*
X140710883Y-87105883D01*
X140835910Y-86953538D01*
X140928814Y-86779727D01*
X140986024Y-86591132D01*
X141005341Y-86395000D01*
X140986024Y-86198868D01*
X140928814Y-86010273D01*
X140928812Y-86010270D01*
X140928812Y-86010268D01*
X140863560Y-85888191D01*
X140835910Y-85836462D01*
X140710883Y-85684117D01*
X140558538Y-85559090D01*
X140534166Y-85546063D01*
X140384731Y-85466187D01*
X140196133Y-85408976D01*
X140000000Y-85389659D01*
X139803866Y-85408976D01*
X139615268Y-85466187D01*
X139441463Y-85559089D01*
X139289117Y-85684117D01*
X139164089Y-85836463D01*
X139071187Y-86010268D01*
X139013976Y-86198866D01*
X138994659Y-86395000D01*
X132950500Y-86395000D01*
X132950500Y-83855000D01*
X138994659Y-83855000D01*
X139013976Y-84051133D01*
X139071187Y-84239731D01*
X139158776Y-84403597D01*
X139164090Y-84413538D01*
X139289117Y-84565883D01*
X139441462Y-84690910D01*
X139518426Y-84732048D01*
X139615268Y-84783812D01*
X139615270Y-84783812D01*
X139615273Y-84783814D01*
X139803868Y-84841024D01*
X140000000Y-84860341D01*
X140196132Y-84841024D01*
X140384727Y-84783814D01*
X140558538Y-84690910D01*
X140710883Y-84565883D01*
X140835910Y-84413538D01*
X140928814Y-84239727D01*
X140986024Y-84051132D01*
X141005341Y-83855000D01*
X154234659Y-83855000D01*
X154253976Y-84051133D01*
X154311187Y-84239731D01*
X154398776Y-84403597D01*
X154404090Y-84413538D01*
X154529117Y-84565883D01*
X154681462Y-84690910D01*
X154758426Y-84732048D01*
X154855268Y-84783812D01*
X154855270Y-84783812D01*
X154855273Y-84783814D01*
X155043868Y-84841024D01*
X155240000Y-84860341D01*
X155436132Y-84841024D01*
X155624727Y-84783814D01*
X155798538Y-84690910D01*
X155950883Y-84565883D01*
X156075910Y-84413538D01*
X156168814Y-84239727D01*
X156226024Y-84051132D01*
X156245341Y-83855000D01*
X156226024Y-83658868D01*
X156168814Y-83470273D01*
X156168812Y-83470270D01*
X156168812Y-83470268D01*
X156117048Y-83373426D01*
X156075910Y-83296462D01*
X155950883Y-83144117D01*
X155798538Y-83019090D01*
X155788597Y-83013776D01*
X155624731Y-82926187D01*
X155436133Y-82868976D01*
X155240000Y-82849659D01*
X155043866Y-82868976D01*
X154855268Y-82926187D01*
X154681463Y-83019089D01*
X154529117Y-83144117D01*
X154404089Y-83296463D01*
X154311187Y-83470268D01*
X154253976Y-83658866D01*
X154234659Y-83855000D01*
X141005341Y-83855000D01*
X140986024Y-83658868D01*
X140928814Y-83470273D01*
X140928812Y-83470270D01*
X140928812Y-83470268D01*
X140877048Y-83373426D01*
X140835910Y-83296462D01*
X140710883Y-83144117D01*
X140558538Y-83019090D01*
X140548597Y-83013776D01*
X140384731Y-82926187D01*
X140196133Y-82868976D01*
X140000000Y-82849659D01*
X139803866Y-82868976D01*
X139615268Y-82926187D01*
X139441463Y-83019089D01*
X139289117Y-83144117D01*
X139164089Y-83296463D01*
X139071187Y-83470268D01*
X139013976Y-83658866D01*
X138994659Y-83855000D01*
X132950500Y-83855000D01*
X132950500Y-81315000D01*
X138994659Y-81315000D01*
X139013976Y-81511133D01*
X139071187Y-81699731D01*
X139158776Y-81863597D01*
X139164090Y-81873538D01*
X139289117Y-82025883D01*
X139441462Y-82150910D01*
X139518426Y-82192048D01*
X139615268Y-82243812D01*
X139615270Y-82243812D01*
X139615273Y-82243814D01*
X139803868Y-82301024D01*
X140000000Y-82320341D01*
X140196132Y-82301024D01*
X140384727Y-82243814D01*
X140558538Y-82150910D01*
X140710883Y-82025883D01*
X140835910Y-81873538D01*
X140928814Y-81699727D01*
X140986024Y-81511132D01*
X141005341Y-81315000D01*
X154234659Y-81315000D01*
X154253976Y-81511133D01*
X154311187Y-81699731D01*
X154398776Y-81863597D01*
X154404090Y-81873538D01*
X154529117Y-82025883D01*
X154681462Y-82150910D01*
X154758426Y-82192048D01*
X154855268Y-82243812D01*
X154855270Y-82243812D01*
X154855273Y-82243814D01*
X155043868Y-82301024D01*
X155240000Y-82320341D01*
X155436132Y-82301024D01*
X155624727Y-82243814D01*
X155798538Y-82150910D01*
X155950883Y-82025883D01*
X156075910Y-81873538D01*
X156168814Y-81699727D01*
X156226024Y-81511132D01*
X156245341Y-81315000D01*
X156226024Y-81118868D01*
X156168814Y-80930273D01*
X156168812Y-80930270D01*
X156168812Y-80930268D01*
X156117048Y-80833426D01*
X156075910Y-80756462D01*
X155950883Y-80604117D01*
X155798538Y-80479090D01*
X155788597Y-80473776D01*
X155624731Y-80386187D01*
X155436133Y-80328976D01*
X155240000Y-80309659D01*
X155043866Y-80328976D01*
X154855268Y-80386187D01*
X154681463Y-80479089D01*
X154529117Y-80604117D01*
X154404089Y-80756463D01*
X154311187Y-80930268D01*
X154253976Y-81118866D01*
X154234659Y-81315000D01*
X141005341Y-81315000D01*
X140986024Y-81118868D01*
X140928814Y-80930273D01*
X140928812Y-80930270D01*
X140928812Y-80930268D01*
X140877048Y-80833426D01*
X140835910Y-80756462D01*
X140710883Y-80604117D01*
X140558538Y-80479090D01*
X140548597Y-80473776D01*
X140384731Y-80386187D01*
X140196133Y-80328976D01*
X140000000Y-80309659D01*
X139803866Y-80328976D01*
X139615268Y-80386187D01*
X139441463Y-80479089D01*
X139289117Y-80604117D01*
X139164089Y-80756463D01*
X139071187Y-80930268D01*
X139013976Y-81118866D01*
X138994659Y-81315000D01*
X132950500Y-81315000D01*
X132950500Y-78775000D01*
X138994659Y-78775000D01*
X139013976Y-78971133D01*
X139071187Y-79159731D01*
X139092712Y-79200000D01*
X139164090Y-79333538D01*
X139289117Y-79485883D01*
X139441462Y-79610910D01*
X139515530Y-79650500D01*
X139615268Y-79703812D01*
X139615270Y-79703812D01*
X139615273Y-79703814D01*
X139803868Y-79761024D01*
X140000000Y-79780341D01*
X140196132Y-79761024D01*
X140384727Y-79703814D01*
X140558538Y-79610910D01*
X140710883Y-79485883D01*
X140835910Y-79333538D01*
X140928814Y-79159727D01*
X140986024Y-78971132D01*
X141005341Y-78775000D01*
X154234659Y-78775000D01*
X154253976Y-78971133D01*
X154311187Y-79159731D01*
X154332712Y-79200000D01*
X154404090Y-79333538D01*
X154529117Y-79485883D01*
X154681462Y-79610910D01*
X154755530Y-79650500D01*
X154855268Y-79703812D01*
X154855270Y-79703812D01*
X154855273Y-79703814D01*
X155043868Y-79761024D01*
X155240000Y-79780341D01*
X155436132Y-79761024D01*
X155624727Y-79703814D01*
X155798538Y-79610910D01*
X155950883Y-79485883D01*
X156075910Y-79333538D01*
X156168814Y-79159727D01*
X156226024Y-78971132D01*
X156245341Y-78775000D01*
X156226024Y-78578868D01*
X156168814Y-78390273D01*
X156168812Y-78390270D01*
X156168812Y-78390268D01*
X156117048Y-78293426D01*
X156075910Y-78216462D01*
X155950883Y-78064117D01*
X155798538Y-77939090D01*
X155770230Y-77923959D01*
X155624731Y-77846187D01*
X155436133Y-77788976D01*
X155240000Y-77769659D01*
X155043866Y-77788976D01*
X154855268Y-77846187D01*
X154681463Y-77939089D01*
X154529117Y-78064117D01*
X154404089Y-78216463D01*
X154311187Y-78390268D01*
X154253976Y-78578866D01*
X154234659Y-78775000D01*
X141005341Y-78775000D01*
X140986024Y-78578868D01*
X140928814Y-78390273D01*
X140928812Y-78390270D01*
X140928812Y-78390268D01*
X140877048Y-78293426D01*
X140835910Y-78216462D01*
X140710883Y-78064117D01*
X140558538Y-77939090D01*
X140530230Y-77923959D01*
X140384731Y-77846187D01*
X140196133Y-77788976D01*
X140000000Y-77769659D01*
X139803866Y-77788976D01*
X139615268Y-77846187D01*
X139441463Y-77939089D01*
X139289117Y-78064117D01*
X139164089Y-78216463D01*
X139071187Y-78390268D01*
X139013976Y-78578866D01*
X138994659Y-78775000D01*
X132950500Y-78775000D01*
X132950500Y-76235000D01*
X138994659Y-76235000D01*
X139013976Y-76431133D01*
X139071187Y-76619731D01*
X139158776Y-76783597D01*
X139164090Y-76793538D01*
X139289117Y-76945883D01*
X139441462Y-77070910D01*
X139518426Y-77112048D01*
X139615268Y-77163812D01*
X139615270Y-77163812D01*
X139615273Y-77163814D01*
X139803868Y-77221024D01*
X140000000Y-77240341D01*
X140196132Y-77221024D01*
X140384727Y-77163814D01*
X140558538Y-77070910D01*
X140710883Y-76945883D01*
X140835910Y-76793538D01*
X140928814Y-76619727D01*
X140986024Y-76431132D01*
X141005341Y-76235000D01*
X154234659Y-76235000D01*
X154253976Y-76431133D01*
X154311187Y-76619731D01*
X154398776Y-76783597D01*
X154404090Y-76793538D01*
X154529117Y-76945883D01*
X154681462Y-77070910D01*
X154758426Y-77112048D01*
X154855268Y-77163812D01*
X154855270Y-77163812D01*
X154855273Y-77163814D01*
X155043868Y-77221024D01*
X155240000Y-77240341D01*
X155436132Y-77221024D01*
X155624727Y-77163814D01*
X155798538Y-77070910D01*
X155950883Y-76945883D01*
X156075910Y-76793538D01*
X156168814Y-76619727D01*
X156226024Y-76431132D01*
X156245341Y-76235000D01*
X156226024Y-76038868D01*
X156168814Y-75850273D01*
X156168812Y-75850270D01*
X156168812Y-75850268D01*
X156117048Y-75753426D01*
X156075910Y-75676462D01*
X155950883Y-75524117D01*
X155798538Y-75399090D01*
X155788597Y-75393776D01*
X155624731Y-75306187D01*
X155436133Y-75248976D01*
X155240000Y-75229659D01*
X155043866Y-75248976D01*
X154855268Y-75306187D01*
X154681463Y-75399089D01*
X154529117Y-75524117D01*
X154404089Y-75676463D01*
X154311187Y-75850268D01*
X154253976Y-76038866D01*
X154234659Y-76235000D01*
X141005341Y-76235000D01*
X140986024Y-76038868D01*
X140928814Y-75850273D01*
X140928812Y-75850270D01*
X140928812Y-75850268D01*
X140877048Y-75753426D01*
X140835910Y-75676462D01*
X140710883Y-75524117D01*
X140558538Y-75399090D01*
X140548597Y-75393776D01*
X140384731Y-75306187D01*
X140196133Y-75248976D01*
X140000000Y-75229659D01*
X139803866Y-75248976D01*
X139615268Y-75306187D01*
X139441463Y-75399089D01*
X139289117Y-75524117D01*
X139164089Y-75676463D01*
X139071187Y-75850268D01*
X139013976Y-76038866D01*
X138994659Y-76235000D01*
X132950500Y-76235000D01*
X132950500Y-73695000D01*
X138994659Y-73695000D01*
X139013976Y-73891133D01*
X139071187Y-74079731D01*
X139158776Y-74243597D01*
X139164090Y-74253538D01*
X139289117Y-74405883D01*
X139441462Y-74530910D01*
X139477177Y-74550000D01*
X139615268Y-74623812D01*
X139615270Y-74623812D01*
X139615273Y-74623814D01*
X139803868Y-74681024D01*
X140000000Y-74700341D01*
X140196132Y-74681024D01*
X140384727Y-74623814D01*
X140558538Y-74530910D01*
X140710883Y-74405883D01*
X140835910Y-74253538D01*
X140928814Y-74079727D01*
X140986024Y-73891132D01*
X141005341Y-73695000D01*
X154234659Y-73695000D01*
X154253976Y-73891133D01*
X154311187Y-74079731D01*
X154398776Y-74243597D01*
X154404090Y-74253538D01*
X154529117Y-74405883D01*
X154681462Y-74530910D01*
X154717177Y-74550000D01*
X154855268Y-74623812D01*
X154855270Y-74623812D01*
X154855273Y-74623814D01*
X155043868Y-74681024D01*
X155240000Y-74700341D01*
X155436132Y-74681024D01*
X155624727Y-74623814D01*
X155798538Y-74530910D01*
X155950883Y-74405883D01*
X156075910Y-74253538D01*
X156168814Y-74079727D01*
X156226024Y-73891132D01*
X156245341Y-73695000D01*
X156226024Y-73498868D01*
X156168814Y-73310273D01*
X156168812Y-73310270D01*
X156168812Y-73310268D01*
X156117048Y-73213426D01*
X156075910Y-73136462D01*
X155950883Y-72984117D01*
X155798538Y-72859090D01*
X155788597Y-72853776D01*
X155624731Y-72766187D01*
X155436133Y-72708976D01*
X155240000Y-72689659D01*
X155043866Y-72708976D01*
X154855268Y-72766187D01*
X154681463Y-72859089D01*
X154529117Y-72984117D01*
X154404089Y-73136463D01*
X154311187Y-73310268D01*
X154253976Y-73498866D01*
X154234659Y-73695000D01*
X141005341Y-73695000D01*
X140986024Y-73498868D01*
X140928814Y-73310273D01*
X140928812Y-73310270D01*
X140928812Y-73310268D01*
X140877048Y-73213426D01*
X140835910Y-73136462D01*
X140710883Y-72984117D01*
X140558538Y-72859090D01*
X140548597Y-72853776D01*
X140384731Y-72766187D01*
X140196133Y-72708976D01*
X140000000Y-72689659D01*
X139803866Y-72708976D01*
X139615268Y-72766187D01*
X139441463Y-72859089D01*
X139289117Y-72984117D01*
X139164089Y-73136463D01*
X139071187Y-73310268D01*
X139013976Y-73498866D01*
X138994659Y-73695000D01*
X132950500Y-73695000D01*
X132950500Y-71155000D01*
X138994659Y-71155000D01*
X139013976Y-71351133D01*
X139071187Y-71539731D01*
X139158776Y-71703597D01*
X139164090Y-71713538D01*
X139289117Y-71865883D01*
X139441462Y-71990910D01*
X139476079Y-72009413D01*
X139615268Y-72083812D01*
X139615270Y-72083812D01*
X139615273Y-72083814D01*
X139803868Y-72141024D01*
X140000000Y-72160341D01*
X140196132Y-72141024D01*
X140384727Y-72083814D01*
X140558538Y-71990910D01*
X140710883Y-71865883D01*
X140835910Y-71713538D01*
X140928814Y-71539727D01*
X140986024Y-71351132D01*
X141005341Y-71155000D01*
X154234659Y-71155000D01*
X154253976Y-71351133D01*
X154311187Y-71539731D01*
X154398776Y-71703597D01*
X154404090Y-71713538D01*
X154529117Y-71865883D01*
X154681462Y-71990910D01*
X154716079Y-72009413D01*
X154855268Y-72083812D01*
X154855270Y-72083812D01*
X154855273Y-72083814D01*
X155043868Y-72141024D01*
X155240000Y-72160341D01*
X155436132Y-72141024D01*
X155624727Y-72083814D01*
X155798538Y-71990910D01*
X155950883Y-71865883D01*
X156075910Y-71713538D01*
X156168814Y-71539727D01*
X156226024Y-71351132D01*
X156245341Y-71155000D01*
X156226024Y-70958868D01*
X156168814Y-70770273D01*
X156168812Y-70770270D01*
X156168812Y-70770268D01*
X156117048Y-70673426D01*
X156075910Y-70596462D01*
X155950883Y-70444117D01*
X155798538Y-70319090D01*
X155788597Y-70313776D01*
X155624731Y-70226187D01*
X155436133Y-70168976D01*
X155240000Y-70149659D01*
X155043866Y-70168976D01*
X154855268Y-70226187D01*
X154681463Y-70319089D01*
X154529117Y-70444117D01*
X154404089Y-70596463D01*
X154311187Y-70770268D01*
X154253976Y-70958866D01*
X154234659Y-71155000D01*
X141005341Y-71155000D01*
X140986024Y-70958868D01*
X140928814Y-70770273D01*
X140928812Y-70770270D01*
X140928812Y-70770268D01*
X140877048Y-70673426D01*
X140835910Y-70596462D01*
X140710883Y-70444117D01*
X140558538Y-70319090D01*
X140548597Y-70313776D01*
X140384731Y-70226187D01*
X140196133Y-70168976D01*
X140000000Y-70149659D01*
X139803866Y-70168976D01*
X139615268Y-70226187D01*
X139441463Y-70319089D01*
X139289117Y-70444117D01*
X139164089Y-70596463D01*
X139071187Y-70770268D01*
X139013976Y-70958866D01*
X138994659Y-71155000D01*
X132950500Y-71155000D01*
X132950500Y-68615000D01*
X138994659Y-68615000D01*
X139013976Y-68811133D01*
X139071187Y-68999731D01*
X139158776Y-69163597D01*
X139164090Y-69173538D01*
X139289117Y-69325883D01*
X139441462Y-69450910D01*
X139518426Y-69492048D01*
X139615268Y-69543812D01*
X139615270Y-69543812D01*
X139615273Y-69543814D01*
X139803868Y-69601024D01*
X140000000Y-69620341D01*
X140196132Y-69601024D01*
X140384727Y-69543814D01*
X140558538Y-69450910D01*
X140710883Y-69325883D01*
X140835910Y-69173538D01*
X140928814Y-68999727D01*
X140986024Y-68811132D01*
X141005341Y-68615000D01*
X154234659Y-68615000D01*
X154253976Y-68811133D01*
X154311187Y-68999731D01*
X154398776Y-69163597D01*
X154404090Y-69173538D01*
X154529117Y-69325883D01*
X154681462Y-69450910D01*
X154758426Y-69492048D01*
X154855268Y-69543812D01*
X154855270Y-69543812D01*
X154855273Y-69543814D01*
X155043868Y-69601024D01*
X155240000Y-69620341D01*
X155436132Y-69601024D01*
X155624727Y-69543814D01*
X155798538Y-69450910D01*
X155950883Y-69325883D01*
X156075910Y-69173538D01*
X156168814Y-68999727D01*
X156226024Y-68811132D01*
X156245341Y-68615000D01*
X156226024Y-68418868D01*
X156168814Y-68230273D01*
X156168812Y-68230270D01*
X156168812Y-68230268D01*
X156087543Y-68078226D01*
X156075910Y-68056462D01*
X155950883Y-67904117D01*
X155798538Y-67779090D01*
X155788597Y-67773776D01*
X155624731Y-67686187D01*
X155436133Y-67628976D01*
X155240000Y-67609659D01*
X155043866Y-67628976D01*
X154855268Y-67686187D01*
X154681463Y-67779089D01*
X154529117Y-67904117D01*
X154404089Y-68056463D01*
X154311187Y-68230268D01*
X154253976Y-68418866D01*
X154234659Y-68615000D01*
X141005341Y-68615000D01*
X140986024Y-68418868D01*
X140928814Y-68230273D01*
X140928812Y-68230270D01*
X140928812Y-68230268D01*
X140847543Y-68078226D01*
X140835910Y-68056462D01*
X140710883Y-67904117D01*
X140558538Y-67779090D01*
X140548597Y-67773776D01*
X140384731Y-67686187D01*
X140196133Y-67628976D01*
X140000000Y-67609659D01*
X139803866Y-67628976D01*
X139615268Y-67686187D01*
X139441463Y-67779089D01*
X139289117Y-67904117D01*
X139164089Y-68056463D01*
X139071187Y-68230268D01*
X139013976Y-68418866D01*
X138994659Y-68615000D01*
X132950500Y-68615000D01*
X132950500Y-67750172D01*
X132950499Y-67750170D01*
X132912365Y-67658105D01*
X132912363Y-67658102D01*
X132837682Y-67583421D01*
X132837675Y-67583415D01*
X132194081Y-66939820D01*
X138999500Y-66939820D01*
X139008233Y-66983722D01*
X139041496Y-67033504D01*
X139091278Y-67066767D01*
X139135180Y-67075500D01*
X139135181Y-67075500D01*
X140864819Y-67075500D01*
X140864820Y-67075500D01*
X140908722Y-67066767D01*
X140958504Y-67033504D01*
X140991767Y-66983722D01*
X141000500Y-66939820D01*
X154239500Y-66939820D01*
X154248233Y-66983722D01*
X154281496Y-67033504D01*
X154331278Y-67066767D01*
X154375180Y-67075500D01*
X154375181Y-67075500D01*
X156104819Y-67075500D01*
X156104820Y-67075500D01*
X156148722Y-67066767D01*
X156198504Y-67033504D01*
X156231767Y-66983722D01*
X156240500Y-66939820D01*
X156240500Y-65210180D01*
X156231767Y-65166278D01*
X156198504Y-65116496D01*
X156148722Y-65083233D01*
X156104820Y-65074500D01*
X154375180Y-65074500D01*
X154353229Y-65078866D01*
X154331277Y-65083233D01*
X154281496Y-65116495D01*
X154281495Y-65116496D01*
X154248233Y-65166277D01*
X154248233Y-65166278D01*
X154239500Y-65210180D01*
X154239500Y-66939820D01*
X141000500Y-66939820D01*
X141000500Y-65210180D01*
X140991767Y-65166278D01*
X140958504Y-65116496D01*
X140908722Y-65083233D01*
X140864820Y-65074500D01*
X139135180Y-65074500D01*
X139113229Y-65078866D01*
X139091277Y-65083233D01*
X139041496Y-65116495D01*
X139041495Y-65116496D01*
X139008233Y-65166277D01*
X139008233Y-65166278D01*
X138999500Y-65210180D01*
X138999500Y-66939820D01*
X132194081Y-66939820D01*
X132191897Y-66937636D01*
X132191894Y-66937634D01*
X132099828Y-66899500D01*
X130249828Y-66899500D01*
X130150172Y-66899500D01*
X130058105Y-66937634D01*
X130058101Y-66937637D01*
X129717912Y-67277826D01*
X129665586Y-67299500D01*
X129535228Y-67299500D01*
X129410931Y-67335995D01*
X129301954Y-67406031D01*
X129301950Y-67406034D01*
X129217119Y-67503935D01*
X129163302Y-67621776D01*
X129144867Y-67750000D01*
X129163302Y-67878223D01*
X129163302Y-67878224D01*
X129163303Y-67878226D01*
X129217118Y-67996063D01*
X129301951Y-68093967D01*
X129410931Y-68164004D01*
X129535228Y-68200500D01*
X129664772Y-68200500D01*
X129789069Y-68164004D01*
X129898049Y-68093967D01*
X129982882Y-67996063D01*
X130036697Y-67878226D01*
X130055133Y-67750000D01*
X130047723Y-67698471D01*
X130061729Y-67643596D01*
X130068636Y-67635623D01*
X130282087Y-67422174D01*
X130334413Y-67400500D01*
X131915587Y-67400500D01*
X131967913Y-67422174D01*
X132427826Y-67882086D01*
X132449500Y-67934412D01*
X132449500Y-79216587D01*
X132427826Y-79268913D01*
X132375500Y-79290587D01*
X132323174Y-79268913D01*
X131041898Y-77987637D01*
X131041894Y-77987634D01*
X130949828Y-77949500D01*
X129912832Y-77949500D01*
X129860506Y-77927826D01*
X129856906Y-77923959D01*
X129798052Y-77856036D01*
X129798050Y-77856035D01*
X129798049Y-77856033D01*
X129693706Y-77788976D01*
X129689068Y-77785995D01*
X129564772Y-77749500D01*
X129435228Y-77749500D01*
X129310931Y-77785995D01*
X129201954Y-77856031D01*
X129201950Y-77856034D01*
X129117119Y-77953935D01*
X129063302Y-78071776D01*
X129044867Y-78200000D01*
X129063302Y-78328223D01*
X129063302Y-78328224D01*
X129063303Y-78328226D01*
X129117118Y-78446063D01*
X129201951Y-78543967D01*
X129310931Y-78614004D01*
X129435228Y-78650500D01*
X129564772Y-78650500D01*
X129689069Y-78614004D01*
X129798049Y-78543967D01*
X129856906Y-78476040D01*
X129907552Y-78450689D01*
X129912832Y-78450500D01*
X130765587Y-78450500D01*
X130817913Y-78472174D01*
X132427826Y-80082087D01*
X132449500Y-80134413D01*
X132449500Y-87225500D01*
X132427826Y-87277826D01*
X132375500Y-87299500D01*
X129950172Y-87299500D01*
X129858105Y-87337634D01*
X129858101Y-87337637D01*
X129667912Y-87527826D01*
X129615586Y-87549500D01*
X129485228Y-87549500D01*
X129360931Y-87585995D01*
X129251954Y-87656031D01*
X129251950Y-87656034D01*
X129167119Y-87753935D01*
X129113302Y-87871776D01*
X129094867Y-88000000D01*
X129113302Y-88128223D01*
X129113302Y-88128224D01*
X129113303Y-88128226D01*
X129167118Y-88246063D01*
X129251951Y-88343967D01*
X129360931Y-88414004D01*
X129485228Y-88450500D01*
X129614772Y-88450500D01*
X129739069Y-88414004D01*
X129848049Y-88343967D01*
X129932882Y-88246063D01*
X129986697Y-88128226D01*
X130005133Y-88000000D01*
X129997723Y-87948471D01*
X130011729Y-87893596D01*
X130018636Y-87885623D01*
X130082088Y-87822173D01*
X130134413Y-87800500D01*
X132565587Y-87800500D01*
X132617913Y-87822174D01*
X136218413Y-91422674D01*
X136240087Y-91475000D01*
X136218413Y-91527326D01*
X132208103Y-95537636D01*
X129708793Y-98036944D01*
X129656467Y-98058618D01*
X129635620Y-98055621D01*
X129614772Y-98049500D01*
X129485228Y-98049500D01*
X129360931Y-98085995D01*
X129251954Y-98156031D01*
X129251950Y-98156034D01*
X129167119Y-98253935D01*
X129113302Y-98371776D01*
X129094867Y-98500000D01*
X129113302Y-98628223D01*
X129113302Y-98628224D01*
X129113303Y-98628226D01*
X129167118Y-98746063D01*
X129251951Y-98843967D01*
X129360931Y-98914004D01*
X129485228Y-98950500D01*
X129614772Y-98950500D01*
X129739069Y-98914004D01*
X129848049Y-98843967D01*
X129932882Y-98746063D01*
X129986697Y-98628226D01*
X130005133Y-98500000D01*
X130004010Y-98492189D01*
X130018015Y-98437310D01*
X130024923Y-98429336D01*
X131973175Y-96481085D01*
X132025500Y-96459412D01*
X132077826Y-96481086D01*
X132099500Y-96533412D01*
X132099500Y-107015587D01*
X132077826Y-107067913D01*
X131717913Y-107427826D01*
X131665587Y-107449500D01*
X130408448Y-107449500D01*
X130408440Y-107449499D01*
X130399828Y-107449499D01*
X130300173Y-107449499D01*
X130261544Y-107465500D01*
X130208103Y-107487635D01*
X130208102Y-107487637D01*
X129617913Y-108077826D01*
X129565587Y-108099500D01*
X129435228Y-108099500D01*
X129310931Y-108135995D01*
X129201954Y-108206031D01*
X129201950Y-108206034D01*
X129117119Y-108303935D01*
X129063302Y-108421776D01*
X129044867Y-108550000D01*
X121415711Y-108550000D01*
X121410883Y-108544117D01*
X121258538Y-108419090D01*
X121248597Y-108413776D01*
X121084731Y-108326187D01*
X120896133Y-108268976D01*
X120700000Y-108249659D01*
X120503866Y-108268976D01*
X120315268Y-108326187D01*
X120141463Y-108419089D01*
X119989117Y-108544117D01*
X119864089Y-108696463D01*
X119771187Y-108870268D01*
X119713976Y-109058866D01*
X119694659Y-109255000D01*
X118500500Y-109255000D01*
X118500500Y-106715000D01*
X119694659Y-106715000D01*
X119713976Y-106911133D01*
X119771187Y-107099731D01*
X119858776Y-107263597D01*
X119864090Y-107273538D01*
X119989117Y-107425883D01*
X120141462Y-107550910D01*
X120218426Y-107592048D01*
X120315268Y-107643812D01*
X120315270Y-107643812D01*
X120315273Y-107643814D01*
X120503868Y-107701024D01*
X120700000Y-107720341D01*
X120896132Y-107701024D01*
X121084727Y-107643814D01*
X121258538Y-107550910D01*
X121410883Y-107425883D01*
X121535910Y-107273538D01*
X121628814Y-107099727D01*
X121686024Y-106911132D01*
X121705341Y-106715000D01*
X121686024Y-106518868D01*
X121628814Y-106330273D01*
X121628812Y-106330270D01*
X121628812Y-106330268D01*
X121577048Y-106233426D01*
X121535910Y-106156462D01*
X121410883Y-106004117D01*
X121258538Y-105879090D01*
X121248597Y-105873776D01*
X121084731Y-105786187D01*
X120896133Y-105728976D01*
X120700000Y-105709659D01*
X120503866Y-105728976D01*
X120315268Y-105786187D01*
X120141463Y-105879089D01*
X119989117Y-106004117D01*
X119864089Y-106156463D01*
X119771187Y-106330268D01*
X119713976Y-106518866D01*
X119694659Y-106715000D01*
X118500500Y-106715000D01*
X118500500Y-104175000D01*
X119694659Y-104175000D01*
X119713976Y-104371133D01*
X119771187Y-104559731D01*
X119817334Y-104646064D01*
X119864090Y-104733538D01*
X119989117Y-104885883D01*
X120141462Y-105010910D01*
X120218426Y-105052048D01*
X120315268Y-105103812D01*
X120315270Y-105103812D01*
X120315273Y-105103814D01*
X120503868Y-105161024D01*
X120700000Y-105180341D01*
X120896132Y-105161024D01*
X121084727Y-105103814D01*
X121258538Y-105010910D01*
X121410883Y-104885883D01*
X121535910Y-104733538D01*
X121628814Y-104559727D01*
X121686024Y-104371132D01*
X121705341Y-104175000D01*
X121686024Y-103978868D01*
X121628814Y-103790273D01*
X121628812Y-103790270D01*
X121628812Y-103790268D01*
X121577048Y-103693426D01*
X121535910Y-103616462D01*
X121410883Y-103464117D01*
X121258538Y-103339090D01*
X121218919Y-103317913D01*
X121084731Y-103246187D01*
X120896133Y-103188976D01*
X120700000Y-103169659D01*
X120503866Y-103188976D01*
X120315268Y-103246187D01*
X120141463Y-103339089D01*
X119989117Y-103464117D01*
X119864089Y-103616463D01*
X119771187Y-103790268D01*
X119713976Y-103978866D01*
X119694659Y-104175000D01*
X118500500Y-104175000D01*
X118500500Y-101635000D01*
X119694659Y-101635000D01*
X119713976Y-101831133D01*
X119771187Y-102019731D01*
X119858776Y-102183597D01*
X119864090Y-102193538D01*
X119989117Y-102345883D01*
X120141462Y-102470910D01*
X120218426Y-102512048D01*
X120315268Y-102563812D01*
X120315270Y-102563812D01*
X120315273Y-102563814D01*
X120503868Y-102621024D01*
X120700000Y-102640341D01*
X120896132Y-102621024D01*
X121084727Y-102563814D01*
X121258538Y-102470910D01*
X121410883Y-102345883D01*
X121535910Y-102193538D01*
X121628814Y-102019727D01*
X121686024Y-101831132D01*
X121705341Y-101635000D01*
X121686024Y-101438868D01*
X121628814Y-101250273D01*
X121628812Y-101250270D01*
X121628812Y-101250268D01*
X121577048Y-101153426D01*
X121535910Y-101076462D01*
X121410883Y-100924117D01*
X121258538Y-100799090D01*
X121248597Y-100793776D01*
X121084731Y-100706187D01*
X120896133Y-100648976D01*
X120700000Y-100629659D01*
X120503866Y-100648976D01*
X120315268Y-100706187D01*
X120141463Y-100799089D01*
X119989117Y-100924117D01*
X119864089Y-101076463D01*
X119771187Y-101250268D01*
X119713976Y-101438866D01*
X119694659Y-101635000D01*
X118500500Y-101635000D01*
X118500500Y-99095000D01*
X119694659Y-99095000D01*
X119713976Y-99291133D01*
X119771187Y-99479731D01*
X119806737Y-99546239D01*
X119864090Y-99653538D01*
X119989117Y-99805883D01*
X120141462Y-99930910D01*
X120218426Y-99972048D01*
X120315268Y-100023812D01*
X120315270Y-100023812D01*
X120315273Y-100023814D01*
X120503868Y-100081024D01*
X120700000Y-100100341D01*
X120896132Y-100081024D01*
X121084727Y-100023814D01*
X121258538Y-99930910D01*
X121410883Y-99805883D01*
X121535910Y-99653538D01*
X121628814Y-99479727D01*
X121686024Y-99291132D01*
X121705341Y-99095000D01*
X121686024Y-98898868D01*
X121628814Y-98710273D01*
X121628812Y-98710270D01*
X121628812Y-98710268D01*
X121571975Y-98603935D01*
X121535910Y-98536462D01*
X121410883Y-98384117D01*
X121258538Y-98259090D01*
X121248597Y-98253776D01*
X121084731Y-98166187D01*
X120896133Y-98108976D01*
X120700000Y-98089659D01*
X120503866Y-98108976D01*
X120315268Y-98166187D01*
X120141463Y-98259089D01*
X119989117Y-98384117D01*
X119864089Y-98536463D01*
X119771187Y-98710268D01*
X119713976Y-98898866D01*
X119694659Y-99095000D01*
X118500500Y-99095000D01*
X118500500Y-96555000D01*
X119694659Y-96555000D01*
X119713976Y-96751133D01*
X119771187Y-96939731D01*
X119858776Y-97103597D01*
X119864090Y-97113538D01*
X119989117Y-97265883D01*
X120141462Y-97390910D01*
X120218426Y-97432048D01*
X120315268Y-97483812D01*
X120315270Y-97483812D01*
X120315273Y-97483814D01*
X120503868Y-97541024D01*
X120700000Y-97560341D01*
X120896132Y-97541024D01*
X121084727Y-97483814D01*
X121258538Y-97390910D01*
X121410883Y-97265883D01*
X121535910Y-97113538D01*
X121628814Y-96939727D01*
X121686024Y-96751132D01*
X121705341Y-96555000D01*
X121686024Y-96358868D01*
X121628814Y-96170273D01*
X121628812Y-96170270D01*
X121628812Y-96170268D01*
X121577048Y-96073426D01*
X121535910Y-95996462D01*
X121410883Y-95844117D01*
X121258538Y-95719090D01*
X121248597Y-95713776D01*
X121084731Y-95626187D01*
X120896133Y-95568976D01*
X120700000Y-95549659D01*
X120503866Y-95568976D01*
X120315268Y-95626187D01*
X120141463Y-95719089D01*
X119989117Y-95844117D01*
X119864089Y-95996463D01*
X119771187Y-96170268D01*
X119713976Y-96358866D01*
X119694659Y-96555000D01*
X118500500Y-96555000D01*
X118500500Y-94015000D01*
X119694659Y-94015000D01*
X119713976Y-94211133D01*
X119771187Y-94399731D01*
X119851601Y-94550172D01*
X119864090Y-94573538D01*
X119989117Y-94725883D01*
X120141462Y-94850910D01*
X120218426Y-94892048D01*
X120315268Y-94943812D01*
X120315270Y-94943812D01*
X120315273Y-94943814D01*
X120503868Y-95001024D01*
X120700000Y-95020341D01*
X120896132Y-95001024D01*
X121084727Y-94943814D01*
X121258538Y-94850910D01*
X121410883Y-94725883D01*
X121535910Y-94573538D01*
X121628814Y-94399727D01*
X121686024Y-94211132D01*
X121705341Y-94015000D01*
X121686024Y-93818868D01*
X121628814Y-93630273D01*
X121628812Y-93630270D01*
X121628812Y-93630268D01*
X121577048Y-93533426D01*
X121535910Y-93456462D01*
X121410883Y-93304117D01*
X121258538Y-93179090D01*
X121248597Y-93173776D01*
X121084731Y-93086187D01*
X120896133Y-93028976D01*
X120700000Y-93009659D01*
X120503866Y-93028976D01*
X120315268Y-93086187D01*
X120141463Y-93179089D01*
X119989117Y-93304117D01*
X119864089Y-93456463D01*
X119771187Y-93630268D01*
X119713976Y-93818866D01*
X119694659Y-94015000D01*
X118500500Y-94015000D01*
X118500500Y-92339820D01*
X119699500Y-92339820D01*
X119708233Y-92383722D01*
X119741496Y-92433504D01*
X119791278Y-92466767D01*
X119835180Y-92475500D01*
X119835181Y-92475500D01*
X121564819Y-92475500D01*
X121564820Y-92475500D01*
X121608722Y-92466767D01*
X121658504Y-92433504D01*
X121691767Y-92383722D01*
X121700500Y-92339820D01*
X121700500Y-90610180D01*
X121691767Y-90566278D01*
X121658504Y-90516496D01*
X121608722Y-90483233D01*
X121564820Y-90474500D01*
X119835180Y-90474500D01*
X119813229Y-90478866D01*
X119791277Y-90483233D01*
X119741496Y-90516495D01*
X119741495Y-90516496D01*
X119708233Y-90566277D01*
X119708233Y-90566278D01*
X119699500Y-90610180D01*
X119699500Y-92339820D01*
X118500500Y-92339820D01*
X118500500Y-88935000D01*
X119694659Y-88935000D01*
X119713976Y-89131133D01*
X119771187Y-89319731D01*
X119858776Y-89483597D01*
X119864090Y-89493538D01*
X119989117Y-89645883D01*
X120141462Y-89770910D01*
X120218426Y-89812048D01*
X120315268Y-89863812D01*
X120315270Y-89863812D01*
X120315273Y-89863814D01*
X120503868Y-89921024D01*
X120700000Y-89940341D01*
X120896132Y-89921024D01*
X121084727Y-89863814D01*
X121258538Y-89770910D01*
X121410883Y-89645883D01*
X121535910Y-89493538D01*
X121628814Y-89319727D01*
X121686024Y-89131132D01*
X121705341Y-88935000D01*
X121686024Y-88738868D01*
X121628814Y-88550273D01*
X121628812Y-88550270D01*
X121628812Y-88550268D01*
X121575484Y-88450500D01*
X121535910Y-88376462D01*
X121410883Y-88224117D01*
X121258538Y-88099090D01*
X121248597Y-88093776D01*
X121084731Y-88006187D01*
X120896133Y-87948976D01*
X120700000Y-87929659D01*
X120503866Y-87948976D01*
X120315268Y-88006187D01*
X120141463Y-88099089D01*
X119989117Y-88224117D01*
X119864089Y-88376463D01*
X119771187Y-88550268D01*
X119713976Y-88738866D01*
X119694659Y-88935000D01*
X118500500Y-88935000D01*
X118500500Y-86395000D01*
X119694659Y-86395000D01*
X119713976Y-86591133D01*
X119771187Y-86779731D01*
X119858776Y-86943597D01*
X119864090Y-86953538D01*
X119989117Y-87105883D01*
X120141462Y-87230910D01*
X120218426Y-87272048D01*
X120315268Y-87323812D01*
X120315270Y-87323812D01*
X120315273Y-87323814D01*
X120503868Y-87381024D01*
X120700000Y-87400341D01*
X120896132Y-87381024D01*
X121084727Y-87323814D01*
X121258538Y-87230910D01*
X121410883Y-87105883D01*
X121535910Y-86953538D01*
X121628814Y-86779727D01*
X121686024Y-86591132D01*
X121705341Y-86395000D01*
X121686024Y-86198868D01*
X121628814Y-86010273D01*
X121628812Y-86010270D01*
X121628812Y-86010268D01*
X121563560Y-85888191D01*
X121535910Y-85836462D01*
X121410883Y-85684117D01*
X121258538Y-85559090D01*
X121234166Y-85546063D01*
X121084731Y-85466187D01*
X120896133Y-85408976D01*
X120700000Y-85389659D01*
X120503866Y-85408976D01*
X120315268Y-85466187D01*
X120141463Y-85559089D01*
X119989117Y-85684117D01*
X119864089Y-85836463D01*
X119771187Y-86010268D01*
X119713976Y-86198866D01*
X119694659Y-86395000D01*
X118500500Y-86395000D01*
X118500500Y-83855000D01*
X119694659Y-83855000D01*
X119713976Y-84051133D01*
X119771187Y-84239731D01*
X119858776Y-84403597D01*
X119864090Y-84413538D01*
X119989117Y-84565883D01*
X120141462Y-84690910D01*
X120218426Y-84732048D01*
X120315268Y-84783812D01*
X120315270Y-84783812D01*
X120315273Y-84783814D01*
X120503868Y-84841024D01*
X120700000Y-84860341D01*
X120896132Y-84841024D01*
X121084727Y-84783814D01*
X121258538Y-84690910D01*
X121410883Y-84565883D01*
X121535910Y-84413538D01*
X121628814Y-84239727D01*
X121686024Y-84051132D01*
X121705341Y-83855000D01*
X121686024Y-83658868D01*
X121628814Y-83470273D01*
X121628812Y-83470270D01*
X121628812Y-83470268D01*
X121577048Y-83373426D01*
X121535910Y-83296462D01*
X121410883Y-83144117D01*
X121258538Y-83019090D01*
X121248597Y-83013776D01*
X121084731Y-82926187D01*
X120896133Y-82868976D01*
X120700000Y-82849659D01*
X120503866Y-82868976D01*
X120315268Y-82926187D01*
X120141463Y-83019089D01*
X119989117Y-83144117D01*
X119864089Y-83296463D01*
X119771187Y-83470268D01*
X119713976Y-83658866D01*
X119694659Y-83855000D01*
X118500500Y-83855000D01*
X118500500Y-81315000D01*
X119694659Y-81315000D01*
X119713976Y-81511133D01*
X119771187Y-81699731D01*
X119858776Y-81863597D01*
X119864090Y-81873538D01*
X119989117Y-82025883D01*
X120141462Y-82150910D01*
X120218426Y-82192048D01*
X120315268Y-82243812D01*
X120315270Y-82243812D01*
X120315273Y-82243814D01*
X120503868Y-82301024D01*
X120700000Y-82320341D01*
X120896132Y-82301024D01*
X121084727Y-82243814D01*
X121258538Y-82150910D01*
X121410883Y-82025883D01*
X121535910Y-81873538D01*
X121628814Y-81699727D01*
X121686024Y-81511132D01*
X121705341Y-81315000D01*
X121686024Y-81118868D01*
X121628814Y-80930273D01*
X121628812Y-80930270D01*
X121628812Y-80930268D01*
X121577048Y-80833426D01*
X121535910Y-80756462D01*
X121410883Y-80604117D01*
X121258538Y-80479090D01*
X121248597Y-80473776D01*
X121084731Y-80386187D01*
X120896133Y-80328976D01*
X120700000Y-80309659D01*
X120503866Y-80328976D01*
X120315268Y-80386187D01*
X120141463Y-80479089D01*
X119989117Y-80604117D01*
X119864089Y-80756463D01*
X119771187Y-80930268D01*
X119713976Y-81118866D01*
X119694659Y-81315000D01*
X118500500Y-81315000D01*
X118500500Y-78775000D01*
X119694659Y-78775000D01*
X119713976Y-78971133D01*
X119771187Y-79159731D01*
X119792712Y-79200000D01*
X119864090Y-79333538D01*
X119989117Y-79485883D01*
X120141462Y-79610910D01*
X120215530Y-79650500D01*
X120315268Y-79703812D01*
X120315270Y-79703812D01*
X120315273Y-79703814D01*
X120503868Y-79761024D01*
X120700000Y-79780341D01*
X120896132Y-79761024D01*
X121084727Y-79703814D01*
X121258538Y-79610910D01*
X121410883Y-79485883D01*
X121535910Y-79333538D01*
X121628814Y-79159727D01*
X121686024Y-78971132D01*
X121705341Y-78775000D01*
X121686024Y-78578868D01*
X121628814Y-78390273D01*
X121628812Y-78390270D01*
X121628812Y-78390268D01*
X121577048Y-78293426D01*
X121535910Y-78216462D01*
X121410883Y-78064117D01*
X121258538Y-77939090D01*
X121230230Y-77923959D01*
X121084731Y-77846187D01*
X120896133Y-77788976D01*
X120700000Y-77769659D01*
X120503866Y-77788976D01*
X120315268Y-77846187D01*
X120141463Y-77939089D01*
X119989117Y-78064117D01*
X119864089Y-78216463D01*
X119771187Y-78390268D01*
X119713976Y-78578866D01*
X119694659Y-78775000D01*
X118500500Y-78775000D01*
X118500500Y-76235000D01*
X119694659Y-76235000D01*
X119713976Y-76431133D01*
X119771187Y-76619731D01*
X119858776Y-76783597D01*
X119864090Y-76793538D01*
X119989117Y-76945883D01*
X120141462Y-77070910D01*
X120218426Y-77112048D01*
X120315268Y-77163812D01*
X120315270Y-77163812D01*
X120315273Y-77163814D01*
X120503868Y-77221024D01*
X120700000Y-77240341D01*
X120896132Y-77221024D01*
X121084727Y-77163814D01*
X121258538Y-77070910D01*
X121410883Y-76945883D01*
X121535910Y-76793538D01*
X121628814Y-76619727D01*
X121686024Y-76431132D01*
X121705341Y-76235000D01*
X121686024Y-76038868D01*
X121628814Y-75850273D01*
X121628812Y-75850270D01*
X121628812Y-75850268D01*
X121577048Y-75753426D01*
X121535910Y-75676462D01*
X121410883Y-75524117D01*
X121258538Y-75399090D01*
X121248597Y-75393776D01*
X121084731Y-75306187D01*
X120896133Y-75248976D01*
X120700000Y-75229659D01*
X120503866Y-75248976D01*
X120315268Y-75306187D01*
X120141463Y-75399089D01*
X119989117Y-75524117D01*
X119864089Y-75676463D01*
X119771187Y-75850268D01*
X119713976Y-76038866D01*
X119694659Y-76235000D01*
X118500500Y-76235000D01*
X118500500Y-73695000D01*
X119694659Y-73695000D01*
X119713976Y-73891133D01*
X119771187Y-74079731D01*
X119858776Y-74243597D01*
X119864090Y-74253538D01*
X119989117Y-74405883D01*
X120141462Y-74530910D01*
X120177177Y-74550000D01*
X120315268Y-74623812D01*
X120315270Y-74623812D01*
X120315273Y-74623814D01*
X120503868Y-74681024D01*
X120700000Y-74700341D01*
X120896132Y-74681024D01*
X121084727Y-74623814D01*
X121258538Y-74530910D01*
X121410883Y-74405883D01*
X121535910Y-74253538D01*
X121628814Y-74079727D01*
X121686024Y-73891132D01*
X121705341Y-73695000D01*
X121686024Y-73498868D01*
X121628814Y-73310273D01*
X121628812Y-73310270D01*
X121628812Y-73310268D01*
X121577048Y-73213426D01*
X121535910Y-73136462D01*
X121410883Y-72984117D01*
X121258538Y-72859090D01*
X121248597Y-72853776D01*
X121084731Y-72766187D01*
X120896133Y-72708976D01*
X120700000Y-72689659D01*
X120503866Y-72708976D01*
X120315268Y-72766187D01*
X120141463Y-72859089D01*
X119989117Y-72984117D01*
X119864089Y-73136463D01*
X119771187Y-73310268D01*
X119713976Y-73498866D01*
X119694659Y-73695000D01*
X118500500Y-73695000D01*
X118500500Y-71155000D01*
X119694659Y-71155000D01*
X119713976Y-71351133D01*
X119771187Y-71539731D01*
X119858776Y-71703597D01*
X119864090Y-71713538D01*
X119989117Y-71865883D01*
X120141462Y-71990910D01*
X120176079Y-72009413D01*
X120315268Y-72083812D01*
X120315270Y-72083812D01*
X120315273Y-72083814D01*
X120503868Y-72141024D01*
X120700000Y-72160341D01*
X120896132Y-72141024D01*
X121084727Y-72083814D01*
X121258538Y-71990910D01*
X121410883Y-71865883D01*
X121535910Y-71713538D01*
X121628814Y-71539727D01*
X121686024Y-71351132D01*
X121705341Y-71155000D01*
X121686024Y-70958868D01*
X121628814Y-70770273D01*
X121628812Y-70770270D01*
X121628812Y-70770268D01*
X121577048Y-70673426D01*
X121535910Y-70596462D01*
X121410883Y-70444117D01*
X121258538Y-70319090D01*
X121248597Y-70313776D01*
X121084731Y-70226187D01*
X120896133Y-70168976D01*
X120700000Y-70149659D01*
X120503866Y-70168976D01*
X120315268Y-70226187D01*
X120141463Y-70319089D01*
X119989117Y-70444117D01*
X119864089Y-70596463D01*
X119771187Y-70770268D01*
X119713976Y-70958866D01*
X119694659Y-71155000D01*
X118500500Y-71155000D01*
X118500500Y-68615000D01*
X119694659Y-68615000D01*
X119713976Y-68811133D01*
X119771187Y-68999731D01*
X119858776Y-69163597D01*
X119864090Y-69173538D01*
X119989117Y-69325883D01*
X120141462Y-69450910D01*
X120218426Y-69492048D01*
X120315268Y-69543812D01*
X120315270Y-69543812D01*
X120315273Y-69543814D01*
X120503868Y-69601024D01*
X120700000Y-69620341D01*
X120896132Y-69601024D01*
X121084727Y-69543814D01*
X121258538Y-69450910D01*
X121410883Y-69325883D01*
X121535910Y-69173538D01*
X121628814Y-68999727D01*
X121686024Y-68811132D01*
X121705341Y-68615000D01*
X121686024Y-68418868D01*
X121628814Y-68230273D01*
X121628812Y-68230270D01*
X121628812Y-68230268D01*
X121547543Y-68078226D01*
X121535910Y-68056462D01*
X121410883Y-67904117D01*
X121258538Y-67779090D01*
X121248597Y-67773776D01*
X121084731Y-67686187D01*
X120896133Y-67628976D01*
X120700000Y-67609659D01*
X120503866Y-67628976D01*
X120315268Y-67686187D01*
X120141463Y-67779089D01*
X119989117Y-67904117D01*
X119864089Y-68056463D01*
X119771187Y-68230268D01*
X119713976Y-68418866D01*
X119694659Y-68615000D01*
X118500500Y-68615000D01*
X118500500Y-66939820D01*
X119699500Y-66939820D01*
X119708233Y-66983722D01*
X119741496Y-67033504D01*
X119791278Y-67066767D01*
X119835180Y-67075500D01*
X119835181Y-67075500D01*
X121564819Y-67075500D01*
X121564820Y-67075500D01*
X121608722Y-67066767D01*
X121658504Y-67033504D01*
X121691767Y-66983722D01*
X121700500Y-66939820D01*
X121700500Y-65210180D01*
X121691767Y-65166278D01*
X121658504Y-65116496D01*
X121608722Y-65083233D01*
X121564820Y-65074500D01*
X119835180Y-65074500D01*
X119813229Y-65078866D01*
X119791277Y-65083233D01*
X119741496Y-65116495D01*
X119741495Y-65116496D01*
X119708233Y-65166277D01*
X119708233Y-65166278D01*
X119699500Y-65210180D01*
X119699500Y-66939820D01*
X118500500Y-66939820D01*
X118500500Y-64850000D01*
X157044867Y-64850000D01*
X157063302Y-64978223D01*
X157063302Y-64978224D01*
X157063303Y-64978226D01*
X157117118Y-65096063D01*
X157201951Y-65193967D01*
X157215505Y-65202677D01*
X157247808Y-65249198D01*
X157249500Y-65264931D01*
X157249500Y-109899829D01*
X157287634Y-109991894D01*
X157287637Y-109991898D01*
X161681354Y-114385615D01*
X161703028Y-114437941D01*
X161702275Y-114448471D01*
X161694867Y-114499999D01*
X161713302Y-114628223D01*
X161713302Y-114628224D01*
X161713303Y-114628226D01*
X161767118Y-114746063D01*
X161851951Y-114843967D01*
X161960931Y-114914004D01*
X162085228Y-114950500D01*
X162214772Y-114950500D01*
X162339069Y-114914004D01*
X162448049Y-114843967D01*
X162532882Y-114746063D01*
X162586697Y-114628226D01*
X162605133Y-114500000D01*
X162586697Y-114371774D01*
X162569903Y-114335000D01*
X174394659Y-114335000D01*
X174413976Y-114531133D01*
X174471187Y-114719731D01*
X174537594Y-114843968D01*
X174564090Y-114893538D01*
X174689117Y-115045883D01*
X174841462Y-115170910D01*
X174918278Y-115211969D01*
X175015268Y-115263812D01*
X175015270Y-115263812D01*
X175015273Y-115263814D01*
X175203868Y-115321024D01*
X175400000Y-115340341D01*
X175596132Y-115321024D01*
X175784727Y-115263814D01*
X175958538Y-115170910D01*
X176110883Y-115045883D01*
X176235910Y-114893538D01*
X176328814Y-114719727D01*
X176386024Y-114531132D01*
X176405341Y-114335000D01*
X176386024Y-114138868D01*
X176328814Y-113950273D01*
X176328812Y-113950270D01*
X176328812Y-113950268D01*
X176277048Y-113853426D01*
X176235910Y-113776462D01*
X176110883Y-113624117D01*
X175958538Y-113499090D01*
X175948597Y-113493776D01*
X175784731Y-113406187D01*
X175596133Y-113348976D01*
X175400000Y-113329659D01*
X175203866Y-113348976D01*
X175015268Y-113406187D01*
X174841463Y-113499089D01*
X174689117Y-113624117D01*
X174564089Y-113776463D01*
X174471187Y-113950268D01*
X174413976Y-114138866D01*
X174394659Y-114335000D01*
X162569903Y-114335000D01*
X162532882Y-114253937D01*
X162448049Y-114156033D01*
X162381032Y-114112964D01*
X162339068Y-114085995D01*
X162214772Y-114049500D01*
X162085228Y-114049500D01*
X162084413Y-114049500D01*
X162032087Y-114027826D01*
X159799261Y-111795000D01*
X174394659Y-111795000D01*
X174413976Y-111991133D01*
X174471187Y-112179731D01*
X174558776Y-112343597D01*
X174564090Y-112353538D01*
X174689117Y-112505883D01*
X174841462Y-112630910D01*
X174918426Y-112672048D01*
X175015268Y-112723812D01*
X175015270Y-112723812D01*
X175015273Y-112723814D01*
X175203868Y-112781024D01*
X175400000Y-112800341D01*
X175596132Y-112781024D01*
X175784727Y-112723814D01*
X175958538Y-112630910D01*
X176110883Y-112505883D01*
X176235910Y-112353538D01*
X176328814Y-112179727D01*
X176386024Y-111991132D01*
X176405341Y-111795000D01*
X176386024Y-111598868D01*
X176328814Y-111410273D01*
X176328812Y-111410270D01*
X176328812Y-111410268D01*
X176277048Y-111313426D01*
X176235910Y-111236462D01*
X176110883Y-111084117D01*
X175958538Y-110959090D01*
X175948597Y-110953776D01*
X175784731Y-110866187D01*
X175596133Y-110808976D01*
X175400000Y-110789659D01*
X175203866Y-110808976D01*
X175015268Y-110866187D01*
X174841463Y-110959089D01*
X174689117Y-111084117D01*
X174564089Y-111236463D01*
X174471187Y-111410268D01*
X174413976Y-111598866D01*
X174394659Y-111795000D01*
X159799261Y-111795000D01*
X157772174Y-109767913D01*
X157750500Y-109715587D01*
X157750500Y-104183413D01*
X157772174Y-104131087D01*
X157824500Y-104109413D01*
X157876826Y-104131087D01*
X163181354Y-109435615D01*
X163203028Y-109487941D01*
X163202275Y-109498471D01*
X163194867Y-109549999D01*
X163213302Y-109678223D01*
X163213302Y-109678224D01*
X163213303Y-109678226D01*
X163267118Y-109796063D01*
X163351951Y-109893967D01*
X163460931Y-109964004D01*
X163585228Y-110000500D01*
X163714772Y-110000500D01*
X163839069Y-109964004D01*
X163948049Y-109893967D01*
X164032882Y-109796063D01*
X164086697Y-109678226D01*
X164105133Y-109550000D01*
X164086697Y-109421774D01*
X164032882Y-109303937D01*
X163990478Y-109255000D01*
X174394659Y-109255000D01*
X174413976Y-109451133D01*
X174471187Y-109639731D01*
X174528118Y-109746239D01*
X174564090Y-109813538D01*
X174689117Y-109965883D01*
X174841462Y-110090910D01*
X174918426Y-110132048D01*
X175015268Y-110183812D01*
X175015270Y-110183812D01*
X175015273Y-110183814D01*
X175203868Y-110241024D01*
X175400000Y-110260341D01*
X175596132Y-110241024D01*
X175784727Y-110183814D01*
X175958538Y-110090910D01*
X176110883Y-109965883D01*
X176235910Y-109813538D01*
X176328814Y-109639727D01*
X176386024Y-109451132D01*
X176405341Y-109255000D01*
X176386024Y-109058868D01*
X176328814Y-108870273D01*
X176328812Y-108870270D01*
X176328812Y-108870268D01*
X176277048Y-108773426D01*
X176235910Y-108696462D01*
X176110883Y-108544117D01*
X175958538Y-108419090D01*
X175948597Y-108413776D01*
X175784731Y-108326187D01*
X175596133Y-108268976D01*
X175400000Y-108249659D01*
X175203866Y-108268976D01*
X175015268Y-108326187D01*
X174841463Y-108419089D01*
X174689117Y-108544117D01*
X174564089Y-108696463D01*
X174471187Y-108870268D01*
X174413976Y-109058866D01*
X174394659Y-109255000D01*
X163990478Y-109255000D01*
X163948049Y-109206033D01*
X163881032Y-109162964D01*
X163839068Y-109135995D01*
X163714772Y-109099500D01*
X163585228Y-109099500D01*
X163584413Y-109099500D01*
X163532087Y-109077826D01*
X161169261Y-106715000D01*
X174394659Y-106715000D01*
X174413976Y-106911133D01*
X174471187Y-107099731D01*
X174558776Y-107263597D01*
X174564090Y-107273538D01*
X174689117Y-107425883D01*
X174841462Y-107550910D01*
X174918426Y-107592048D01*
X175015268Y-107643812D01*
X175015270Y-107643812D01*
X175015273Y-107643814D01*
X175203868Y-107701024D01*
X175400000Y-107720341D01*
X175596132Y-107701024D01*
X175784727Y-107643814D01*
X175958538Y-107550910D01*
X176110883Y-107425883D01*
X176235910Y-107273538D01*
X176328814Y-107099727D01*
X176386024Y-106911132D01*
X176405341Y-106715000D01*
X176386024Y-106518868D01*
X176328814Y-106330273D01*
X176328812Y-106330270D01*
X176328812Y-106330268D01*
X176277048Y-106233426D01*
X176235910Y-106156462D01*
X176110883Y-106004117D01*
X175958538Y-105879090D01*
X175948597Y-105873776D01*
X175784731Y-105786187D01*
X175596133Y-105728976D01*
X175400000Y-105709659D01*
X175203866Y-105728976D01*
X175015268Y-105786187D01*
X174841463Y-105879089D01*
X174689117Y-106004117D01*
X174564089Y-106156463D01*
X174471187Y-106330268D01*
X174413976Y-106518866D01*
X174394659Y-106715000D01*
X161169261Y-106715000D01*
X157772174Y-103317913D01*
X157750500Y-103265587D01*
X157750500Y-100433413D01*
X157772174Y-100381087D01*
X157824500Y-100359413D01*
X157876826Y-100381087D01*
X161781354Y-104285615D01*
X161803028Y-104337941D01*
X161802275Y-104348471D01*
X161794867Y-104399999D01*
X161813302Y-104528223D01*
X161813302Y-104528224D01*
X161813303Y-104528226D01*
X161867118Y-104646063D01*
X161951951Y-104743967D01*
X162060931Y-104814004D01*
X162185228Y-104850500D01*
X162314772Y-104850500D01*
X162439069Y-104814004D01*
X162548049Y-104743967D01*
X162632882Y-104646063D01*
X162686697Y-104528226D01*
X162705133Y-104400000D01*
X162686697Y-104271774D01*
X162642501Y-104175000D01*
X174394659Y-104175000D01*
X174413976Y-104371133D01*
X174471187Y-104559731D01*
X174517334Y-104646064D01*
X174564090Y-104733538D01*
X174689117Y-104885883D01*
X174841462Y-105010910D01*
X174918426Y-105052048D01*
X175015268Y-105103812D01*
X175015270Y-105103812D01*
X175015273Y-105103814D01*
X175203868Y-105161024D01*
X175400000Y-105180341D01*
X175596132Y-105161024D01*
X175784727Y-105103814D01*
X175958538Y-105010910D01*
X176110883Y-104885883D01*
X176235910Y-104733538D01*
X176328814Y-104559727D01*
X176386024Y-104371132D01*
X176405341Y-104175000D01*
X176386024Y-103978868D01*
X176328814Y-103790273D01*
X176328812Y-103790270D01*
X176328812Y-103790268D01*
X176277048Y-103693426D01*
X176235910Y-103616462D01*
X176110883Y-103464117D01*
X175958538Y-103339090D01*
X175918919Y-103317913D01*
X175784731Y-103246187D01*
X175596133Y-103188976D01*
X175400000Y-103169659D01*
X175203866Y-103188976D01*
X175015268Y-103246187D01*
X174841463Y-103339089D01*
X174689117Y-103464117D01*
X174564089Y-103616463D01*
X174471187Y-103790268D01*
X174413976Y-103978866D01*
X174394659Y-104175000D01*
X162642501Y-104175000D01*
X162632882Y-104153937D01*
X162548049Y-104056033D01*
X162468268Y-104004761D01*
X162439068Y-103985995D01*
X162314772Y-103949500D01*
X162185228Y-103949500D01*
X162184413Y-103949500D01*
X162132087Y-103927826D01*
X159839261Y-101635000D01*
X174394659Y-101635000D01*
X174413976Y-101831133D01*
X174471187Y-102019731D01*
X174558776Y-102183597D01*
X174564090Y-102193538D01*
X174689117Y-102345883D01*
X174841462Y-102470910D01*
X174918426Y-102512048D01*
X175015268Y-102563812D01*
X175015270Y-102563812D01*
X175015273Y-102563814D01*
X175203868Y-102621024D01*
X175400000Y-102640341D01*
X175596132Y-102621024D01*
X175784727Y-102563814D01*
X175958538Y-102470910D01*
X176110883Y-102345883D01*
X176235910Y-102193538D01*
X176328814Y-102019727D01*
X176386024Y-101831132D01*
X176405341Y-101635000D01*
X176386024Y-101438868D01*
X176328814Y-101250273D01*
X176328812Y-101250270D01*
X176328812Y-101250268D01*
X176277048Y-101153426D01*
X176235910Y-101076462D01*
X176110883Y-100924117D01*
X175958538Y-100799090D01*
X175948597Y-100793776D01*
X175784731Y-100706187D01*
X175596133Y-100648976D01*
X175400000Y-100629659D01*
X175203866Y-100648976D01*
X175015268Y-100706187D01*
X174841463Y-100799089D01*
X174689117Y-100924117D01*
X174564089Y-101076463D01*
X174471187Y-101250268D01*
X174413976Y-101438866D01*
X174394659Y-101635000D01*
X159839261Y-101635000D01*
X157772174Y-99567913D01*
X157750500Y-99515587D01*
X157750500Y-95383412D01*
X157772174Y-95331086D01*
X157824500Y-95309412D01*
X157876826Y-95331086D01*
X161533415Y-98987675D01*
X161533418Y-98987679D01*
X161537636Y-98991897D01*
X161608103Y-99062364D01*
X161646238Y-99078159D01*
X161646239Y-99078160D01*
X161700173Y-99100501D01*
X161808440Y-99100501D01*
X161808448Y-99100500D01*
X163037168Y-99100500D01*
X163089494Y-99122174D01*
X163093094Y-99126041D01*
X163151947Y-99193963D01*
X163151948Y-99193964D01*
X163151951Y-99193967D01*
X163260931Y-99264004D01*
X163385228Y-99300500D01*
X163514772Y-99300500D01*
X163639069Y-99264004D01*
X163748049Y-99193967D01*
X163832882Y-99096063D01*
X163833367Y-99095000D01*
X174394659Y-99095000D01*
X174413976Y-99291133D01*
X174471187Y-99479731D01*
X174506737Y-99546239D01*
X174564090Y-99653538D01*
X174689117Y-99805883D01*
X174841462Y-99930910D01*
X174918426Y-99972048D01*
X175015268Y-100023812D01*
X175015270Y-100023812D01*
X175015273Y-100023814D01*
X175203868Y-100081024D01*
X175400000Y-100100341D01*
X175596132Y-100081024D01*
X175784727Y-100023814D01*
X175958538Y-99930910D01*
X176110883Y-99805883D01*
X176235910Y-99653538D01*
X176328814Y-99479727D01*
X176386024Y-99291132D01*
X176405341Y-99095000D01*
X176386024Y-98898868D01*
X176328814Y-98710273D01*
X176328812Y-98710270D01*
X176328812Y-98710268D01*
X176271975Y-98603935D01*
X176235910Y-98536462D01*
X176110883Y-98384117D01*
X175958538Y-98259090D01*
X175948597Y-98253776D01*
X175784731Y-98166187D01*
X175596133Y-98108976D01*
X175400000Y-98089659D01*
X175203866Y-98108976D01*
X175015268Y-98166187D01*
X174841463Y-98259089D01*
X174689117Y-98384117D01*
X174564089Y-98536463D01*
X174471187Y-98710268D01*
X174413976Y-98898866D01*
X174394659Y-99095000D01*
X163833367Y-99095000D01*
X163886697Y-98978226D01*
X163905133Y-98850000D01*
X163886697Y-98721774D01*
X163832882Y-98603937D01*
X163748049Y-98506033D01*
X163641114Y-98437310D01*
X163639068Y-98435995D01*
X163514772Y-98399500D01*
X163385228Y-98399500D01*
X163260931Y-98435995D01*
X163151954Y-98506031D01*
X163151947Y-98506036D01*
X163093094Y-98573959D01*
X163042448Y-98599311D01*
X163037168Y-98599500D01*
X161884412Y-98599500D01*
X161832086Y-98577826D01*
X159809260Y-96555000D01*
X174394659Y-96555000D01*
X174413976Y-96751133D01*
X174471187Y-96939731D01*
X174558776Y-97103597D01*
X174564090Y-97113538D01*
X174689117Y-97265883D01*
X174841462Y-97390910D01*
X174918426Y-97432048D01*
X175015268Y-97483812D01*
X175015270Y-97483812D01*
X175015273Y-97483814D01*
X175203868Y-97541024D01*
X175400000Y-97560341D01*
X175596132Y-97541024D01*
X175784727Y-97483814D01*
X175958538Y-97390910D01*
X176110883Y-97265883D01*
X176235910Y-97113538D01*
X176328814Y-96939727D01*
X176386024Y-96751132D01*
X176405341Y-96555000D01*
X176386024Y-96358868D01*
X176328814Y-96170273D01*
X176328812Y-96170270D01*
X176328812Y-96170268D01*
X176277048Y-96073426D01*
X176235910Y-95996462D01*
X176110883Y-95844117D01*
X175958538Y-95719090D01*
X175948597Y-95713776D01*
X175784731Y-95626187D01*
X175596133Y-95568976D01*
X175400000Y-95549659D01*
X175203866Y-95568976D01*
X175015268Y-95626187D01*
X174841463Y-95719089D01*
X174689117Y-95844117D01*
X174564089Y-95996463D01*
X174471187Y-96170268D01*
X174413976Y-96358866D01*
X174394659Y-96555000D01*
X159809260Y-96555000D01*
X157772174Y-94517913D01*
X157750500Y-94465587D01*
X157750500Y-91583412D01*
X157772174Y-91531086D01*
X157824500Y-91509412D01*
X157876826Y-91531086D01*
X161533415Y-95187675D01*
X161533418Y-95187679D01*
X161537636Y-95191897D01*
X161608103Y-95262364D01*
X161646238Y-95278159D01*
X161646239Y-95278160D01*
X161700173Y-95300501D01*
X161808440Y-95300501D01*
X161808448Y-95300500D01*
X161937168Y-95300500D01*
X161989494Y-95322174D01*
X161993094Y-95326041D01*
X162051947Y-95393963D01*
X162051948Y-95393964D01*
X162051951Y-95393967D01*
X162160931Y-95464004D01*
X162285228Y-95500500D01*
X162414772Y-95500500D01*
X162539069Y-95464004D01*
X162648049Y-95393967D01*
X162732882Y-95296063D01*
X162786697Y-95178226D01*
X162805133Y-95050000D01*
X162786697Y-94921774D01*
X162732882Y-94803937D01*
X162648049Y-94706033D01*
X162581032Y-94662964D01*
X162539068Y-94635995D01*
X162414772Y-94599500D01*
X162285228Y-94599500D01*
X162160931Y-94635995D01*
X162051954Y-94706031D01*
X162051947Y-94706036D01*
X161993094Y-94773959D01*
X161942448Y-94799311D01*
X161937168Y-94799500D01*
X161884412Y-94799500D01*
X161832086Y-94777826D01*
X161069260Y-94015000D01*
X174394659Y-94015000D01*
X174413976Y-94211133D01*
X174471187Y-94399731D01*
X174551601Y-94550172D01*
X174564090Y-94573538D01*
X174689117Y-94725883D01*
X174841462Y-94850910D01*
X174918426Y-94892048D01*
X175015268Y-94943812D01*
X175015270Y-94943812D01*
X175015273Y-94943814D01*
X175203868Y-95001024D01*
X175400000Y-95020341D01*
X175596132Y-95001024D01*
X175784727Y-94943814D01*
X175958538Y-94850910D01*
X176110883Y-94725883D01*
X176235910Y-94573538D01*
X176328814Y-94399727D01*
X176386024Y-94211132D01*
X176405341Y-94015000D01*
X176386024Y-93818868D01*
X176328814Y-93630273D01*
X176328812Y-93630270D01*
X176328812Y-93630268D01*
X176277048Y-93533426D01*
X176235910Y-93456462D01*
X176110883Y-93304117D01*
X175958538Y-93179090D01*
X175948597Y-93173776D01*
X175784731Y-93086187D01*
X175596133Y-93028976D01*
X175400000Y-93009659D01*
X175203866Y-93028976D01*
X175015268Y-93086187D01*
X174841463Y-93179089D01*
X174689117Y-93304117D01*
X174564089Y-93456463D01*
X174471187Y-93630268D01*
X174413976Y-93818866D01*
X174394659Y-94015000D01*
X161069260Y-94015000D01*
X159394081Y-92339820D01*
X174399500Y-92339820D01*
X174408233Y-92383722D01*
X174441496Y-92433504D01*
X174491278Y-92466767D01*
X174535180Y-92475500D01*
X174535181Y-92475500D01*
X176264819Y-92475500D01*
X176264820Y-92475500D01*
X176308722Y-92466767D01*
X176358504Y-92433504D01*
X176391767Y-92383722D01*
X176400500Y-92339820D01*
X176400500Y-90610180D01*
X176391767Y-90566278D01*
X176358504Y-90516496D01*
X176308722Y-90483233D01*
X176264820Y-90474500D01*
X174535180Y-90474500D01*
X174513229Y-90478866D01*
X174491277Y-90483233D01*
X174441496Y-90516495D01*
X174441495Y-90516496D01*
X174408233Y-90566277D01*
X174408233Y-90566278D01*
X174399500Y-90610180D01*
X174399500Y-92339820D01*
X159394081Y-92339820D01*
X157772174Y-90717913D01*
X157750500Y-90665587D01*
X157750500Y-87074500D01*
X157772174Y-87022174D01*
X157824500Y-87000500D01*
X161315587Y-87000500D01*
X161367913Y-87022174D01*
X163381354Y-89035614D01*
X163403028Y-89087940D01*
X163402275Y-89098470D01*
X163394867Y-89149999D01*
X163413302Y-89278223D01*
X163413302Y-89278224D01*
X163413303Y-89278226D01*
X163467118Y-89396063D01*
X163551951Y-89493967D01*
X163660931Y-89564004D01*
X163785228Y-89600500D01*
X163914772Y-89600500D01*
X164039069Y-89564004D01*
X164148049Y-89493967D01*
X164232882Y-89396063D01*
X164286697Y-89278226D01*
X164305133Y-89150000D01*
X164286697Y-89021774D01*
X164247068Y-88935000D01*
X174394659Y-88935000D01*
X174413976Y-89131133D01*
X174471187Y-89319731D01*
X174558776Y-89483597D01*
X174564090Y-89493538D01*
X174689117Y-89645883D01*
X174841462Y-89770910D01*
X174918426Y-89812048D01*
X175015268Y-89863812D01*
X175015270Y-89863812D01*
X175015273Y-89863814D01*
X175203868Y-89921024D01*
X175400000Y-89940341D01*
X175596132Y-89921024D01*
X175784727Y-89863814D01*
X175958538Y-89770910D01*
X176110883Y-89645883D01*
X176235910Y-89493538D01*
X176328814Y-89319727D01*
X176386024Y-89131132D01*
X176405341Y-88935000D01*
X176386024Y-88738868D01*
X176328814Y-88550273D01*
X176328812Y-88550270D01*
X176328812Y-88550268D01*
X176275484Y-88450500D01*
X176235910Y-88376462D01*
X176110883Y-88224117D01*
X175958538Y-88099090D01*
X175948597Y-88093776D01*
X175784731Y-88006187D01*
X175596133Y-87948976D01*
X175400000Y-87929659D01*
X175203866Y-87948976D01*
X175015268Y-88006187D01*
X174841463Y-88099089D01*
X174689117Y-88224117D01*
X174564089Y-88376463D01*
X174471187Y-88550268D01*
X174413976Y-88738866D01*
X174394659Y-88935000D01*
X164247068Y-88935000D01*
X164232882Y-88903937D01*
X164148049Y-88806033D01*
X164043535Y-88738866D01*
X164039068Y-88735995D01*
X163914772Y-88699500D01*
X163785228Y-88699500D01*
X163784412Y-88699500D01*
X163732086Y-88677826D01*
X161591897Y-86537636D01*
X161591894Y-86537634D01*
X161499828Y-86499500D01*
X157824500Y-86499500D01*
X157772174Y-86477826D01*
X157750500Y-86425500D01*
X157750500Y-86395000D01*
X174394659Y-86395000D01*
X174413976Y-86591133D01*
X174471187Y-86779731D01*
X174558776Y-86943597D01*
X174564090Y-86953538D01*
X174689117Y-87105883D01*
X174841462Y-87230910D01*
X174918426Y-87272048D01*
X175015268Y-87323812D01*
X175015270Y-87323812D01*
X175015273Y-87323814D01*
X175203868Y-87381024D01*
X175400000Y-87400341D01*
X175596132Y-87381024D01*
X175784727Y-87323814D01*
X175958538Y-87230910D01*
X176110883Y-87105883D01*
X176235910Y-86953538D01*
X176328814Y-86779727D01*
X176386024Y-86591132D01*
X176405341Y-86395000D01*
X176386024Y-86198868D01*
X176328814Y-86010273D01*
X176328812Y-86010270D01*
X176328812Y-86010268D01*
X176263560Y-85888191D01*
X176235910Y-85836462D01*
X176110883Y-85684117D01*
X175958538Y-85559090D01*
X175934166Y-85546063D01*
X175784731Y-85466187D01*
X175596133Y-85408976D01*
X175400000Y-85389659D01*
X175203866Y-85408976D01*
X175015268Y-85466187D01*
X174841463Y-85559089D01*
X174689117Y-85684117D01*
X174564089Y-85836463D01*
X174471187Y-86010268D01*
X174413976Y-86198866D01*
X174394659Y-86395000D01*
X157750500Y-86395000D01*
X157750500Y-83274500D01*
X157772174Y-83222174D01*
X157824500Y-83200500D01*
X159965587Y-83200500D01*
X160017913Y-83222174D01*
X161981354Y-85185614D01*
X162003028Y-85237940D01*
X162002275Y-85248470D01*
X161994867Y-85299999D01*
X162013302Y-85428223D01*
X162013302Y-85428224D01*
X162013303Y-85428226D01*
X162067118Y-85546063D01*
X162151951Y-85643967D01*
X162260931Y-85714004D01*
X162385228Y-85750500D01*
X162514772Y-85750500D01*
X162639069Y-85714004D01*
X162748049Y-85643967D01*
X162832882Y-85546063D01*
X162886697Y-85428226D01*
X162905133Y-85300000D01*
X162886697Y-85171774D01*
X162832882Y-85053937D01*
X162748049Y-84956033D01*
X162681032Y-84912964D01*
X162639068Y-84885995D01*
X162514772Y-84849500D01*
X162385228Y-84849500D01*
X162384412Y-84849500D01*
X162332086Y-84827826D01*
X161359260Y-83855000D01*
X174394659Y-83855000D01*
X174413976Y-84051133D01*
X174471187Y-84239731D01*
X174558776Y-84403597D01*
X174564090Y-84413538D01*
X174689117Y-84565883D01*
X174841462Y-84690910D01*
X174918426Y-84732048D01*
X175015268Y-84783812D01*
X175015270Y-84783812D01*
X175015273Y-84783814D01*
X175203868Y-84841024D01*
X175400000Y-84860341D01*
X175596132Y-84841024D01*
X175784727Y-84783814D01*
X175958538Y-84690910D01*
X176110883Y-84565883D01*
X176235910Y-84413538D01*
X176328814Y-84239727D01*
X176386024Y-84051132D01*
X176405341Y-83855000D01*
X176386024Y-83658868D01*
X176328814Y-83470273D01*
X176328812Y-83470270D01*
X176328812Y-83470268D01*
X176277048Y-83373426D01*
X176235910Y-83296462D01*
X176110883Y-83144117D01*
X175958538Y-83019090D01*
X175948597Y-83013776D01*
X175784731Y-82926187D01*
X175596133Y-82868976D01*
X175400000Y-82849659D01*
X175203866Y-82868976D01*
X175015268Y-82926187D01*
X174841463Y-83019089D01*
X174689117Y-83144117D01*
X174564089Y-83296463D01*
X174471187Y-83470268D01*
X174413976Y-83658866D01*
X174394659Y-83855000D01*
X161359260Y-83855000D01*
X160241897Y-82737636D01*
X160241894Y-82737634D01*
X160149828Y-82699500D01*
X157824500Y-82699500D01*
X157772174Y-82677826D01*
X157750500Y-82625500D01*
X157750500Y-81315000D01*
X174394659Y-81315000D01*
X174413976Y-81511133D01*
X174471187Y-81699731D01*
X174558776Y-81863597D01*
X174564090Y-81873538D01*
X174689117Y-82025883D01*
X174841462Y-82150910D01*
X174918426Y-82192048D01*
X175015268Y-82243812D01*
X175015270Y-82243812D01*
X175015273Y-82243814D01*
X175203868Y-82301024D01*
X175400000Y-82320341D01*
X175596132Y-82301024D01*
X175784727Y-82243814D01*
X175958538Y-82150910D01*
X176110883Y-82025883D01*
X176235910Y-81873538D01*
X176328814Y-81699727D01*
X176386024Y-81511132D01*
X176405341Y-81315000D01*
X176386024Y-81118868D01*
X176328814Y-80930273D01*
X176328812Y-80930270D01*
X176328812Y-80930268D01*
X176277048Y-80833426D01*
X176235910Y-80756462D01*
X176110883Y-80604117D01*
X175958538Y-80479090D01*
X175948597Y-80473776D01*
X175784731Y-80386187D01*
X175596133Y-80328976D01*
X175400000Y-80309659D01*
X175203866Y-80328976D01*
X175015268Y-80386187D01*
X174841463Y-80479089D01*
X174689117Y-80604117D01*
X174564089Y-80756463D01*
X174471187Y-80930268D01*
X174413976Y-81118866D01*
X174394659Y-81315000D01*
X157750500Y-81315000D01*
X157750500Y-77333412D01*
X157772174Y-77281086D01*
X157824500Y-77259412D01*
X157876826Y-77281086D01*
X159933415Y-79337675D01*
X159933418Y-79337679D01*
X159937636Y-79341897D01*
X160008103Y-79412364D01*
X160100172Y-79450500D01*
X163187168Y-79450500D01*
X163239494Y-79472174D01*
X163243094Y-79476041D01*
X163301947Y-79543963D01*
X163301948Y-79543964D01*
X163301951Y-79543967D01*
X163410931Y-79614004D01*
X163535228Y-79650500D01*
X163664772Y-79650500D01*
X163789069Y-79614004D01*
X163898049Y-79543967D01*
X163982882Y-79446063D01*
X164036697Y-79328226D01*
X164055133Y-79200000D01*
X164036697Y-79071774D01*
X163982882Y-78953937D01*
X163898049Y-78856033D01*
X163831032Y-78812964D01*
X163789068Y-78785995D01*
X163751621Y-78775000D01*
X174394659Y-78775000D01*
X174413976Y-78971133D01*
X174471187Y-79159731D01*
X174492712Y-79200000D01*
X174564090Y-79333538D01*
X174689117Y-79485883D01*
X174841462Y-79610910D01*
X174915530Y-79650500D01*
X175015268Y-79703812D01*
X175015270Y-79703812D01*
X175015273Y-79703814D01*
X175203868Y-79761024D01*
X175400000Y-79780341D01*
X175596132Y-79761024D01*
X175784727Y-79703814D01*
X175958538Y-79610910D01*
X176110883Y-79485883D01*
X176235910Y-79333538D01*
X176328814Y-79159727D01*
X176386024Y-78971132D01*
X176405341Y-78775000D01*
X176386024Y-78578868D01*
X176328814Y-78390273D01*
X176328812Y-78390270D01*
X176328812Y-78390268D01*
X176277048Y-78293426D01*
X176235910Y-78216462D01*
X176110883Y-78064117D01*
X175958538Y-77939090D01*
X175930230Y-77923959D01*
X175784731Y-77846187D01*
X175596133Y-77788976D01*
X175400000Y-77769659D01*
X175203866Y-77788976D01*
X175015268Y-77846187D01*
X174841463Y-77939089D01*
X174689117Y-78064117D01*
X174564089Y-78216463D01*
X174471187Y-78390268D01*
X174413976Y-78578866D01*
X174394659Y-78775000D01*
X163751621Y-78775000D01*
X163664772Y-78749500D01*
X163535228Y-78749500D01*
X163410931Y-78785995D01*
X163301954Y-78856031D01*
X163301947Y-78856036D01*
X163243094Y-78923959D01*
X163192448Y-78949311D01*
X163187168Y-78949500D01*
X160284412Y-78949500D01*
X160232086Y-78927826D01*
X157772174Y-76467913D01*
X157750500Y-76415587D01*
X157750500Y-76235000D01*
X174394659Y-76235000D01*
X174413976Y-76431133D01*
X174471187Y-76619731D01*
X174558776Y-76783597D01*
X174564090Y-76793538D01*
X174689117Y-76945883D01*
X174841462Y-77070910D01*
X174918426Y-77112048D01*
X175015268Y-77163812D01*
X175015270Y-77163812D01*
X175015273Y-77163814D01*
X175203868Y-77221024D01*
X175400000Y-77240341D01*
X175596132Y-77221024D01*
X175784727Y-77163814D01*
X175958538Y-77070910D01*
X176110883Y-76945883D01*
X176235910Y-76793538D01*
X176328814Y-76619727D01*
X176386024Y-76431132D01*
X176405341Y-76235000D01*
X176386024Y-76038868D01*
X176328814Y-75850273D01*
X176328812Y-75850270D01*
X176328812Y-75850268D01*
X176277048Y-75753426D01*
X176235910Y-75676462D01*
X176110883Y-75524117D01*
X175958538Y-75399090D01*
X175948597Y-75393776D01*
X175784731Y-75306187D01*
X175596133Y-75248976D01*
X175400000Y-75229659D01*
X175203866Y-75248976D01*
X175015268Y-75306187D01*
X174841463Y-75399089D01*
X174689117Y-75524117D01*
X174564089Y-75676463D01*
X174471187Y-75850268D01*
X174413976Y-76038866D01*
X174394659Y-76235000D01*
X157750500Y-76235000D01*
X157750500Y-72083413D01*
X157772174Y-72031087D01*
X157824500Y-72009413D01*
X157876826Y-72031087D01*
X160608103Y-74762364D01*
X160700172Y-74800500D01*
X160799828Y-74800500D01*
X162237168Y-74800500D01*
X162289494Y-74822174D01*
X162293094Y-74826041D01*
X162351947Y-74893963D01*
X162351948Y-74893964D01*
X162351951Y-74893967D01*
X162460931Y-74964004D01*
X162585228Y-75000500D01*
X162714772Y-75000500D01*
X162839069Y-74964004D01*
X162948049Y-74893967D01*
X163032882Y-74796063D01*
X163086697Y-74678226D01*
X163105133Y-74550000D01*
X163086697Y-74421774D01*
X163032882Y-74303937D01*
X162948049Y-74206033D01*
X162881032Y-74162964D01*
X162839068Y-74135995D01*
X162714772Y-74099500D01*
X162585228Y-74099500D01*
X162460931Y-74135995D01*
X162351954Y-74206031D01*
X162351947Y-74206036D01*
X162293094Y-74273959D01*
X162242448Y-74299311D01*
X162237168Y-74299500D01*
X160884413Y-74299500D01*
X160832087Y-74277826D01*
X160249261Y-73695000D01*
X174394659Y-73695000D01*
X174413976Y-73891133D01*
X174471187Y-74079731D01*
X174558776Y-74243597D01*
X174564090Y-74253538D01*
X174689117Y-74405883D01*
X174841462Y-74530910D01*
X174877177Y-74550000D01*
X175015268Y-74623812D01*
X175015270Y-74623812D01*
X175015273Y-74623814D01*
X175203868Y-74681024D01*
X175400000Y-74700341D01*
X175596132Y-74681024D01*
X175784727Y-74623814D01*
X175958538Y-74530910D01*
X176110883Y-74405883D01*
X176235910Y-74253538D01*
X176328814Y-74079727D01*
X176386024Y-73891132D01*
X176405341Y-73695000D01*
X176386024Y-73498868D01*
X176328814Y-73310273D01*
X176328812Y-73310270D01*
X176328812Y-73310268D01*
X176277048Y-73213426D01*
X176235910Y-73136462D01*
X176110883Y-72984117D01*
X175958538Y-72859090D01*
X175948597Y-72853776D01*
X175784731Y-72766187D01*
X175596133Y-72708976D01*
X175400000Y-72689659D01*
X175203866Y-72708976D01*
X175015268Y-72766187D01*
X174841463Y-72859089D01*
X174689117Y-72984117D01*
X174564089Y-73136463D01*
X174471187Y-73310268D01*
X174413976Y-73498866D01*
X174394659Y-73695000D01*
X160249261Y-73695000D01*
X157772174Y-71217913D01*
X157750500Y-71165587D01*
X157750500Y-71155000D01*
X174394659Y-71155000D01*
X174413976Y-71351133D01*
X174471187Y-71539731D01*
X174558776Y-71703597D01*
X174564090Y-71713538D01*
X174689117Y-71865883D01*
X174841462Y-71990910D01*
X174876079Y-72009413D01*
X175015268Y-72083812D01*
X175015270Y-72083812D01*
X175015273Y-72083814D01*
X175203868Y-72141024D01*
X175400000Y-72160341D01*
X175596132Y-72141024D01*
X175784727Y-72083814D01*
X175958538Y-71990910D01*
X176110883Y-71865883D01*
X176235910Y-71713538D01*
X176328814Y-71539727D01*
X176386024Y-71351132D01*
X176405341Y-71155000D01*
X176386024Y-70958868D01*
X176328814Y-70770273D01*
X176328812Y-70770270D01*
X176328812Y-70770268D01*
X176277048Y-70673426D01*
X176235910Y-70596462D01*
X176110883Y-70444117D01*
X175958538Y-70319090D01*
X175948597Y-70313776D01*
X175784731Y-70226187D01*
X175596133Y-70168976D01*
X175400000Y-70149659D01*
X175203866Y-70168976D01*
X175015268Y-70226187D01*
X174841463Y-70319089D01*
X174689117Y-70444117D01*
X174564089Y-70596463D01*
X174471187Y-70770268D01*
X174413976Y-70958866D01*
X174394659Y-71155000D01*
X157750500Y-71155000D01*
X157750500Y-68615000D01*
X174394659Y-68615000D01*
X174413976Y-68811133D01*
X174471187Y-68999731D01*
X174558776Y-69163597D01*
X174564090Y-69173538D01*
X174689117Y-69325883D01*
X174841462Y-69450910D01*
X174918426Y-69492048D01*
X175015268Y-69543812D01*
X175015270Y-69543812D01*
X175015273Y-69543814D01*
X175203868Y-69601024D01*
X175400000Y-69620341D01*
X175596132Y-69601024D01*
X175784727Y-69543814D01*
X175958538Y-69450910D01*
X176110883Y-69325883D01*
X176235910Y-69173538D01*
X176328814Y-68999727D01*
X176386024Y-68811132D01*
X176405341Y-68615000D01*
X176386024Y-68418868D01*
X176328814Y-68230273D01*
X176328812Y-68230270D01*
X176328812Y-68230268D01*
X176247543Y-68078226D01*
X176235910Y-68056462D01*
X176110883Y-67904117D01*
X175958538Y-67779090D01*
X175948597Y-67773776D01*
X175784731Y-67686187D01*
X175596133Y-67628976D01*
X175400000Y-67609659D01*
X175203866Y-67628976D01*
X175015268Y-67686187D01*
X174841463Y-67779089D01*
X174689117Y-67904117D01*
X174564089Y-68056463D01*
X174471187Y-68230268D01*
X174413976Y-68418866D01*
X174394659Y-68615000D01*
X157750500Y-68615000D01*
X157750500Y-65633413D01*
X157772174Y-65581087D01*
X157824500Y-65559413D01*
X157876826Y-65581087D01*
X160458103Y-68162364D01*
X160550172Y-68200500D01*
X160649828Y-68200500D01*
X163487168Y-68200500D01*
X163539494Y-68222174D01*
X163543094Y-68226041D01*
X163601947Y-68293963D01*
X163601948Y-68293964D01*
X163601951Y-68293967D01*
X163710931Y-68364004D01*
X163835228Y-68400500D01*
X163964772Y-68400500D01*
X164089069Y-68364004D01*
X164198049Y-68293967D01*
X164282882Y-68196063D01*
X164336697Y-68078226D01*
X164355133Y-67950000D01*
X164336697Y-67821774D01*
X164282882Y-67703937D01*
X164198049Y-67606033D01*
X164131032Y-67562964D01*
X164089068Y-67535995D01*
X163964772Y-67499500D01*
X163835228Y-67499500D01*
X163710931Y-67535995D01*
X163601954Y-67606031D01*
X163601947Y-67606036D01*
X163543094Y-67673959D01*
X163492448Y-67699311D01*
X163487168Y-67699500D01*
X160734413Y-67699500D01*
X160682087Y-67677826D01*
X159944081Y-66939820D01*
X174399500Y-66939820D01*
X174408233Y-66983722D01*
X174441496Y-67033504D01*
X174491278Y-67066767D01*
X174535180Y-67075500D01*
X174535181Y-67075500D01*
X176264819Y-67075500D01*
X176264820Y-67075500D01*
X176308722Y-67066767D01*
X176358504Y-67033504D01*
X176391767Y-66983722D01*
X176400500Y-66939820D01*
X176400500Y-65210180D01*
X176391767Y-65166278D01*
X176358504Y-65116496D01*
X176308722Y-65083233D01*
X176264820Y-65074500D01*
X174535180Y-65074500D01*
X174513229Y-65078866D01*
X174491277Y-65083233D01*
X174441496Y-65116495D01*
X174441495Y-65116496D01*
X174408233Y-65166277D01*
X174408233Y-65166278D01*
X174399500Y-65210180D01*
X174399500Y-66939820D01*
X159944081Y-66939820D01*
X157968644Y-64964383D01*
X157946970Y-64912057D01*
X157947721Y-64901542D01*
X157955133Y-64850000D01*
X157936697Y-64721774D01*
X157882882Y-64603937D01*
X157798049Y-64506033D01*
X157731032Y-64462964D01*
X157689068Y-64435995D01*
X157564772Y-64399500D01*
X157435228Y-64399500D01*
X157310931Y-64435995D01*
X157201954Y-64506031D01*
X157201950Y-64506034D01*
X157117119Y-64603935D01*
X157063302Y-64721776D01*
X157044867Y-64850000D01*
X118500500Y-64850000D01*
X118500500Y-61634412D01*
X118522174Y-61582086D01*
X121382086Y-58722174D01*
X121434412Y-58700500D01*
X138249827Y-58700500D01*
X138249828Y-58700500D01*
X138341897Y-58662364D01*
X140112364Y-56891897D01*
X140150500Y-56799828D01*
X140150500Y-56700172D01*
X140150500Y-47874500D01*
X140172174Y-47822174D01*
X140224500Y-47800500D01*
X154775500Y-47800500D01*
X154827826Y-47822174D01*
G37*
G04 #@! TD.AperFunction*
M02*
